%TF.GenerationSoftware,KiCad,Pcbnew,9.0.0*%
%TF.CreationDate,2025-03-09T10:23:32+01:00*%
%TF.ProjectId,ws_3.0,77735f33-2e30-42e6-9b69-6361645f7063,rev?*%
%TF.SameCoordinates,Original*%
%TF.FileFunction,Copper,L2,Bot*%
%TF.FilePolarity,Positive*%
%FSLAX46Y46*%
G04 Gerber Fmt 4.6, Leading zero omitted, Abs format (unit mm)*
G04 Created by KiCad (PCBNEW 9.0.0) date 2025-03-09 10:23:32*
%MOMM*%
%LPD*%
G01*
G04 APERTURE LIST*
G04 Aperture macros list*
%AMRoundRect*
0 Rectangle with rounded corners*
0 $1 Rounding radius*
0 $2 $3 $4 $5 $6 $7 $8 $9 X,Y pos of 4 corners*
0 Add a 4 corners polygon primitive as box body*
4,1,4,$2,$3,$4,$5,$6,$7,$8,$9,$2,$3,0*
0 Add four circle primitives for the rounded corners*
1,1,$1+$1,$2,$3*
1,1,$1+$1,$4,$5*
1,1,$1+$1,$6,$7*
1,1,$1+$1,$8,$9*
0 Add four rect primitives between the rounded corners*
20,1,$1+$1,$2,$3,$4,$5,0*
20,1,$1+$1,$4,$5,$6,$7,0*
20,1,$1+$1,$6,$7,$8,$9,0*
20,1,$1+$1,$8,$9,$2,$3,0*%
G04 Aperture macros list end*
%TA.AperFunction,ComponentPad*%
%ADD10R,1.905000X2.000000*%
%TD*%
%TA.AperFunction,ComponentPad*%
%ADD11O,1.905000X2.000000*%
%TD*%
%TA.AperFunction,ComponentPad*%
%ADD12RoundRect,0.250000X-0.550000X-0.550000X0.550000X-0.550000X0.550000X0.550000X-0.550000X0.550000X0*%
%TD*%
%TA.AperFunction,ComponentPad*%
%ADD13C,1.600000*%
%TD*%
%TA.AperFunction,ComponentPad*%
%ADD14R,1.700000X1.700000*%
%TD*%
%TA.AperFunction,ComponentPad*%
%ADD15O,1.700000X1.700000*%
%TD*%
%TA.AperFunction,ComponentPad*%
%ADD16C,2.000000*%
%TD*%
%TA.AperFunction,ComponentPad*%
%ADD17RoundRect,0.250000X-0.650000X-0.650000X0.650000X-0.650000X0.650000X0.650000X-0.650000X0.650000X0*%
%TD*%
%TA.AperFunction,ComponentPad*%
%ADD18C,1.800000*%
%TD*%
%TA.AperFunction,ComponentPad*%
%ADD19R,1.600000X1.600000*%
%TD*%
%TA.AperFunction,ComponentPad*%
%ADD20C,1.950000*%
%TD*%
%TA.AperFunction,ComponentPad*%
%ADD21R,1.950000X1.950000*%
%TD*%
%TA.AperFunction,ComponentPad*%
%ADD22R,2.000000X2.000000*%
%TD*%
%TA.AperFunction,ViaPad*%
%ADD23C,0.756400*%
%TD*%
%TA.AperFunction,ViaPad*%
%ADD24C,0.600000*%
%TD*%
%TA.AperFunction,Conductor*%
%ADD25C,0.600000*%
%TD*%
%TA.AperFunction,Conductor*%
%ADD26C,0.300000*%
%TD*%
G04 APERTURE END LIST*
D10*
%TO.P,U2,1,VI*%
%TO.N,/power/RAW*%
X140060000Y-131600000D03*
D11*
%TO.P,U2,2,GND*%
%TO.N,GND*%
X142600000Y-131600000D03*
%TO.P,U2,3,VO*%
%TO.N,+3.3V*%
X145140000Y-131600000D03*
%TD*%
D12*
%TO.P,SW1,1*%
%TO.N,GND*%
X160000000Y-72920000D03*
D13*
%TO.P,SW1,2*%
X160000000Y-75460000D03*
%TO.P,SW1,3*%
%TO.N,SS*%
X160000000Y-78000000D03*
%TO.P,SW1,4*%
%TO.N,OPT_PROGRAM*%
X167620000Y-78000000D03*
%TO.P,SW1,5*%
%TO.N,OPT_DEBUG*%
X167620000Y-75460000D03*
%TO.P,SW1,6*%
%TO.N,OPT_CLEAR*%
X167620000Y-72920000D03*
%TD*%
D14*
%TO.P,J1,1,MISO*%
%TO.N,Net-(J1-MISO)*%
X124655000Y-55352500D03*
D15*
%TO.P,J1,2,VCC*%
%TO.N,+3.3V*%
X124655000Y-52812500D03*
%TO.P,J1,3,SCK*%
%TO.N,I2C_SCL*%
X127195000Y-55352500D03*
%TO.P,J1,4,MOSI*%
%TO.N,I2C_SDA*%
X127195000Y-52812500D03*
%TO.P,J1,5,~{RST}*%
%TO.N,Net-(J1-~{RST})*%
X129735000Y-55352500D03*
%TO.P,J1,6,GND*%
%TO.N,GND*%
X129735000Y-52812500D03*
%TD*%
D16*
%TO.P,TP1,1,1*%
%TO.N,/power/RAW*%
X130000000Y-130000000D03*
%TD*%
D17*
%TO.P,J2,1*%
%TO.N,unconnected-(J2-Pad1)*%
X124400000Y-146500000D03*
D18*
%TO.P,J2,2*%
%TO.N,unconnected-(J2-Pad2)*%
X125670000Y-143960000D03*
%TO.P,J2,3*%
%TO.N,RAIN*%
X126940000Y-146500000D03*
%TO.P,J2,4*%
%TO.N,Net-(C3-Pad1)*%
X128210000Y-143960000D03*
%TD*%
D14*
%TO.P,J6,1,MISO*%
%TO.N,MISO*%
X115600000Y-95740000D03*
D15*
%TO.P,J6,2,VCC*%
%TO.N,+3.3V*%
X115600000Y-93200000D03*
%TO.P,J6,3,SCK*%
%TO.N,SCK*%
X118140000Y-95740000D03*
%TO.P,J6,4,MOSI*%
%TO.N,MOSI*%
X118140000Y-93200000D03*
%TO.P,J6,5,~{RST}*%
%TO.N,SS*%
X120680000Y-95740000D03*
%TO.P,J6,6,GND*%
%TO.N,GND*%
X120680000Y-93200000D03*
%TD*%
D19*
%TO.P,C2,1*%
%TO.N,+3.3V*%
X141044900Y-120500000D03*
D13*
%TO.P,C2,2*%
%TO.N,GND*%
X143044900Y-120500000D03*
%TD*%
D20*
%TO.P,BT1,1,+*%
%TO.N,/Attiny85/BATTERY*%
X144200000Y-51500000D03*
%TO.P,BT1,2,-*%
%TO.N,GND*%
X149200000Y-55300000D03*
%TO.P,BT1,3*%
%TO.N,/Attiny85/BATTERY*%
X154200000Y-51500000D03*
%TD*%
D14*
%TO.P,J7,1,Pin_1*%
%TO.N,GND*%
X116800000Y-138880000D03*
D15*
%TO.P,J7,2,Pin_2*%
X116800000Y-136340000D03*
%TO.P,J7,3,Pin_3*%
%TO.N,+3.3V*%
X116800000Y-133800000D03*
%TO.P,J7,4,Pin_4*%
%TO.N,TXD*%
X116800000Y-131260000D03*
%TO.P,J7,5,Pin_5*%
%TO.N,RXD*%
X116800000Y-128720000D03*
%TO.P,J7,6,Pin_6*%
%TO.N,Net-(J7-Pin_6)*%
X116800000Y-126180000D03*
%TD*%
D21*
%TO.P,AE1,1,A*%
%TO.N,ANTENNA*%
X180200000Y-141300000D03*
%TD*%
D16*
%TO.P,TP2,1,1*%
%TO.N,+3.3V*%
X130000000Y-134000000D03*
%TD*%
D21*
%TO.P,J5,1,1.1*%
%TO.N,/power/RAW*%
X166605745Y-143181536D03*
D20*
%TO.P,J5,2,1.2*%
X166605745Y-151381536D03*
%TO.P,J5,3,2.1*%
%TO.N,GND*%
X171605745Y-143181536D03*
%TO.P,J5,4,2.2*%
X171605745Y-151381536D03*
%TD*%
D17*
%TO.P,J4,1*%
%TO.N,TEMP_1W*%
X138400000Y-146500000D03*
D18*
%TO.P,J4,2*%
%TO.N,unconnected-(J4-Pad2)*%
X139670000Y-143960000D03*
%TO.P,J4,3*%
%TO.N,+3.3V*%
X140940000Y-146500000D03*
%TO.P,J4,4*%
%TO.N,GND*%
X142210000Y-143960000D03*
%TD*%
D16*
%TO.P,TP3,1,1*%
%TO.N,GND*%
X130000000Y-138000000D03*
%TD*%
D17*
%TO.P,J3,1*%
%TO.N,+3.3V*%
X152400000Y-146500000D03*
D18*
%TO.P,J3,2*%
%TO.N,WIND_DIR*%
X153670000Y-143960000D03*
%TO.P,J3,3*%
%TO.N,GND*%
X154940000Y-146500000D03*
%TO.P,J3,4*%
%TO.N,WIND_SPEED*%
X156210000Y-143960000D03*
%TD*%
D22*
%TO.P,C8,1*%
%TO.N,+3.3V*%
X163600000Y-110600000D03*
D16*
%TO.P,C8,2*%
%TO.N,GND*%
X158600000Y-110600000D03*
%TD*%
D23*
%TO.N,+3.3V*%
X160176000Y-125490000D03*
D24*
%TO.N,Net-(C3-Pad1)*%
X137641000Y-139357000D03*
%TO.N,OPT_CLEAR*%
X137072000Y-62490200D03*
X147496000Y-62490200D03*
X159153000Y-65052300D03*
%TO.N,OPT_DEBUG*%
X140352000Y-98185500D03*
X161214000Y-96768600D03*
D23*
%TO.N,BACKUP_POWER*%
X154048000Y-63870900D03*
X144693000Y-64417400D03*
D24*
%TO.N,Net-(J1-MISO)*%
X152540000Y-65919600D03*
%TO.N,Net-(J1-~{RST})*%
X148502000Y-57369400D03*
X119381000Y-55323100D03*
%TO.N,RAIN*%
X126127000Y-84426500D03*
X139656000Y-84426500D03*
%TO.N,WIND_SPEED*%
X131462000Y-120761000D03*
X150000000Y-122152400D03*
%TO.N,WIND_DIR*%
X140200000Y-89336100D03*
X128088000Y-135091000D03*
X126128600Y-89569072D03*
%TO.N,SCK*%
X150695000Y-100323000D03*
%TO.N,SS*%
X141684000Y-95619000D03*
%TO.N,MOSI*%
X143891000Y-93447400D03*
X119000000Y-89000000D03*
%TO.N,MISO*%
X148917100Y-96188400D03*
X151779800Y-102470000D03*
X146443800Y-94311800D03*
%TO.N,DIO0*%
X161322000Y-103725000D03*
X132000000Y-98000000D03*
D23*
%TO.N,GND*%
X132142600Y-105416600D03*
X147000000Y-83663500D03*
X141977000Y-90642200D03*
X153950000Y-134296000D03*
X141073000Y-65358200D03*
X131912000Y-66895300D03*
X113496000Y-69889400D03*
D24*
X120000000Y-90000000D03*
D23*
X130781400Y-119607000D03*
X135000000Y-126327000D03*
X125000000Y-87864600D03*
X126504000Y-69890200D03*
X153950000Y-117812000D03*
X122038000Y-62426000D03*
X140630243Y-137071757D03*
X113392000Y-87132700D03*
X134000000Y-73408000D03*
X139130000Y-94985100D03*
X137297000Y-94088300D03*
X140038000Y-104349000D03*
X150000000Y-126340000D03*
X165355000Y-140474000D03*
X145000000Y-106000000D03*
X133146000Y-61102800D03*
X145461000Y-69189500D03*
X137000000Y-121000000D03*
D24*
%TO.N,I2C_SCL*%
X121172000Y-60018700D03*
X154339000Y-58176100D03*
X128469000Y-61858100D03*
%TO.N,I2C_SDA*%
X152540000Y-69882900D03*
X130390000Y-66571100D03*
D23*
%TO.N,/power/RAW*%
X147946000Y-138211000D03*
D24*
%TO.N,Net-(U1-~{RESET}{slash}PC6)*%
X113676000Y-84426500D03*
X122234000Y-81589700D03*
%TO.N,Net-(U1-XTAL2{slash}PB7)*%
X137728000Y-104736000D03*
X116397000Y-108072000D03*
%TO.N,Net-(U1-XTAL1{slash}PB6)*%
X136755000Y-101492000D03*
X142000000Y-101492000D03*
X119386000Y-102077000D03*
%TO.N,TXD*%
X122513000Y-93134500D03*
X136407000Y-92850600D03*
%TO.N,RXD*%
X130766000Y-98233500D03*
X122235000Y-98233500D03*
%TO.N,Net-(U1-PC0)*%
X135286000Y-96716800D03*
X140736000Y-93811600D03*
%TO.N,Net-(J7-Pin_6)*%
X131966000Y-82389500D03*
X126091000Y-83351200D03*
%TD*%
D25*
%TO.N,+3.3V*%
X129800000Y-133800000D02*
X130000000Y-134000000D01*
X116800000Y-133800000D02*
X129800000Y-133800000D01*
X145140000Y-131600000D02*
X146547000Y-131600000D01*
X152656000Y-125490000D02*
X160176000Y-125490000D01*
X152400000Y-146500000D02*
X140940000Y-146500000D01*
X146547000Y-131600000D02*
X152656000Y-125490000D01*
%TO.N,/Attiny85/BATTERY*%
X154200000Y-51500000D02*
X144200000Y-51500000D01*
D26*
%TO.N,Net-(C3-Pad1)*%
X128210000Y-143960000D02*
X132813000Y-139357000D01*
X132813000Y-139357000D02*
X137641000Y-139357000D01*
%TO.N,OPT_CLEAR*%
X147496000Y-62490200D02*
X137072000Y-62490200D01*
X156591000Y-62490200D02*
X147496000Y-62490200D01*
X159153000Y-65052300D02*
X156591000Y-62490200D01*
%TO.N,OPT_DEBUG*%
X159797000Y-98185500D02*
X161214000Y-96768600D01*
X140352000Y-98185500D02*
X159797000Y-98185500D01*
D25*
%TO.N,BACKUP_POWER*%
X154048000Y-63870900D02*
X153501000Y-64417400D01*
X153501000Y-64417400D02*
X144693000Y-64417400D01*
D26*
%TO.N,Net-(J1-MISO)*%
X141616000Y-63347400D02*
X144188000Y-65919600D01*
X123787000Y-56506600D02*
X120540000Y-59753200D01*
X120540000Y-59753200D02*
X120540000Y-60276500D01*
X124655000Y-55352500D02*
X124655000Y-56506600D01*
X144188000Y-65919600D02*
X152540000Y-65919600D01*
X124655000Y-56506600D02*
X123787000Y-56506600D01*
X125642000Y-63347400D02*
X141616000Y-63347400D01*
X121999000Y-61735600D02*
X124030000Y-61735600D01*
X124030000Y-61735600D02*
X125642000Y-63347400D01*
X120540000Y-60276500D02*
X121999000Y-61735600D01*
%TO.N,Net-(J1-~{RST})*%
X132906000Y-57369400D02*
X148502000Y-57369400D01*
X130889000Y-55352500D02*
X132906000Y-57369400D01*
X119381000Y-55323100D02*
X120528000Y-54176600D01*
X129735000Y-55352500D02*
X130889000Y-55352500D01*
X120528000Y-54176600D02*
X128559000Y-54176600D01*
X128559000Y-54176600D02*
X129735000Y-55352500D01*
%TO.N,RAIN*%
X126127000Y-84426500D02*
X139656000Y-84426500D01*
%TO.N,WIND_SPEED*%
X148917400Y-123235000D02*
X133937000Y-123235000D01*
X133937000Y-123235000D02*
X131462000Y-120761000D01*
X150000000Y-122152400D02*
X148917400Y-123235000D01*
%TO.N,WIND_DIR*%
X128088000Y-135091000D02*
X128996000Y-136000000D01*
X126569028Y-89569072D02*
X126802000Y-89336100D01*
X140521000Y-136000000D02*
X148481000Y-143960000D01*
X126802000Y-89336100D02*
X140200000Y-89336100D01*
X126128600Y-89569072D02*
X126569028Y-89569072D01*
X148481000Y-143960000D02*
X153670000Y-143960000D01*
X128996000Y-136000000D02*
X140521000Y-136000000D01*
%TO.N,SCK*%
X119294000Y-95740000D02*
X119294000Y-96146900D01*
X123470000Y-100323000D02*
X150695000Y-100323000D01*
X118140000Y-95740000D02*
X119294000Y-95740000D01*
X119294000Y-96146900D02*
X123470000Y-100323000D01*
%TO.N,SS*%
X138848000Y-94302800D02*
X137883000Y-95267700D01*
X137883000Y-95267700D02*
X137883000Y-95267800D01*
X142777000Y-94054500D02*
X145812000Y-94054500D01*
X137883000Y-95267800D02*
X122306000Y-95267800D01*
X140124000Y-94302800D02*
X138848000Y-94302800D01*
X121834000Y-95740000D02*
X120680000Y-95740000D01*
X140445000Y-93186700D02*
X141910000Y-93186700D01*
X141684000Y-95619000D02*
X140367000Y-94302800D01*
X141910000Y-93186700D02*
X142777000Y-94054500D01*
X145812000Y-94054500D02*
X160000000Y-79866000D01*
X140367000Y-94302800D02*
X140124000Y-94302800D01*
X140124000Y-94302800D02*
X140124000Y-93508000D01*
X140124000Y-93508000D02*
X140445000Y-93186700D01*
X122306000Y-95267800D02*
X121834000Y-95740000D01*
X160000000Y-79866000D02*
X160000000Y-78000000D01*
%TO.N,MOSI*%
X146110000Y-93007500D02*
X145670000Y-93447400D01*
X126756833Y-90022471D02*
X126756832Y-90022472D01*
X145670000Y-93447400D02*
X143891000Y-93447400D01*
X125000000Y-90000000D02*
X125706191Y-90000000D01*
X125878663Y-90172472D02*
X126378537Y-90172472D01*
X141655272Y-90000000D02*
X141694672Y-89960600D01*
X125706191Y-90000000D02*
X125878663Y-90172472D01*
X126756833Y-90022471D02*
X126779304Y-90000000D01*
X142259328Y-89960600D02*
X142298728Y-90000000D01*
X126378537Y-90172472D02*
X126528538Y-90022471D01*
X125000000Y-89000000D02*
X125000000Y-90000000D01*
X126779304Y-90000000D02*
X141655272Y-90000000D01*
X146110000Y-92472600D02*
X146110000Y-93007500D01*
X126528538Y-90022471D02*
X126756833Y-90022471D01*
X143637400Y-90000000D02*
X146110000Y-92472600D01*
X142298728Y-90000000D02*
X143637400Y-90000000D01*
X141694672Y-89960600D02*
X142259328Y-89960600D01*
X119000000Y-89000000D02*
X125000000Y-89000000D01*
%TO.N,MISO*%
X146443800Y-94311800D02*
X147040500Y-94311800D01*
X119101300Y-102717100D02*
X151532700Y-102717100D01*
X151532700Y-102717100D02*
X151779800Y-102470000D01*
X147040500Y-94311800D02*
X148917100Y-96188400D01*
X115600000Y-99215800D02*
X119101300Y-102717100D01*
X115600000Y-95740000D02*
X115600000Y-99215800D01*
%TO.N,DIO0*%
X157316000Y-99719100D02*
X161322000Y-103725000D01*
X137432000Y-99719100D02*
X157316000Y-99719100D01*
X132000000Y-98000000D02*
X135713000Y-98000000D01*
X135713000Y-98000000D02*
X137432000Y-99719100D01*
%TO.N,I2C_SCL*%
X127195000Y-55352500D02*
X128349000Y-55352500D01*
X154339000Y-58176100D02*
X128349000Y-58176100D01*
X121178000Y-60013400D02*
X121172000Y-60018700D01*
X128349000Y-55352500D02*
X128349000Y-58176100D01*
X126624000Y-60013400D02*
X128469000Y-61858100D01*
X128349000Y-58176100D02*
X126624000Y-59901100D01*
X126624000Y-60013400D02*
X121178000Y-60013400D01*
X126624000Y-59901100D02*
X126624000Y-60013400D01*
%TO.N,I2C_SDA*%
X152540000Y-69882900D02*
X133702000Y-69882900D01*
X133702000Y-69882900D02*
X130390000Y-66571100D01*
D25*
%TO.N,/power/RAW*%
X138653000Y-132790000D02*
X138653000Y-131600000D01*
X140060000Y-131600000D02*
X138653000Y-131600000D01*
X138653000Y-131600000D02*
X131600000Y-131600000D01*
X166599600Y-143147000D02*
X166600000Y-143146600D01*
X165171000Y-143147000D02*
X160235000Y-138211000D01*
X166599600Y-143147000D02*
X165171000Y-143147000D01*
X144075000Y-138211000D02*
X138653000Y-132790000D01*
X160235000Y-138211000D02*
X147946000Y-138211000D01*
X131600000Y-131600000D02*
X130000000Y-130000000D01*
X166600000Y-143147000D02*
X166599600Y-143147000D01*
X147946000Y-138211000D02*
X144075000Y-138211000D01*
D26*
%TO.N,Net-(U1-~{RESET}{slash}PC6)*%
X119397000Y-84426500D02*
X122234000Y-81589700D01*
X113676000Y-84426500D02*
X119397000Y-84426500D01*
%TO.N,Net-(U1-XTAL2{slash}PB7)*%
X119733000Y-104736000D02*
X116397000Y-108072000D01*
X137728000Y-104736000D02*
X119733000Y-104736000D01*
%TO.N,Net-(U1-XTAL1{slash}PB6)*%
X136755000Y-101492000D02*
X136171000Y-102077000D01*
X136171000Y-102077000D02*
X119386000Y-102077000D01*
X142000000Y-101492000D02*
X136755000Y-101492000D01*
%TO.N,TXD*%
X136407000Y-92850600D02*
X122797000Y-92850600D01*
X122797000Y-92850600D02*
X122513000Y-93134500D01*
%TO.N,RXD*%
X130766000Y-98233500D02*
X122235000Y-98233500D01*
%TO.N,Net-(U1-PC0)*%
X135286000Y-96716800D02*
X141452000Y-96716800D01*
X142320000Y-95848500D02*
X142320000Y-95395300D01*
X141452000Y-96716800D02*
X142320000Y-95848500D01*
X142320000Y-95395300D02*
X140736000Y-93811600D01*
%TO.N,Net-(J7-Pin_6)*%
X126091000Y-83351200D02*
X131005000Y-83351200D01*
X131005000Y-83351200D02*
X131966000Y-82389500D01*
%TD*%
%TA.AperFunction,Conductor*%
%TO.N,GND*%
G36*
X117079000Y-138463731D02*
G01*
X116992993Y-138414075D01*
X116865826Y-138380000D01*
X116734174Y-138380000D01*
X116607007Y-138414075D01*
X116521000Y-138463731D01*
X116521000Y-136756268D01*
X116607007Y-136805925D01*
X116734174Y-136840000D01*
X116865826Y-136840000D01*
X116992993Y-136805925D01*
X117079000Y-136756268D01*
X117079000Y-138463731D01*
G37*
%TD.AperFunction*%
%TA.AperFunction,Conductor*%
G36*
X161942121Y-48079102D02*
G01*
X161988614Y-48132758D01*
X162000000Y-48185100D01*
X162000000Y-103548394D01*
X161979998Y-103616515D01*
X161926342Y-103663008D01*
X161856068Y-103673112D01*
X161791488Y-103643618D01*
X161753104Y-103583892D01*
X161752304Y-103581044D01*
X161744036Y-103550187D01*
X161684410Y-103446913D01*
X161684408Y-103446911D01*
X161684404Y-103446906D01*
X161600093Y-103362595D01*
X161600083Y-103362587D01*
X161496817Y-103302966D01*
X161496815Y-103302965D01*
X161496813Y-103302964D01*
X161381625Y-103272100D01*
X161381623Y-103272100D01*
X161349649Y-103272100D01*
X161281528Y-103252098D01*
X161260555Y-103235197D01*
X160670160Y-102644817D01*
X157523324Y-99498058D01*
X157501985Y-99476719D01*
X157501984Y-99476718D01*
X157476701Y-99462121D01*
X157432915Y-99436842D01*
X157432912Y-99436841D01*
X157432909Y-99436840D01*
X157412265Y-99431308D01*
X157355874Y-99416199D01*
X157355872Y-99416199D01*
X157276117Y-99416200D01*
X137609663Y-99416200D01*
X137541542Y-99396198D01*
X137520565Y-99379293D01*
X137309489Y-99168205D01*
X136267221Y-98125875D01*
X139899100Y-98125875D01*
X139899100Y-98245125D01*
X139929964Y-98360313D01*
X139929965Y-98360315D01*
X139929966Y-98360317D01*
X139989587Y-98463583D01*
X139989595Y-98463593D01*
X140073906Y-98547904D01*
X140073911Y-98547908D01*
X140073913Y-98547910D01*
X140073914Y-98547911D01*
X140073916Y-98547912D01*
X140117898Y-98573305D01*
X140177187Y-98607536D01*
X140292375Y-98638400D01*
X140292377Y-98638400D01*
X140411623Y-98638400D01*
X140411625Y-98638400D01*
X140526813Y-98607536D01*
X140630087Y-98547910D01*
X140641228Y-98536769D01*
X140652693Y-98525305D01*
X140715005Y-98491279D01*
X140741788Y-98488400D01*
X159783696Y-98488400D01*
X159836867Y-98488402D01*
X159836874Y-98488400D01*
X159836878Y-98488400D01*
X159870414Y-98479414D01*
X159870417Y-98479414D01*
X159890882Y-98473930D01*
X159913905Y-98467762D01*
X159913908Y-98467759D01*
X159913912Y-98467758D01*
X159913915Y-98467758D01*
X159913915Y-98467757D01*
X159914593Y-98467576D01*
X159916716Y-98466449D01*
X159920443Y-98463989D01*
X159961419Y-98440331D01*
X159961420Y-98440330D01*
X159961431Y-98440324D01*
X159979749Y-98429749D01*
X159982803Y-98428106D01*
X159984262Y-98426604D01*
X160025474Y-98385392D01*
X160025477Y-98385388D01*
X160237005Y-98173875D01*
X161152544Y-97258400D01*
X161214857Y-97224379D01*
X161241636Y-97221500D01*
X161273623Y-97221500D01*
X161273625Y-97221500D01*
X161388813Y-97190636D01*
X161492087Y-97131010D01*
X161576410Y-97046687D01*
X161636036Y-96943413D01*
X161666900Y-96828225D01*
X161666900Y-96708975D01*
X161636036Y-96593787D01*
X161606126Y-96541982D01*
X161576412Y-96490516D01*
X161576404Y-96490506D01*
X161492093Y-96406195D01*
X161492083Y-96406187D01*
X161388817Y-96346566D01*
X161388815Y-96346565D01*
X161388813Y-96346564D01*
X161273625Y-96315700D01*
X161154375Y-96315700D01*
X161039187Y-96346564D01*
X161039185Y-96346565D01*
X161039182Y-96346566D01*
X160935916Y-96406187D01*
X160935906Y-96406195D01*
X160851595Y-96490506D01*
X160851587Y-96490516D01*
X160791966Y-96593782D01*
X160791965Y-96593785D01*
X160791964Y-96593787D01*
X160763443Y-96700232D01*
X160761100Y-96708976D01*
X160761100Y-96740924D01*
X160741098Y-96809045D01*
X160724192Y-96830023D01*
X160295784Y-97258401D01*
X159731051Y-97823095D01*
X159708445Y-97845699D01*
X159646132Y-97879721D01*
X159619353Y-97882600D01*
X140741788Y-97882600D01*
X140673667Y-97862598D01*
X140652693Y-97845695D01*
X140630093Y-97823095D01*
X140630083Y-97823087D01*
X140526817Y-97763466D01*
X140526815Y-97763465D01*
X140526813Y-97763464D01*
X140411625Y-97732600D01*
X140292375Y-97732600D01*
X140177187Y-97763464D01*
X140177185Y-97763465D01*
X140177182Y-97763466D01*
X140073916Y-97823087D01*
X140073906Y-97823095D01*
X139989595Y-97907406D01*
X139989587Y-97907416D01*
X139929966Y-98010682D01*
X139929965Y-98010685D01*
X139929964Y-98010687D01*
X139899100Y-98125875D01*
X136267221Y-98125875D01*
X136233652Y-98092304D01*
X135960850Y-97819486D01*
X135960850Y-97819485D01*
X135955382Y-97814017D01*
X135955381Y-97814015D01*
X135916063Y-97774697D01*
X135898992Y-97757625D01*
X135898989Y-97757623D01*
X135898985Y-97757619D01*
X135898983Y-97757618D01*
X135898981Y-97757616D01*
X135861644Y-97736060D01*
X135861625Y-97736049D01*
X135861176Y-97735790D01*
X135829923Y-97717745D01*
X135829917Y-97717743D01*
X135829915Y-97717742D01*
X135828755Y-97717431D01*
X135828753Y-97717430D01*
X135800833Y-97709949D01*
X135752891Y-97697102D01*
X135752890Y-97697101D01*
X135752887Y-97697101D01*
X135752881Y-97697100D01*
X135752880Y-97697100D01*
X135726302Y-97697100D01*
X135673131Y-97697098D01*
X135673124Y-97697100D01*
X132389788Y-97697100D01*
X132321667Y-97677098D01*
X132300693Y-97660195D01*
X132278093Y-97637595D01*
X132278083Y-97637587D01*
X132174817Y-97577966D01*
X132174815Y-97577965D01*
X132174813Y-97577964D01*
X132059625Y-97547100D01*
X131940375Y-97547100D01*
X131825187Y-97577964D01*
X131825185Y-97577965D01*
X131825182Y-97577966D01*
X131721916Y-97637587D01*
X131721906Y-97637595D01*
X131637595Y-97721906D01*
X131637587Y-97721916D01*
X131577966Y-97825182D01*
X131577965Y-97825185D01*
X131577964Y-97825187D01*
X131547100Y-97940375D01*
X131547100Y-98059625D01*
X131577964Y-98174813D01*
X131577965Y-98174815D01*
X131577966Y-98174817D01*
X131637587Y-98278083D01*
X131637595Y-98278093D01*
X131721906Y-98362404D01*
X131721911Y-98362408D01*
X131721913Y-98362410D01*
X131721914Y-98362411D01*
X131721916Y-98362412D01*
X131794508Y-98404323D01*
X131825187Y-98422036D01*
X131940375Y-98452900D01*
X131940377Y-98452900D01*
X132059623Y-98452900D01*
X132059625Y-98452900D01*
X132174813Y-98422036D01*
X132278087Y-98362410D01*
X132280187Y-98360310D01*
X132300693Y-98339805D01*
X132363005Y-98305779D01*
X132389788Y-98302900D01*
X135535336Y-98302900D01*
X135603457Y-98322902D01*
X135624432Y-98339805D01*
X136700764Y-99416200D01*
X137089549Y-99805007D01*
X137123572Y-99867320D01*
X137118505Y-99938136D01*
X137075957Y-99994970D01*
X137009436Y-100019779D01*
X137000451Y-100020100D01*
X123647659Y-100020100D01*
X123579538Y-100000098D01*
X123558562Y-99983194D01*
X122412516Y-98837120D01*
X122402797Y-98819321D01*
X122388973Y-98804490D01*
X122386133Y-98788802D01*
X122378492Y-98774808D01*
X122379938Y-98754582D01*
X122376327Y-98734629D01*
X122382420Y-98719894D01*
X122383558Y-98703992D01*
X122395709Y-98687759D01*
X122403459Y-98669021D01*
X122420961Y-98654027D01*
X122426105Y-98647157D01*
X122429693Y-98644568D01*
X122434021Y-98641559D01*
X122513087Y-98595910D01*
X122543640Y-98565356D01*
X122552868Y-98558942D01*
X122576313Y-98551123D01*
X122598005Y-98539279D01*
X122618412Y-98537085D01*
X122620219Y-98536483D01*
X122621346Y-98536769D01*
X122624788Y-98536400D01*
X130376212Y-98536400D01*
X130444333Y-98556402D01*
X130465307Y-98573305D01*
X130487906Y-98595904D01*
X130487911Y-98595908D01*
X130487913Y-98595910D01*
X130487914Y-98595911D01*
X130487916Y-98595912D01*
X130560508Y-98637823D01*
X130591187Y-98655536D01*
X130706375Y-98686400D01*
X130706377Y-98686400D01*
X130825623Y-98686400D01*
X130825625Y-98686400D01*
X130940813Y-98655536D01*
X131044087Y-98595910D01*
X131128410Y-98511587D01*
X131188036Y-98408313D01*
X131218900Y-98293125D01*
X131218900Y-98173875D01*
X131188036Y-98058687D01*
X131128410Y-97955413D01*
X131128408Y-97955411D01*
X131128404Y-97955406D01*
X131044093Y-97871095D01*
X131044083Y-97871087D01*
X130940817Y-97811466D01*
X130940815Y-97811465D01*
X130940813Y-97811464D01*
X130825625Y-97780600D01*
X130706375Y-97780600D01*
X130591187Y-97811464D01*
X130591185Y-97811465D01*
X130591182Y-97811466D01*
X130487916Y-97871087D01*
X130487906Y-97871095D01*
X130465307Y-97893695D01*
X130402995Y-97927721D01*
X130376212Y-97930600D01*
X122624788Y-97930600D01*
X122556667Y-97910598D01*
X122535693Y-97893695D01*
X122513093Y-97871095D01*
X122513083Y-97871087D01*
X122409817Y-97811466D01*
X122409815Y-97811465D01*
X122409813Y-97811464D01*
X122294625Y-97780600D01*
X122175375Y-97780600D01*
X122060187Y-97811464D01*
X122060185Y-97811465D01*
X122060182Y-97811466D01*
X121956916Y-97871087D01*
X121956906Y-97871095D01*
X121872595Y-97955406D01*
X121872589Y-97955414D01*
X121829598Y-98029876D01*
X121778214Y-98078869D01*
X121708501Y-98092304D01*
X121642590Y-98065917D01*
X121631395Y-98055981D01*
X120533431Y-96957991D01*
X120499409Y-96895682D01*
X120504475Y-96824866D01*
X120547022Y-96768031D01*
X120613543Y-96743221D01*
X120622530Y-96742900D01*
X120778776Y-96742900D01*
X120778777Y-96742900D01*
X120972535Y-96704359D01*
X121155051Y-96628759D01*
X121319312Y-96519004D01*
X121459004Y-96379312D01*
X121568759Y-96215051D01*
X121607848Y-96120682D01*
X121620594Y-96104864D01*
X121629033Y-96086388D01*
X121642414Y-96077787D01*
X121652397Y-96065401D01*
X121671671Y-96058985D01*
X121688759Y-96048004D01*
X121716763Y-96043977D01*
X121719760Y-96042980D01*
X121724257Y-96042900D01*
X121785958Y-96042900D01*
X121786128Y-96042910D01*
X121794183Y-96042908D01*
X121794186Y-96042909D01*
X121836410Y-96042900D01*
X121873878Y-96042900D01*
X121873879Y-96042900D01*
X121873936Y-96042892D01*
X121873942Y-96042892D01*
X121912559Y-96032535D01*
X121912943Y-96032432D01*
X121912943Y-96032434D01*
X121912957Y-96032427D01*
X121950572Y-96022349D01*
X121950896Y-96022266D01*
X121950913Y-96022258D01*
X121950915Y-96022258D01*
X121950916Y-96022257D01*
X121950968Y-96022234D01*
X121950975Y-96022233D01*
X121950983Y-96022228D01*
X121951044Y-96022202D01*
X121951713Y-96021806D01*
X121983940Y-96003190D01*
X122019985Y-95982381D01*
X122019987Y-95982378D01*
X122020007Y-95982367D01*
X122020029Y-95982344D01*
X122020036Y-95982341D01*
X122045983Y-95956382D01*
X122076381Y-95925985D01*
X122076382Y-95925982D01*
X122082634Y-95919731D01*
X122082733Y-95919615D01*
X122394596Y-95607622D01*
X122456900Y-95573585D01*
X122483709Y-95570700D01*
X137922876Y-95570700D01*
X137922878Y-95570700D01*
X137999915Y-95550058D01*
X138068985Y-95510181D01*
X138125381Y-95453785D01*
X138130881Y-95448285D01*
X138131572Y-95447495D01*
X138936552Y-94642599D01*
X138998866Y-94608578D01*
X139025643Y-94605700D01*
X140084122Y-94605700D01*
X140163878Y-94605700D01*
X140189420Y-94605700D01*
X140257541Y-94625702D01*
X140278488Y-94642577D01*
X140600998Y-94964891D01*
X141190480Y-95554015D01*
X141194168Y-95557700D01*
X141228212Y-95620002D01*
X141231100Y-95646823D01*
X141231100Y-95678625D01*
X141261964Y-95793813D01*
X141261965Y-95793815D01*
X141261966Y-95793817D01*
X141321587Y-95897083D01*
X141321595Y-95897093D01*
X141405906Y-95981404D01*
X141405911Y-95981408D01*
X141405913Y-95981410D01*
X141405914Y-95981411D01*
X141405916Y-95981412D01*
X141487509Y-96028520D01*
X141505032Y-96046898D01*
X141525364Y-96062113D01*
X141529109Y-96072149D01*
X141536502Y-96079903D01*
X141541307Y-96104837D01*
X141550186Y-96128629D01*
X141547910Y-96139097D01*
X141549938Y-96149616D01*
X141540500Y-96173188D01*
X141535107Y-96198005D01*
X141525341Y-96211055D01*
X141523551Y-96215527D01*
X141513620Y-96226719D01*
X141363411Y-96376980D01*
X141301105Y-96411016D01*
X141274300Y-96413900D01*
X135675788Y-96413900D01*
X135607667Y-96393898D01*
X135586693Y-96376995D01*
X135564093Y-96354395D01*
X135564083Y-96354387D01*
X135460817Y-96294766D01*
X135460815Y-96294765D01*
X135460813Y-96294764D01*
X135345625Y-96263900D01*
X135226375Y-96263900D01*
X135111187Y-96294764D01*
X135111185Y-96294765D01*
X135111182Y-96294766D01*
X135007916Y-96354387D01*
X135007906Y-96354395D01*
X134923595Y-96438706D01*
X134923587Y-96438716D01*
X134863966Y-96541982D01*
X134863965Y-96541985D01*
X134863964Y-96541987D01*
X134833100Y-96657175D01*
X134833100Y-96776425D01*
X134863964Y-96891613D01*
X134863965Y-96891615D01*
X134863966Y-96891617D01*
X134923587Y-96994883D01*
X134923595Y-96994893D01*
X135007906Y-97079204D01*
X135007911Y-97079208D01*
X135007913Y-97079210D01*
X135111187Y-97138836D01*
X135226375Y-97169700D01*
X135226377Y-97169700D01*
X135345623Y-97169700D01*
X135345625Y-97169700D01*
X135460813Y-97138836D01*
X135564087Y-97079210D01*
X135564093Y-97079204D01*
X135586693Y-97056605D01*
X135649005Y-97022579D01*
X135675788Y-97019700D01*
X141412148Y-97019700D01*
X141412174Y-97019707D01*
X141455120Y-97019700D01*
X141491878Y-97019700D01*
X141491882Y-97019700D01*
X141491925Y-97019694D01*
X141491930Y-97019694D01*
X141533212Y-97008624D01*
X141568915Y-96999058D01*
X141568920Y-96999054D01*
X141568923Y-96999054D01*
X141568953Y-96999040D01*
X141568964Y-96999038D01*
X141604653Y-96978424D01*
X141636765Y-96959885D01*
X141637955Y-96959219D01*
X141638022Y-96959151D01*
X141638027Y-96959149D01*
X141666808Y-96930356D01*
X141666828Y-96930345D01*
X141666824Y-96930341D01*
X141694381Y-96902785D01*
X141694382Y-96902782D01*
X141700364Y-96896801D01*
X141700440Y-96896713D01*
X142530719Y-96066145D01*
X142530735Y-96066131D01*
X142561248Y-96035618D01*
X142562347Y-96034551D01*
X142562406Y-96034448D01*
X142562413Y-96034442D01*
X142576895Y-96009346D01*
X142580911Y-96002389D01*
X142580914Y-96002382D01*
X142602258Y-95965415D01*
X142602258Y-95965412D01*
X142602263Y-95965405D01*
X142602273Y-95965381D01*
X142602276Y-95965369D01*
X142602278Y-95965366D01*
X142613914Y-95921913D01*
X142613915Y-95921910D01*
X142613918Y-95921910D01*
X142613918Y-95921895D01*
X142622900Y-95888378D01*
X142622900Y-95888373D01*
X142622901Y-95888370D01*
X142622905Y-95888342D01*
X142622905Y-95888332D01*
X142622908Y-95888325D01*
X142622900Y-95842750D01*
X142622900Y-95435163D01*
X142622904Y-95435149D01*
X142622900Y-95384505D01*
X142622900Y-95355422D01*
X142622900Y-95355416D01*
X142622897Y-95355398D01*
X142622897Y-95355393D01*
X142610107Y-95307678D01*
X142610106Y-95307672D01*
X142607156Y-95296667D01*
X142602258Y-95278385D01*
X142602255Y-95278380D01*
X142602251Y-95278365D01*
X142601450Y-95276978D01*
X142582597Y-95244332D01*
X142582593Y-95244317D01*
X142582590Y-95244319D01*
X142563047Y-95210469D01*
X142563047Y-95210468D01*
X142562812Y-95210062D01*
X142562381Y-95209315D01*
X142562379Y-95209313D01*
X142562374Y-95209304D01*
X142562364Y-95209294D01*
X142562363Y-95209292D01*
X142535989Y-95182923D01*
X142505985Y-95152919D01*
X142505971Y-95152911D01*
X142328398Y-94975372D01*
X141225813Y-93872995D01*
X141191782Y-93810686D01*
X141188900Y-93783891D01*
X141188900Y-93751976D01*
X141188900Y-93751975D01*
X141161096Y-93648207D01*
X141162786Y-93577235D01*
X141202580Y-93518439D01*
X141267844Y-93490491D01*
X141282803Y-93489600D01*
X141732228Y-93489600D01*
X141800349Y-93509602D01*
X141821365Y-93526546D01*
X142497095Y-94202900D01*
X142534582Y-94240421D01*
X142534619Y-94240485D01*
X142563808Y-94269674D01*
X142590905Y-94296796D01*
X142591011Y-94296877D01*
X142591015Y-94296881D01*
X142626120Y-94317149D01*
X142659955Y-94336704D01*
X142660023Y-94336722D01*
X142660085Y-94336758D01*
X142691660Y-94345218D01*
X142698126Y-94346951D01*
X142698125Y-94346953D01*
X142698165Y-94346961D01*
X142736982Y-94357382D01*
X142736984Y-94357382D01*
X142737120Y-94357400D01*
X142775782Y-94357400D01*
X142816738Y-94357419D01*
X142816740Y-94357418D01*
X142824768Y-94357422D01*
X142825118Y-94357400D01*
X145772123Y-94357400D01*
X145772127Y-94357401D01*
X145851883Y-94357400D01*
X145869676Y-94352631D01*
X145883431Y-94352025D01*
X145905068Y-94357354D01*
X145927341Y-94357883D01*
X145938859Y-94365678D01*
X145952367Y-94369005D01*
X145967687Y-94385185D01*
X145986140Y-94397673D01*
X145994066Y-94413047D01*
X146001180Y-94420560D01*
X146003056Y-94430482D01*
X146010691Y-94445290D01*
X146021762Y-94486606D01*
X146021764Y-94486613D01*
X146021765Y-94486615D01*
X146021766Y-94486617D01*
X146081387Y-94589883D01*
X146081395Y-94589893D01*
X146165706Y-94674204D01*
X146165711Y-94674208D01*
X146165713Y-94674210D01*
X146268987Y-94733836D01*
X146384175Y-94764700D01*
X146384177Y-94764700D01*
X146503423Y-94764700D01*
X146503425Y-94764700D01*
X146618613Y-94733836D01*
X146721887Y-94674210D01*
X146727133Y-94668964D01*
X146744493Y-94651605D01*
X146771861Y-94636660D01*
X146798090Y-94619804D01*
X146804388Y-94618898D01*
X146806805Y-94617579D01*
X146833588Y-94614700D01*
X146862844Y-94614700D01*
X146930965Y-94634702D01*
X146951939Y-94651605D01*
X148427295Y-96126961D01*
X148461321Y-96189273D01*
X148464200Y-96216056D01*
X148464200Y-96248025D01*
X148495064Y-96363213D01*
X148495065Y-96363215D01*
X148495066Y-96363217D01*
X148554687Y-96466483D01*
X148554695Y-96466493D01*
X148639006Y-96550804D01*
X148639011Y-96550808D01*
X148639013Y-96550810D01*
X148742287Y-96610436D01*
X148857475Y-96641300D01*
X148857477Y-96641300D01*
X148976723Y-96641300D01*
X148976725Y-96641300D01*
X149091913Y-96610436D01*
X149195187Y-96550810D01*
X149279510Y-96466487D01*
X149339136Y-96363213D01*
X149370000Y-96248025D01*
X149370000Y-96128775D01*
X149339136Y-96013587D01*
X149306108Y-95956382D01*
X149279512Y-95910316D01*
X149279504Y-95910306D01*
X149195193Y-95825995D01*
X149195183Y-95825987D01*
X149091917Y-95766366D01*
X149091915Y-95766365D01*
X149091913Y-95766364D01*
X148976725Y-95735500D01*
X148976723Y-95735500D01*
X148944756Y-95735500D01*
X148876635Y-95715498D01*
X148855661Y-95698595D01*
X147226491Y-94069424D01*
X147226481Y-94069416D01*
X147157416Y-94029542D01*
X147080379Y-94008899D01*
X147080378Y-94008899D01*
X147000622Y-94008899D01*
X146992904Y-94008899D01*
X146992888Y-94008900D01*
X146833588Y-94008900D01*
X146765467Y-93988898D01*
X146744493Y-93971995D01*
X146721893Y-93949395D01*
X146721883Y-93949387D01*
X146665699Y-93916949D01*
X146625443Y-93893707D01*
X146576452Y-93842327D01*
X146563016Y-93772613D01*
X146589402Y-93706702D01*
X146599338Y-93695507D01*
X160185985Y-80108381D01*
X160242381Y-80051985D01*
X160282258Y-79982915D01*
X160282258Y-79982912D01*
X160282260Y-79982910D01*
X160302902Y-79905872D01*
X160302900Y-79826116D01*
X160302900Y-78990136D01*
X160322902Y-78922015D01*
X160376558Y-78875522D01*
X160380660Y-78873736D01*
X160451368Y-78844449D01*
X160607439Y-78740166D01*
X160740166Y-78607439D01*
X160844449Y-78451368D01*
X160916281Y-78277951D01*
X160952900Y-78093852D01*
X160952900Y-77906148D01*
X160916281Y-77722049D01*
X160844449Y-77548632D01*
X160740166Y-77392561D01*
X160607439Y-77259834D01*
X160451368Y-77155551D01*
X160277951Y-77083719D01*
X160150441Y-77058356D01*
X160087531Y-77025448D01*
X160052399Y-76963753D01*
X160056199Y-76892859D01*
X160097725Y-76835273D01*
X160155311Y-76810328D01*
X160318003Y-76784559D01*
X160521286Y-76718509D01*
X160521292Y-76718506D01*
X160711751Y-76621463D01*
X160743690Y-76598257D01*
X160743690Y-76598255D01*
X160005435Y-75860000D01*
X160052661Y-75860000D01*
X160154394Y-75832741D01*
X160245606Y-75780080D01*
X160320080Y-75705606D01*
X160372741Y-75614394D01*
X160400000Y-75512661D01*
X160400000Y-75465435D01*
X161138255Y-76203690D01*
X161138257Y-76203690D01*
X161161463Y-76171751D01*
X161258506Y-75981292D01*
X161258509Y-75981286D01*
X161324559Y-75778003D01*
X161358000Y-75566873D01*
X161358000Y-75353126D01*
X161324559Y-75141996D01*
X161258509Y-74938713D01*
X161258506Y-74938707D01*
X161161464Y-74748251D01*
X161138256Y-74716308D01*
X160400000Y-75454564D01*
X160400000Y-75407339D01*
X160372741Y-75305606D01*
X160320080Y-75214394D01*
X160245606Y-75139920D01*
X160154394Y-75087259D01*
X160052661Y-75060000D01*
X160005434Y-75060000D01*
X160753898Y-74311533D01*
X160754923Y-74300403D01*
X160759507Y-74294532D01*
X160761038Y-74287245D01*
X160781060Y-74266932D01*
X160798620Y-74244448D01*
X160808065Y-74239537D01*
X160810879Y-74236684D01*
X160830441Y-74227906D01*
X160854739Y-74219404D01*
X160902801Y-74202586D01*
X161056967Y-74105717D01*
X161056970Y-74105715D01*
X161185715Y-73976970D01*
X161185717Y-73976967D01*
X161282587Y-73822799D01*
X161342726Y-73650937D01*
X161342727Y-73650929D01*
X161358000Y-73515381D01*
X161358000Y-73199000D01*
X160286686Y-73199000D01*
X160320080Y-73165606D01*
X160372741Y-73074394D01*
X160400000Y-72972661D01*
X160400000Y-72867339D01*
X160372741Y-72765606D01*
X160320080Y-72674394D01*
X160286686Y-72641000D01*
X161358000Y-72641000D01*
X161358000Y-72324618D01*
X161342727Y-72189070D01*
X161342726Y-72189062D01*
X161282587Y-72017200D01*
X161185717Y-71863032D01*
X161185715Y-71863029D01*
X161056970Y-71734284D01*
X161056967Y-71734282D01*
X160902799Y-71637412D01*
X160902800Y-71637412D01*
X160730937Y-71577273D01*
X160730929Y-71577272D01*
X160595382Y-71562000D01*
X160279000Y-71562000D01*
X160279000Y-72633314D01*
X160245606Y-72599920D01*
X160154394Y-72547259D01*
X160052661Y-72520000D01*
X159947339Y-72520000D01*
X159845606Y-72547259D01*
X159754394Y-72599920D01*
X159721000Y-72633314D01*
X159721000Y-71562000D01*
X159404618Y-71562000D01*
X159269070Y-71577272D01*
X159269062Y-71577273D01*
X159097200Y-71637412D01*
X158943032Y-71734282D01*
X158943029Y-71734284D01*
X158814284Y-71863029D01*
X158814282Y-71863032D01*
X158717412Y-72017200D01*
X158657273Y-72189062D01*
X158657272Y-72189070D01*
X158642000Y-72324618D01*
X158642000Y-72641000D01*
X159713314Y-72641000D01*
X159679920Y-72674394D01*
X159627259Y-72765606D01*
X159600000Y-72867339D01*
X159600000Y-72972661D01*
X159627259Y-73074394D01*
X159679920Y-73165606D01*
X159713314Y-73199000D01*
X158642000Y-73199000D01*
X158642000Y-73515381D01*
X158657272Y-73650929D01*
X158657273Y-73650937D01*
X158717412Y-73822799D01*
X158814282Y-73976967D01*
X158814284Y-73976970D01*
X158943029Y-74105715D01*
X158943032Y-74105717D01*
X159097201Y-74202588D01*
X159169558Y-74227908D01*
X159227250Y-74269287D01*
X159242615Y-74308050D01*
X159994565Y-75060000D01*
X159947339Y-75060000D01*
X159845606Y-75087259D01*
X159754394Y-75139920D01*
X159679920Y-75214394D01*
X159627259Y-75305606D01*
X159600000Y-75407339D01*
X159600000Y-75454565D01*
X158861742Y-74716307D01*
X158838536Y-74748249D01*
X158838529Y-74748260D01*
X158741495Y-74938701D01*
X158741490Y-74938713D01*
X158675440Y-75141996D01*
X158642000Y-75353126D01*
X158642000Y-75566873D01*
X158675440Y-75778003D01*
X158741490Y-75981286D01*
X158741495Y-75981298D01*
X158838532Y-76171745D01*
X158861741Y-76203690D01*
X159600000Y-75465432D01*
X159600000Y-75512661D01*
X159627259Y-75614394D01*
X159679920Y-75705606D01*
X159754394Y-75780080D01*
X159845606Y-75832741D01*
X159947339Y-75860000D01*
X159994566Y-75860000D01*
X159256308Y-76598256D01*
X159288251Y-76621464D01*
X159478707Y-76718506D01*
X159478713Y-76718509D01*
X159681996Y-76784559D01*
X159844688Y-76810328D01*
X159908841Y-76840741D01*
X159946368Y-76901009D01*
X159945354Y-76971998D01*
X159906121Y-77031170D01*
X159849559Y-77058356D01*
X159722048Y-77083719D01*
X159722043Y-77083721D01*
X159548632Y-77155551D01*
X159392565Y-77259831D01*
X159392558Y-77259836D01*
X159259836Y-77392558D01*
X159259831Y-77392565D01*
X159155551Y-77548632D01*
X159083721Y-77722043D01*
X159083719Y-77722048D01*
X159047100Y-77906144D01*
X159047100Y-78093855D01*
X159083719Y-78277951D01*
X159155551Y-78451368D01*
X159259834Y-78607439D01*
X159392561Y-78740166D01*
X159548632Y-78844449D01*
X159619318Y-78873727D01*
X159674598Y-78918274D01*
X159697020Y-78985637D01*
X159697100Y-78990136D01*
X159697100Y-79688347D01*
X159677098Y-79756468D01*
X159660197Y-79777441D01*
X146627997Y-92810101D01*
X146565685Y-92844127D01*
X146494870Y-92839063D01*
X146438033Y-92796518D01*
X146413221Y-92729998D01*
X146412900Y-92721007D01*
X146412900Y-92432723D01*
X146409758Y-92420996D01*
X146392258Y-92355685D01*
X146352381Y-92286615D01*
X146352378Y-92286612D01*
X146352375Y-92286608D01*
X146291596Y-92225829D01*
X146291573Y-92225808D01*
X143823391Y-89757624D01*
X143823381Y-89757616D01*
X143754316Y-89717742D01*
X143677279Y-89697099D01*
X143677278Y-89697099D01*
X143597522Y-89697099D01*
X143589804Y-89697099D01*
X143589788Y-89697100D01*
X142442494Y-89697100D01*
X142421289Y-89695303D01*
X142399041Y-89691504D01*
X142376243Y-89678342D01*
X142299206Y-89657699D01*
X142219450Y-89657699D01*
X142219446Y-89657700D01*
X141734550Y-89657700D01*
X141654794Y-89657700D01*
X141615884Y-89668126D01*
X141577753Y-89678343D01*
X141574507Y-89680218D01*
X141570878Y-89681190D01*
X141570121Y-89681504D01*
X141570079Y-89681404D01*
X141511505Y-89697100D01*
X140732779Y-89697100D01*
X140664658Y-89677098D01*
X140618165Y-89623442D01*
X140608061Y-89553168D01*
X140619898Y-89518965D01*
X140618875Y-89518542D01*
X140622028Y-89510926D01*
X140622036Y-89510913D01*
X140652900Y-89395725D01*
X140652900Y-89276475D01*
X140622036Y-89161287D01*
X140583025Y-89093719D01*
X140562412Y-89058016D01*
X140562404Y-89058006D01*
X140478093Y-88973695D01*
X140478083Y-88973687D01*
X140374817Y-88914066D01*
X140374815Y-88914065D01*
X140374813Y-88914064D01*
X140259625Y-88883200D01*
X140140375Y-88883200D01*
X140025187Y-88914064D01*
X140025185Y-88914065D01*
X140025182Y-88914066D01*
X139921916Y-88973687D01*
X139921906Y-88973695D01*
X139899307Y-88996295D01*
X139836995Y-89030321D01*
X139810212Y-89033200D01*
X126841878Y-89033200D01*
X126762122Y-89033200D01*
X126685085Y-89053842D01*
X126685084Y-89053842D01*
X126685082Y-89053843D01*
X126616019Y-89093716D01*
X126616008Y-89093724D01*
X126536156Y-89173576D01*
X126473844Y-89207601D01*
X126403028Y-89202535D01*
X126384062Y-89193599D01*
X126303417Y-89147038D01*
X126303415Y-89147037D01*
X126303413Y-89147036D01*
X126188225Y-89116172D01*
X126068975Y-89116172D01*
X125953787Y-89147036D01*
X125953785Y-89147037D01*
X125953782Y-89147038D01*
X125850516Y-89206659D01*
X125850506Y-89206667D01*
X125766195Y-89290978D01*
X125766187Y-89290988D01*
X125706566Y-89394254D01*
X125706565Y-89394257D01*
X125706564Y-89394259D01*
X125675700Y-89509447D01*
X125675700Y-89509448D01*
X125675700Y-89571100D01*
X125673108Y-89579925D01*
X125674418Y-89589032D01*
X125663262Y-89613457D01*
X125655698Y-89639221D01*
X125648744Y-89645245D01*
X125644924Y-89653612D01*
X125622338Y-89668126D01*
X125602042Y-89685714D01*
X125591355Y-89688038D01*
X125585198Y-89691996D01*
X125549700Y-89697100D01*
X125428900Y-89697100D01*
X125360779Y-89677098D01*
X125314286Y-89623442D01*
X125302900Y-89571100D01*
X125302900Y-88960123D01*
X125297609Y-88940376D01*
X125282258Y-88883085D01*
X125242381Y-88814015D01*
X125242378Y-88814012D01*
X125242375Y-88814008D01*
X125185991Y-88757624D01*
X125185987Y-88757621D01*
X125185985Y-88757619D01*
X125171388Y-88749191D01*
X125116916Y-88717742D01*
X125091236Y-88710861D01*
X125039878Y-88697100D01*
X125039876Y-88697100D01*
X119389788Y-88697100D01*
X119321667Y-88677098D01*
X119300693Y-88660195D01*
X119278093Y-88637595D01*
X119278083Y-88637587D01*
X119174817Y-88577966D01*
X119174815Y-88577965D01*
X119174813Y-88577964D01*
X119059625Y-88547100D01*
X118940375Y-88547100D01*
X118825187Y-88577964D01*
X118825185Y-88577965D01*
X118825182Y-88577966D01*
X118721916Y-88637587D01*
X118721906Y-88637595D01*
X118637595Y-88721906D01*
X118637587Y-88721916D01*
X118577966Y-88825182D01*
X118577965Y-88825185D01*
X118577964Y-88825187D01*
X118547100Y-88940375D01*
X118547100Y-89059625D01*
X118577964Y-89174813D01*
X118577965Y-89174815D01*
X118577966Y-89174817D01*
X118637587Y-89278083D01*
X118637595Y-89278093D01*
X118721906Y-89362404D01*
X118721911Y-89362408D01*
X118721913Y-89362410D01*
X118721914Y-89362411D01*
X118721916Y-89362412D01*
X118794508Y-89404323D01*
X118825187Y-89422036D01*
X118940375Y-89452900D01*
X118940377Y-89452900D01*
X119059623Y-89452900D01*
X119059625Y-89452900D01*
X119174813Y-89422036D01*
X119278087Y-89362410D01*
X119278093Y-89362404D01*
X119300693Y-89339805D01*
X119363005Y-89305779D01*
X119389788Y-89302900D01*
X124571100Y-89302900D01*
X124639221Y-89322902D01*
X124685714Y-89376558D01*
X124697100Y-89428900D01*
X124697100Y-90039878D01*
X124710861Y-90091236D01*
X124717742Y-90116916D01*
X124749191Y-90171388D01*
X124757619Y-90185985D01*
X124757621Y-90185987D01*
X124757624Y-90185991D01*
X124814008Y-90242375D01*
X124814012Y-90242378D01*
X124814015Y-90242381D01*
X124855751Y-90266477D01*
X124883081Y-90282256D01*
X124883085Y-90282258D01*
X124960122Y-90302900D01*
X125039878Y-90302900D01*
X125528534Y-90302900D01*
X125558450Y-90311684D01*
X125588916Y-90318311D01*
X125594012Y-90322126D01*
X125596655Y-90322902D01*
X125617627Y-90339802D01*
X125636280Y-90358455D01*
X125636282Y-90358457D01*
X125692678Y-90414853D01*
X125761748Y-90454730D01*
X125838785Y-90475372D01*
X125918541Y-90475372D01*
X126330925Y-90475372D01*
X126330941Y-90475373D01*
X126338659Y-90475373D01*
X126418415Y-90475373D01*
X126495452Y-90454730D01*
X126564522Y-90414853D01*
X126617100Y-90362274D01*
X126644468Y-90347330D01*
X126670696Y-90330475D01*
X126676995Y-90329569D01*
X126679410Y-90328251D01*
X126706194Y-90325371D01*
X126708159Y-90325371D01*
X126708187Y-90325373D01*
X126716954Y-90325373D01*
X126796710Y-90325373D01*
X126864552Y-90307194D01*
X126897165Y-90302900D01*
X141615390Y-90302900D01*
X141615394Y-90302901D01*
X141695150Y-90302901D01*
X141772187Y-90282258D01*
X141794985Y-90269095D01*
X141817233Y-90265297D01*
X141827323Y-90266477D01*
X141838438Y-90263500D01*
X142115561Y-90263500D01*
X142174135Y-90279195D01*
X142174177Y-90279096D01*
X142174934Y-90279409D01*
X142178563Y-90280382D01*
X142181809Y-90282256D01*
X142181813Y-90282258D01*
X142258850Y-90302900D01*
X143459744Y-90302900D01*
X143527865Y-90322902D01*
X143548839Y-90339805D01*
X145770195Y-92561160D01*
X145785137Y-92588524D01*
X145801996Y-92614757D01*
X145802902Y-92621058D01*
X145804220Y-92623472D01*
X145807100Y-92650255D01*
X145807100Y-92829815D01*
X145787098Y-92897936D01*
X145770187Y-92918918D01*
X145581457Y-93107605D01*
X145519143Y-93141623D01*
X145492373Y-93144500D01*
X144280788Y-93144500D01*
X144212667Y-93124498D01*
X144191693Y-93107595D01*
X144169093Y-93084995D01*
X144169083Y-93084987D01*
X144065817Y-93025366D01*
X144065815Y-93025365D01*
X144065813Y-93025364D01*
X143950625Y-92994500D01*
X143831375Y-92994500D01*
X143716187Y-93025364D01*
X143716185Y-93025365D01*
X143716182Y-93025366D01*
X143612916Y-93084987D01*
X143612906Y-93084995D01*
X143528595Y-93169306D01*
X143528587Y-93169316D01*
X143468966Y-93272582D01*
X143468965Y-93272585D01*
X143468964Y-93272587D01*
X143438100Y-93387775D01*
X143438100Y-93507025D01*
X143459636Y-93587400D01*
X143461134Y-93592989D01*
X143459444Y-93663966D01*
X143419650Y-93722761D01*
X143354385Y-93750709D01*
X143339427Y-93751600D01*
X142954772Y-93751600D01*
X142886651Y-93731598D01*
X142865635Y-93714654D01*
X142158384Y-93006750D01*
X142158384Y-93006749D01*
X142152415Y-93000775D01*
X142152381Y-93000715D01*
X142123190Y-92971524D01*
X142096096Y-92944405D01*
X142096095Y-92944404D01*
X142096094Y-92944403D01*
X142095987Y-92944321D01*
X142095985Y-92944319D01*
X142060879Y-92924050D01*
X142027045Y-92904496D01*
X142026976Y-92904477D01*
X142026915Y-92904442D01*
X142026851Y-92904424D01*
X142026848Y-92904423D01*
X141988930Y-92894263D01*
X141988882Y-92894233D01*
X141988878Y-92894249D01*
X141950014Y-92883816D01*
X141949892Y-92883800D01*
X141949878Y-92883800D01*
X141911218Y-92883800D01*
X141911134Y-92883799D01*
X141862231Y-92883777D01*
X141861882Y-92883800D01*
X140484808Y-92883800D01*
X140484737Y-92883781D01*
X140443781Y-92883800D01*
X140405107Y-92883800D01*
X140404986Y-92883816D01*
X140366372Y-92894182D01*
X140366320Y-92894196D01*
X140328156Y-92904423D01*
X140328074Y-92904445D01*
X140327968Y-92904488D01*
X140293917Y-92924168D01*
X140293871Y-92924194D01*
X140259016Y-92944317D01*
X140258906Y-92944401D01*
X140231224Y-92972109D01*
X140197108Y-93006225D01*
X140196879Y-93006486D01*
X139939294Y-93264312D01*
X139911381Y-93292252D01*
X139881619Y-93322015D01*
X139881580Y-93322081D01*
X139881533Y-93322129D01*
X139881408Y-93322343D01*
X139881406Y-93322347D01*
X139868491Y-93344740D01*
X139862103Y-93355816D01*
X139847483Y-93381140D01*
X139841736Y-93391095D01*
X139841690Y-93391205D01*
X139835970Y-93412593D01*
X139831156Y-93430592D01*
X139821100Y-93468122D01*
X139821100Y-93468191D01*
X139821081Y-93468263D01*
X139821081Y-93468342D01*
X139821080Y-93468346D01*
X139821100Y-93508695D01*
X139821100Y-93873900D01*
X139801098Y-93942021D01*
X139747442Y-93988514D01*
X139695100Y-93999900D01*
X138848015Y-93999900D01*
X138808137Y-93999898D01*
X138808130Y-93999900D01*
X138808122Y-93999900D01*
X138804782Y-94000794D01*
X138804780Y-94000795D01*
X138774533Y-94008900D01*
X138774529Y-94008901D01*
X138731092Y-94020538D01*
X138691422Y-94043440D01*
X138691394Y-94043456D01*
X138690884Y-94043751D01*
X138662028Y-94060410D01*
X138662024Y-94060413D01*
X138662015Y-94060419D01*
X138660970Y-94061463D01*
X138660966Y-94061466D01*
X138628060Y-94094373D01*
X138628056Y-94094378D01*
X137983448Y-94738920D01*
X137794348Y-94928000D01*
X137732034Y-94962022D01*
X137705257Y-94964900D01*
X122345848Y-94964900D01*
X122345814Y-94964891D01*
X122303590Y-94964900D01*
X122266107Y-94964900D01*
X122266064Y-94964906D01*
X122227060Y-94975366D01*
X122227037Y-94975372D01*
X122189087Y-94985541D01*
X122189030Y-94985563D01*
X122162811Y-95000708D01*
X122156059Y-95004609D01*
X122142864Y-95012227D01*
X122120012Y-95025420D01*
X122119972Y-95025450D01*
X122094032Y-95051401D01*
X122058223Y-95087210D01*
X122058121Y-95087325D01*
X121793457Y-95352102D01*
X121731153Y-95386141D01*
X121660336Y-95381091D01*
X121603491Y-95338557D01*
X121587937Y-95311249D01*
X121568759Y-95264949D01*
X121459004Y-95100688D01*
X121319312Y-94960996D01*
X121155051Y-94851241D01*
X121030702Y-94799734D01*
X120975422Y-94755187D01*
X120953001Y-94687824D01*
X120970559Y-94619032D01*
X121022521Y-94570654D01*
X121039985Y-94563493D01*
X121220479Y-94504846D01*
X121220485Y-94504843D01*
X121417956Y-94404227D01*
X121597253Y-94273960D01*
X121753960Y-94117253D01*
X121884227Y-93937956D01*
X121984843Y-93740485D01*
X121984846Y-93740479D01*
X122043004Y-93561488D01*
X122083077Y-93502882D01*
X122148474Y-93475245D01*
X122218431Y-93487352D01*
X122227606Y-93493049D01*
X122227761Y-93492781D01*
X122256896Y-93509602D01*
X122338187Y-93556536D01*
X122453375Y-93587400D01*
X122453377Y-93587400D01*
X122572623Y-93587400D01*
X122572625Y-93587400D01*
X122687813Y-93556536D01*
X122791087Y-93496910D01*
X122875410Y-93412587D01*
X122935036Y-93309313D01*
X122951762Y-93246888D01*
X122988714Y-93186266D01*
X123052575Y-93155245D01*
X123073469Y-93153500D01*
X136017212Y-93153500D01*
X136085333Y-93173502D01*
X136106307Y-93190405D01*
X136128906Y-93213004D01*
X136128911Y-93213008D01*
X136128913Y-93213010D01*
X136232187Y-93272636D01*
X136347375Y-93303500D01*
X136347377Y-93303500D01*
X136466623Y-93303500D01*
X136466625Y-93303500D01*
X136581813Y-93272636D01*
X136685087Y-93213010D01*
X136769410Y-93128687D01*
X136829036Y-93025413D01*
X136859900Y-92910225D01*
X136859900Y-92790975D01*
X136829036Y-92675787D01*
X136779028Y-92589172D01*
X136769412Y-92572516D01*
X136769404Y-92572506D01*
X136685093Y-92488195D01*
X136685083Y-92488187D01*
X136581817Y-92428566D01*
X136581815Y-92428565D01*
X136581813Y-92428564D01*
X136466625Y-92397700D01*
X136347375Y-92397700D01*
X136232187Y-92428564D01*
X136232185Y-92428565D01*
X136232182Y-92428566D01*
X136128916Y-92488187D01*
X136128906Y-92488195D01*
X136106307Y-92510795D01*
X136043995Y-92544821D01*
X136017212Y-92547700D01*
X122802750Y-92547700D01*
X122757175Y-92547692D01*
X122757145Y-92547700D01*
X122757121Y-92547700D01*
X122722581Y-92556954D01*
X122722565Y-92556959D01*
X122680128Y-92568322D01*
X122680095Y-92568335D01*
X122645127Y-92588524D01*
X122644005Y-92589172D01*
X122611058Y-92608187D01*
X122611041Y-92608203D01*
X122611015Y-92608219D01*
X122610558Y-92608675D01*
X122610556Y-92608677D01*
X122579852Y-92639381D01*
X122574519Y-92644712D01*
X122512200Y-92678726D01*
X122485440Y-92681600D01*
X122453375Y-92681600D01*
X122338187Y-92712464D01*
X122338185Y-92712465D01*
X122338182Y-92712466D01*
X122234916Y-92772087D01*
X122234909Y-92772093D01*
X122219166Y-92787836D01*
X122156853Y-92821859D01*
X122086038Y-92816793D01*
X122029203Y-92774245D01*
X122010240Y-92737674D01*
X121984846Y-92659520D01*
X121984843Y-92659514D01*
X121884227Y-92462043D01*
X121753960Y-92282746D01*
X121597253Y-92126039D01*
X121417956Y-91995772D01*
X121220485Y-91895156D01*
X121220482Y-91895155D01*
X121009705Y-91826668D01*
X120959001Y-91818636D01*
X120959000Y-91818637D01*
X120959000Y-92783731D01*
X120872993Y-92734075D01*
X120745826Y-92700000D01*
X120614174Y-92700000D01*
X120487007Y-92734075D01*
X120401000Y-92783731D01*
X120401000Y-91818637D01*
X120400998Y-91818636D01*
X120350294Y-91826668D01*
X120139517Y-91895155D01*
X120139514Y-91895156D01*
X119942043Y-91995772D01*
X119762746Y-92126039D01*
X119606039Y-92282746D01*
X119475772Y-92462043D01*
X119375156Y-92659514D01*
X119375155Y-92659517D01*
X119316506Y-92840015D01*
X119276432Y-92898621D01*
X119211035Y-92926257D01*
X119141078Y-92914150D01*
X119088772Y-92866143D01*
X119080264Y-92849295D01*
X119078123Y-92844127D01*
X119028759Y-92724949D01*
X118919004Y-92560688D01*
X118779312Y-92420996D01*
X118615051Y-92311241D01*
X118555581Y-92286608D01*
X118432540Y-92235643D01*
X118432535Y-92235641D01*
X118238779Y-92197100D01*
X118238777Y-92197100D01*
X118041223Y-92197100D01*
X118041220Y-92197100D01*
X117847464Y-92235641D01*
X117847459Y-92235643D01*
X117664948Y-92311241D01*
X117500689Y-92420995D01*
X117500683Y-92421000D01*
X117361000Y-92560683D01*
X117360995Y-92560689D01*
X117251241Y-92724948D01*
X117175643Y-92907459D01*
X117175641Y-92907464D01*
X117137100Y-93101220D01*
X117137100Y-93298779D01*
X117175641Y-93492535D01*
X117175643Y-93492540D01*
X117196345Y-93542520D01*
X117251241Y-93675051D01*
X117360996Y-93839312D01*
X117500688Y-93979004D01*
X117664949Y-94088759D01*
X117847465Y-94164359D01*
X118041223Y-94202900D01*
X118041224Y-94202900D01*
X118238776Y-94202900D01*
X118238777Y-94202900D01*
X118432535Y-94164359D01*
X118615051Y-94088759D01*
X118779312Y-93979004D01*
X118919004Y-93839312D01*
X119028759Y-93675051D01*
X119080265Y-93550701D01*
X119124811Y-93495423D01*
X119192175Y-93473001D01*
X119260966Y-93490559D01*
X119309345Y-93542520D01*
X119316506Y-93559984D01*
X119375155Y-93740482D01*
X119375156Y-93740485D01*
X119475772Y-93937956D01*
X119606039Y-94117253D01*
X119762746Y-94273960D01*
X119942043Y-94404227D01*
X120139514Y-94504843D01*
X120139517Y-94504844D01*
X120320015Y-94563493D01*
X120378620Y-94603567D01*
X120406257Y-94668964D01*
X120394150Y-94738920D01*
X120346144Y-94791226D01*
X120329296Y-94799735D01*
X120204948Y-94851241D01*
X120040689Y-94960995D01*
X120040683Y-94961000D01*
X119901000Y-95100683D01*
X119900995Y-95100689D01*
X119791241Y-95264948D01*
X119720737Y-95435163D01*
X119715642Y-95447464D01*
X119715640Y-95447469D01*
X119714208Y-95454666D01*
X119681295Y-95517573D01*
X119619597Y-95552699D01*
X119548702Y-95548893D01*
X119501536Y-95519169D01*
X119479991Y-95497624D01*
X119479987Y-95497621D01*
X119479985Y-95497619D01*
X119465388Y-95489191D01*
X119410916Y-95457742D01*
X119372624Y-95447482D01*
X119333878Y-95437100D01*
X119333876Y-95437100D01*
X119184257Y-95437100D01*
X119116136Y-95417098D01*
X119069643Y-95363442D01*
X119067848Y-95359318D01*
X119047934Y-95311242D01*
X119028759Y-95264949D01*
X118919004Y-95100688D01*
X118779312Y-94960996D01*
X118615051Y-94851241D01*
X118432535Y-94775641D01*
X118238779Y-94737100D01*
X118238777Y-94737100D01*
X118041223Y-94737100D01*
X118041220Y-94737100D01*
X117847464Y-94775641D01*
X117847459Y-94775643D01*
X117664948Y-94851241D01*
X117500689Y-94960995D01*
X117500683Y-94961000D01*
X117361000Y-95100683D01*
X117360995Y-95100689D01*
X117251241Y-95264948D01*
X117175643Y-95447459D01*
X117175641Y-95447464D01*
X117137100Y-95641220D01*
X117137100Y-95838779D01*
X117175641Y-96032535D01*
X117175643Y-96032540D01*
X117194385Y-96077787D01*
X117251241Y-96215051D01*
X117360996Y-96379312D01*
X117500688Y-96519004D01*
X117664949Y-96628759D01*
X117847465Y-96704359D01*
X118041223Y-96742900D01*
X118041224Y-96742900D01*
X118238776Y-96742900D01*
X118238777Y-96742900D01*
X118432535Y-96704359D01*
X118615051Y-96628759D01*
X118779312Y-96519004D01*
X118919004Y-96379312D01*
X118919004Y-96379311D01*
X118919429Y-96378887D01*
X118981741Y-96344861D01*
X119052556Y-96349926D01*
X119097621Y-96378888D01*
X123101262Y-100382623D01*
X123227617Y-100508981D01*
X123227619Y-100508985D01*
X123284015Y-100565381D01*
X123321027Y-100586750D01*
X123353082Y-100605257D01*
X123353084Y-100605257D01*
X123353085Y-100605258D01*
X123364704Y-100608371D01*
X123368181Y-100609303D01*
X123368182Y-100609303D01*
X123368193Y-100609306D01*
X123394260Y-100616291D01*
X123430118Y-100625900D01*
X123430119Y-100625900D01*
X123509875Y-100625901D01*
X123509879Y-100625900D01*
X150305212Y-100625900D01*
X150373333Y-100645902D01*
X150394307Y-100662805D01*
X150416906Y-100685404D01*
X150416911Y-100685408D01*
X150416913Y-100685410D01*
X150520187Y-100745036D01*
X150635375Y-100775900D01*
X150635377Y-100775900D01*
X150754623Y-100775900D01*
X150754625Y-100775900D01*
X150869813Y-100745036D01*
X150973087Y-100685410D01*
X151057410Y-100601087D01*
X151117036Y-100497813D01*
X151147900Y-100382625D01*
X151147900Y-100263375D01*
X151125723Y-100180608D01*
X151127413Y-100109635D01*
X151167207Y-100050839D01*
X151232471Y-100022891D01*
X151247430Y-100022000D01*
X157138347Y-100022000D01*
X157206468Y-100042002D01*
X157227440Y-100058902D01*
X160832195Y-103663566D01*
X160866220Y-103725876D01*
X160869100Y-103752661D01*
X160869100Y-103784625D01*
X160899964Y-103899813D01*
X160899965Y-103899815D01*
X160899966Y-103899817D01*
X160959587Y-104003083D01*
X160959595Y-104003093D01*
X161043906Y-104087404D01*
X161043911Y-104087408D01*
X161043913Y-104087410D01*
X161147187Y-104147036D01*
X161262375Y-104177900D01*
X161262377Y-104177900D01*
X161381623Y-104177900D01*
X161381625Y-104177900D01*
X161496813Y-104147036D01*
X161600087Y-104087410D01*
X161684410Y-104003087D01*
X161744036Y-103899813D01*
X161752293Y-103868993D01*
X161789244Y-103808372D01*
X161853104Y-103777350D01*
X161923599Y-103785778D01*
X161978346Y-103830980D01*
X161999964Y-103898605D01*
X162000000Y-103901605D01*
X162000000Y-132763591D01*
X162055902Y-133758976D01*
X162055902Y-133758977D01*
X162222890Y-134741813D01*
X162222892Y-134741822D01*
X162222893Y-134741824D01*
X162316989Y-135068434D01*
X162498882Y-135699793D01*
X162879630Y-136619000D01*
X162880388Y-136620830D01*
X163023894Y-136880483D01*
X163362625Y-137493370D01*
X163939506Y-138306410D01*
X163939508Y-138306412D01*
X163939512Y-138306417D01*
X164603824Y-139049776D01*
X165347183Y-139714088D01*
X166160226Y-140290972D01*
X167313963Y-140735609D01*
X167778271Y-140867057D01*
X168314257Y-140966764D01*
X168674644Y-141000000D01*
X171910784Y-141000000D01*
X171910940Y-141000000D01*
X172089115Y-141000143D01*
X172089214Y-141000173D01*
X172089215Y-141000144D01*
X172342265Y-141000554D01*
X172371068Y-141003939D01*
X172518821Y-141038899D01*
X172532724Y-141043048D01*
X172627217Y-141077295D01*
X172640539Y-141083012D01*
X172896820Y-141210963D01*
X172918761Y-141224918D01*
X173021078Y-141305952D01*
X173030854Y-141314552D01*
X173092764Y-141374972D01*
X173101600Y-141384536D01*
X174288926Y-142810931D01*
X174302674Y-142831156D01*
X174466149Y-143130543D01*
X174473616Y-143146895D01*
X174593958Y-143469540D01*
X174599024Y-143486790D01*
X174672229Y-143823310D01*
X174674787Y-143841104D01*
X174699679Y-144189111D01*
X174700000Y-144198100D01*
X174700000Y-151813618D01*
X174706370Y-151886424D01*
X174719292Y-152034135D01*
X174776583Y-152247950D01*
X174776585Y-152247955D01*
X174870148Y-152448602D01*
X174997117Y-152629935D01*
X174997126Y-152629945D01*
X175153654Y-152786473D01*
X175153664Y-152786482D01*
X175334997Y-152913451D01*
X175335000Y-152913452D01*
X175335001Y-152913453D01*
X175535648Y-153007016D01*
X175749464Y-153064307D01*
X175749465Y-153064307D01*
X175749468Y-153064308D01*
X175969982Y-153083600D01*
X184718827Y-153083600D01*
X184786948Y-153103602D01*
X184833441Y-153157258D01*
X184844827Y-153209301D01*
X184857224Y-158441039D01*
X184857072Y-158447520D01*
X184840666Y-158781525D01*
X184839454Y-158793830D01*
X184790820Y-159121710D01*
X184788408Y-159133837D01*
X184707869Y-159455378D01*
X184704280Y-159467211D01*
X184592612Y-159779309D01*
X184587880Y-159790733D01*
X184446159Y-160090382D01*
X184440330Y-160101287D01*
X184269928Y-160385590D01*
X184263058Y-160395872D01*
X184065591Y-160662128D01*
X184057747Y-160671686D01*
X183835156Y-160917280D01*
X183826413Y-160926024D01*
X183580803Y-161148633D01*
X183571245Y-161156477D01*
X183305005Y-161353936D01*
X183294723Y-161360806D01*
X183010414Y-161531216D01*
X182999509Y-161537045D01*
X182699853Y-161678772D01*
X182688429Y-161683503D01*
X182376349Y-161795168D01*
X182364517Y-161798758D01*
X182042968Y-161879302D01*
X182030840Y-161881714D01*
X181702961Y-161930351D01*
X181690656Y-161931563D01*
X181357146Y-161947948D01*
X181350963Y-161948100D01*
X115659429Y-161948100D01*
X115652836Y-161947927D01*
X115322251Y-161930605D01*
X115309134Y-161929227D01*
X114985416Y-161877958D01*
X114972515Y-161875216D01*
X114655941Y-161790392D01*
X114643399Y-161786317D01*
X114337413Y-161668863D01*
X114325364Y-161663498D01*
X114033347Y-161514710D01*
X114021925Y-161508116D01*
X113747053Y-161329613D01*
X113736383Y-161321861D01*
X113481668Y-161115598D01*
X113471867Y-161106772D01*
X113240128Y-160875033D01*
X113231302Y-160865232D01*
X113158747Y-160775634D01*
X113025037Y-160610514D01*
X113017288Y-160599848D01*
X112838784Y-160324976D01*
X112832189Y-160313553D01*
X112683399Y-160021531D01*
X112678038Y-160009491D01*
X112560582Y-159703502D01*
X112556511Y-159690974D01*
X112471678Y-159374366D01*
X112468943Y-159361495D01*
X112417672Y-159037763D01*
X112416295Y-159024651D01*
X112413248Y-158966503D01*
X112398978Y-158694192D01*
X112398807Y-158687915D01*
X112398801Y-158684815D01*
X112398801Y-158682478D01*
X112398801Y-158662499D01*
X112398746Y-158662172D01*
X112396804Y-157842478D01*
X114380600Y-157842478D01*
X114380600Y-158104721D01*
X114414828Y-158364708D01*
X114414829Y-158364714D01*
X114414830Y-158364716D01*
X114482702Y-158618019D01*
X114583057Y-158860297D01*
X114583058Y-158860298D01*
X114583063Y-158860309D01*
X114714173Y-159087399D01*
X114714177Y-159087405D01*
X114873810Y-159295442D01*
X114873829Y-159295463D01*
X115059236Y-159480870D01*
X115059257Y-159480889D01*
X115267294Y-159640522D01*
X115267300Y-159640526D01*
X115494390Y-159771636D01*
X115494394Y-159771637D01*
X115494403Y-159771643D01*
X115736681Y-159871998D01*
X115989984Y-159939870D01*
X115989990Y-159939870D01*
X115989991Y-159939871D01*
X116015000Y-159943163D01*
X116249980Y-159974100D01*
X116249987Y-159974100D01*
X116512213Y-159974100D01*
X116512220Y-159974100D01*
X116772216Y-159939870D01*
X117025519Y-159871998D01*
X117267797Y-159771643D01*
X117494903Y-159640524D01*
X117702951Y-159480882D01*
X117888382Y-159295451D01*
X118048024Y-159087403D01*
X118179143Y-158860297D01*
X118279498Y-158618019D01*
X118347370Y-158364716D01*
X118381600Y-158104720D01*
X118381600Y-157842480D01*
X118381600Y-157842478D01*
X178380600Y-157842478D01*
X178380600Y-158104721D01*
X178414828Y-158364708D01*
X178414829Y-158364714D01*
X178414830Y-158364716D01*
X178482702Y-158618019D01*
X178583057Y-158860297D01*
X178583058Y-158860298D01*
X178583063Y-158860309D01*
X178714173Y-159087399D01*
X178714177Y-159087405D01*
X178873810Y-159295442D01*
X178873829Y-159295463D01*
X179059236Y-159480870D01*
X179059257Y-159480889D01*
X179267294Y-159640522D01*
X179267300Y-159640526D01*
X179494390Y-159771636D01*
X179494394Y-159771637D01*
X179494403Y-159771643D01*
X179736681Y-159871998D01*
X179989984Y-159939870D01*
X179989990Y-159939870D01*
X179989991Y-159939871D01*
X180015000Y-159943163D01*
X180249980Y-159974100D01*
X180249987Y-159974100D01*
X180512213Y-159974100D01*
X180512220Y-159974100D01*
X180772216Y-159939870D01*
X181025519Y-159871998D01*
X181267797Y-159771643D01*
X181494903Y-159640524D01*
X181702951Y-159480882D01*
X181888382Y-159295451D01*
X182048024Y-159087403D01*
X182179143Y-158860297D01*
X182279498Y-158618019D01*
X182347370Y-158364716D01*
X182381600Y-158104720D01*
X182381600Y-157842480D01*
X182347370Y-157582484D01*
X182279498Y-157329181D01*
X182179143Y-157086903D01*
X182179137Y-157086894D01*
X182179136Y-157086890D01*
X182048026Y-156859800D01*
X182048022Y-156859794D01*
X181888389Y-156651757D01*
X181888370Y-156651736D01*
X181702963Y-156466329D01*
X181702942Y-156466310D01*
X181494905Y-156306677D01*
X181494899Y-156306673D01*
X181267809Y-156175563D01*
X181267801Y-156175559D01*
X181267797Y-156175557D01*
X181025519Y-156075202D01*
X180772216Y-156007330D01*
X180772214Y-156007329D01*
X180772208Y-156007328D01*
X180512221Y-155973100D01*
X180512220Y-155973100D01*
X180249980Y-155973100D01*
X180249978Y-155973100D01*
X179989991Y-156007328D01*
X179736681Y-156075202D01*
X179494401Y-156175558D01*
X179494390Y-156175563D01*
X179267300Y-156306673D01*
X179267294Y-156306677D01*
X179059257Y-156466310D01*
X179059236Y-156466329D01*
X178873829Y-156651736D01*
X178873810Y-156651757D01*
X178714177Y-156859794D01*
X178714173Y-156859800D01*
X178583063Y-157086890D01*
X178583058Y-157086901D01*
X178482702Y-157329181D01*
X178414828Y-157582491D01*
X178380600Y-157842478D01*
X118381600Y-157842478D01*
X118347370Y-157582484D01*
X118279498Y-157329181D01*
X118179143Y-157086903D01*
X118179137Y-157086894D01*
X118179136Y-157086890D01*
X118048026Y-156859800D01*
X118048022Y-156859794D01*
X117888389Y-156651757D01*
X117888370Y-156651736D01*
X117702963Y-156466329D01*
X117702942Y-156466310D01*
X117494905Y-156306677D01*
X117494899Y-156306673D01*
X117267809Y-156175563D01*
X117267801Y-156175559D01*
X117267797Y-156175557D01*
X117025519Y-156075202D01*
X116772216Y-156007330D01*
X116772214Y-156007329D01*
X116772208Y-156007328D01*
X116512221Y-155973100D01*
X116512220Y-155973100D01*
X116249980Y-155973100D01*
X116249978Y-155973100D01*
X115989991Y-156007328D01*
X115736681Y-156075202D01*
X115494401Y-156175558D01*
X115494390Y-156175563D01*
X115267300Y-156306673D01*
X115267294Y-156306677D01*
X115059257Y-156466310D01*
X115059236Y-156466329D01*
X114873829Y-156651736D01*
X114873810Y-156651757D01*
X114714177Y-156859794D01*
X114714173Y-156859800D01*
X114583063Y-157086890D01*
X114583058Y-157086901D01*
X114482702Y-157329181D01*
X114414828Y-157582491D01*
X114380600Y-157842478D01*
X112396804Y-157842478D01*
X112384686Y-152728709D01*
X120639500Y-152728709D01*
X120639500Y-152971290D01*
X120671160Y-153211782D01*
X120733944Y-153446095D01*
X120733945Y-153446097D01*
X120733946Y-153446100D01*
X120826776Y-153670212D01*
X120826777Y-153670213D01*
X120826782Y-153670224D01*
X120948061Y-153880285D01*
X120948063Y-153880288D01*
X120948064Y-153880289D01*
X121095735Y-154072738D01*
X121095739Y-154072742D01*
X121095744Y-154072748D01*
X121267251Y-154244255D01*
X121267256Y-154244259D01*
X121267262Y-154244265D01*
X121459711Y-154391936D01*
X121459714Y-154391938D01*
X121669775Y-154513217D01*
X121669779Y-154513218D01*
X121669788Y-154513224D01*
X121893900Y-154606054D01*
X122128211Y-154668838D01*
X122128215Y-154668838D01*
X122128217Y-154668839D01*
X122190202Y-154676999D01*
X122368712Y-154700500D01*
X122368719Y-154700500D01*
X122611281Y-154700500D01*
X122611288Y-154700500D01*
X122828637Y-154671885D01*
X122851782Y-154668839D01*
X122851782Y-154668838D01*
X122851789Y-154668838D01*
X123086100Y-154606054D01*
X123310212Y-154513224D01*
X123520289Y-154391936D01*
X123712738Y-154244265D01*
X123884265Y-154072738D01*
X124031936Y-153880289D01*
X124153224Y-153670212D01*
X124246054Y-153446100D01*
X124308838Y-153211789D01*
X124340500Y-152971288D01*
X124340500Y-152728712D01*
X124340284Y-152727070D01*
X128114500Y-152727070D01*
X128114500Y-152972929D01*
X128146589Y-153216669D01*
X128146590Y-153216675D01*
X128146591Y-153216677D01*
X128210222Y-153454153D01*
X128304306Y-153681292D01*
X128304307Y-153681293D01*
X128304312Y-153681304D01*
X128427230Y-153894204D01*
X128427234Y-153894210D01*
X128576894Y-154089250D01*
X128576913Y-154089271D01*
X128750728Y-154263086D01*
X128750738Y-154263095D01*
X128750744Y-154263101D01*
X128750747Y-154263103D01*
X128750749Y-154263105D01*
X128945789Y-154412765D01*
X128945795Y-154412769D01*
X129158695Y-154535687D01*
X129158699Y-154535688D01*
X129158708Y-154535694D01*
X129385847Y-154629778D01*
X129623323Y-154693409D01*
X129623329Y-154693409D01*
X129623330Y-154693410D01*
X129651294Y-154697091D01*
X129867073Y-154725500D01*
X129867080Y-154725500D01*
X130112920Y-154725500D01*
X130112927Y-154725500D01*
X130356677Y-154693409D01*
X130594153Y-154629778D01*
X130821292Y-154535694D01*
X131034208Y-154412767D01*
X131229256Y-154263101D01*
X131403101Y-154089256D01*
X131552767Y-153894208D01*
X131675694Y-153681292D01*
X131769778Y-153454153D01*
X131833409Y-153216677D01*
X131865500Y-152972927D01*
X131865500Y-152728709D01*
X134639500Y-152728709D01*
X134639500Y-152971290D01*
X134671160Y-153211782D01*
X134733944Y-153446095D01*
X134733945Y-153446097D01*
X134733946Y-153446100D01*
X134826776Y-153670212D01*
X134826777Y-153670213D01*
X134826782Y-153670224D01*
X134948061Y-153880285D01*
X134948063Y-153880288D01*
X134948064Y-153880289D01*
X135095735Y-154072738D01*
X135095739Y-154072742D01*
X135095744Y-154072748D01*
X135267251Y-154244255D01*
X135267256Y-154244259D01*
X135267262Y-154244265D01*
X135459711Y-154391936D01*
X135459714Y-154391938D01*
X135669775Y-154513217D01*
X135669779Y-154513218D01*
X135669788Y-154513224D01*
X135893900Y-154606054D01*
X136128211Y-154668838D01*
X136128215Y-154668838D01*
X136128217Y-154668839D01*
X136190202Y-154676999D01*
X136368712Y-154700500D01*
X136368719Y-154700500D01*
X136611281Y-154700500D01*
X136611288Y-154700500D01*
X136828637Y-154671885D01*
X136851782Y-154668839D01*
X136851782Y-154668838D01*
X136851789Y-154668838D01*
X137086100Y-154606054D01*
X137310212Y-154513224D01*
X137520289Y-154391936D01*
X137712738Y-154244265D01*
X137884265Y-154072738D01*
X138031936Y-153880289D01*
X138153224Y-153670212D01*
X138246054Y-153446100D01*
X138308838Y-153211789D01*
X138340500Y-152971288D01*
X138340500Y-152728712D01*
X138340284Y-152727070D01*
X142114500Y-152727070D01*
X142114500Y-152972929D01*
X142146589Y-153216669D01*
X142146590Y-153216675D01*
X142146591Y-153216677D01*
X142210222Y-153454153D01*
X142304306Y-153681292D01*
X142304307Y-153681293D01*
X142304312Y-153681304D01*
X142427230Y-153894204D01*
X142427234Y-153894210D01*
X142576894Y-154089250D01*
X142576913Y-154089271D01*
X142750728Y-154263086D01*
X142750738Y-154263095D01*
X142750744Y-154263101D01*
X142750747Y-154263103D01*
X142750749Y-154263105D01*
X142945789Y-154412765D01*
X142945795Y-154412769D01*
X143158695Y-154535687D01*
X143158699Y-154535688D01*
X143158708Y-154535694D01*
X143385847Y-154629778D01*
X143623323Y-154693409D01*
X143623329Y-154693409D01*
X143623330Y-154693410D01*
X143651294Y-154697091D01*
X143867073Y-154725500D01*
X143867080Y-154725500D01*
X144112920Y-154725500D01*
X144112927Y-154725500D01*
X144356677Y-154693409D01*
X144594153Y-154629778D01*
X144821292Y-154535694D01*
X145034208Y-154412767D01*
X145229256Y-154263101D01*
X145403101Y-154089256D01*
X145552767Y-153894208D01*
X145675694Y-153681292D01*
X145769778Y-153454153D01*
X145833409Y-153216677D01*
X145865500Y-152972927D01*
X145865500Y-152728709D01*
X148639500Y-152728709D01*
X148639500Y-152971290D01*
X148671160Y-153211782D01*
X148733944Y-153446095D01*
X148733945Y-153446097D01*
X148733946Y-153446100D01*
X148826776Y-153670212D01*
X148826777Y-153670213D01*
X148826782Y-153670224D01*
X148948061Y-153880285D01*
X148948063Y-153880288D01*
X148948064Y-153880289D01*
X149095735Y-154072738D01*
X149095739Y-154072742D01*
X149095744Y-154072748D01*
X149267251Y-154244255D01*
X149267256Y-154244259D01*
X149267262Y-154244265D01*
X149459711Y-154391936D01*
X149459714Y-154391938D01*
X149669775Y-154513217D01*
X149669779Y-154513218D01*
X149669788Y-154513224D01*
X149893900Y-154606054D01*
X150128211Y-154668838D01*
X150128215Y-154668838D01*
X150128217Y-154668839D01*
X150190202Y-154676999D01*
X150368712Y-154700500D01*
X150368719Y-154700500D01*
X150611281Y-154700500D01*
X150611288Y-154700500D01*
X150828637Y-154671885D01*
X150851782Y-154668839D01*
X150851782Y-154668838D01*
X150851789Y-154668838D01*
X151086100Y-154606054D01*
X151310212Y-154513224D01*
X151520289Y-154391936D01*
X151712738Y-154244265D01*
X151884265Y-154072738D01*
X152031936Y-153880289D01*
X152153224Y-153670212D01*
X152246054Y-153446100D01*
X152308838Y-153211789D01*
X152340500Y-152971288D01*
X152340500Y-152728712D01*
X152340284Y-152727070D01*
X156114500Y-152727070D01*
X156114500Y-152972929D01*
X156146589Y-153216669D01*
X156146590Y-153216675D01*
X156146591Y-153216677D01*
X156210222Y-153454153D01*
X156304306Y-153681292D01*
X156304307Y-153681293D01*
X156304312Y-153681304D01*
X156427230Y-153894204D01*
X156427234Y-153894210D01*
X156576894Y-154089250D01*
X156576913Y-154089271D01*
X156750728Y-154263086D01*
X156750738Y-154263095D01*
X156750744Y-154263101D01*
X156750747Y-154263103D01*
X156750749Y-154263105D01*
X156945789Y-154412765D01*
X156945795Y-154412769D01*
X157158695Y-154535687D01*
X157158699Y-154535688D01*
X157158708Y-154535694D01*
X157385847Y-154629778D01*
X157623323Y-154693409D01*
X157623329Y-154693409D01*
X157623330Y-154693410D01*
X157651294Y-154697091D01*
X157867073Y-154725500D01*
X157867080Y-154725500D01*
X158112920Y-154725500D01*
X158112927Y-154725500D01*
X158356677Y-154693409D01*
X158594153Y-154629778D01*
X158821292Y-154535694D01*
X159034208Y-154412767D01*
X159229256Y-154263101D01*
X159403101Y-154089256D01*
X159552767Y-153894208D01*
X159675694Y-153681292D01*
X159769778Y-153454153D01*
X159833409Y-153216677D01*
X159865500Y-152972927D01*
X159865500Y-152727073D01*
X159833409Y-152483323D01*
X159769778Y-152245847D01*
X159675694Y-152018708D01*
X159675688Y-152018699D01*
X159675687Y-152018695D01*
X159552769Y-151805795D01*
X159552765Y-151805789D01*
X159403105Y-151610749D01*
X159403103Y-151610747D01*
X159403101Y-151610744D01*
X159403095Y-151610738D01*
X159403086Y-151610728D01*
X159229271Y-151436913D01*
X159229250Y-151436894D01*
X159165243Y-151387780D01*
X159041425Y-151292770D01*
X165477845Y-151292770D01*
X165477845Y-151470301D01*
X165505617Y-151645655D01*
X165560479Y-151814500D01*
X165641078Y-151972685D01*
X165745432Y-152116316D01*
X165870964Y-152241848D01*
X165879370Y-152247955D01*
X166014596Y-152346203D01*
X166172782Y-152426802D01*
X166341628Y-152481664D01*
X166516977Y-152509436D01*
X166516979Y-152509436D01*
X166694511Y-152509436D01*
X166694513Y-152509436D01*
X166869862Y-152481664D01*
X167038708Y-152426802D01*
X167196894Y-152346203D01*
X167340523Y-152241850D01*
X167466059Y-152116314D01*
X167570412Y-151972685D01*
X167651011Y-151814499D01*
X167705873Y-151645653D01*
X167733645Y-151470304D01*
X167733645Y-151292768D01*
X167728596Y-151260889D01*
X170072745Y-151260889D01*
X170072745Y-151502182D01*
X170110494Y-151740519D01*
X170185056Y-151969999D01*
X170185059Y-151970005D01*
X170294605Y-152185001D01*
X170294606Y-152185002D01*
X170342201Y-152250512D01*
X170992690Y-151600022D01*
X171029723Y-151689426D01*
X171100857Y-151795887D01*
X171191394Y-151886424D01*
X171297855Y-151957558D01*
X171387256Y-151994589D01*
X170736767Y-152645078D01*
X170802278Y-152692674D01*
X170802279Y-152692675D01*
X171017275Y-152802221D01*
X171017281Y-152802224D01*
X171246762Y-152876786D01*
X171246759Y-152876786D01*
X171485098Y-152914536D01*
X171726392Y-152914536D01*
X171964728Y-152876786D01*
X172194208Y-152802224D01*
X172194214Y-152802221D01*
X172409211Y-152692674D01*
X172474721Y-152645078D01*
X172474721Y-152645077D01*
X171824233Y-151994589D01*
X171913635Y-151957558D01*
X172020096Y-151886424D01*
X172110633Y-151795887D01*
X172181767Y-151689426D01*
X172218798Y-151600024D01*
X172869286Y-152250512D01*
X172869287Y-152250512D01*
X172916883Y-152185002D01*
X173026430Y-151970005D01*
X173026433Y-151969999D01*
X173100995Y-151740519D01*
X173138745Y-151502182D01*
X173138745Y-151260889D01*
X173100995Y-151022552D01*
X173026433Y-150793072D01*
X173026430Y-150793066D01*
X172916884Y-150578070D01*
X172916883Y-150578069D01*
X172869287Y-150512558D01*
X172218798Y-151163047D01*
X172181767Y-151073646D01*
X172110633Y-150967185D01*
X172020096Y-150876648D01*
X171913635Y-150805514D01*
X171824231Y-150768481D01*
X172474721Y-150117992D01*
X172409211Y-150070397D01*
X172409210Y-150070396D01*
X172194214Y-149960850D01*
X172194208Y-149960847D01*
X171964727Y-149886285D01*
X171964730Y-149886285D01*
X171726392Y-149848536D01*
X171485098Y-149848536D01*
X171246761Y-149886285D01*
X171017281Y-149960847D01*
X171017275Y-149960850D01*
X170802274Y-150070399D01*
X170736767Y-150117991D01*
X171387257Y-150768481D01*
X171297855Y-150805514D01*
X171191394Y-150876648D01*
X171100857Y-150967185D01*
X171029723Y-151073646D01*
X170992690Y-151163048D01*
X170342200Y-150512558D01*
X170294608Y-150578065D01*
X170185059Y-150793066D01*
X170185056Y-150793072D01*
X170110494Y-151022552D01*
X170072745Y-151260889D01*
X167728596Y-151260889D01*
X167705873Y-151117419D01*
X167651011Y-150948573D01*
X167570412Y-150790387D01*
X167466059Y-150646758D01*
X167466057Y-150646755D01*
X167340525Y-150521223D01*
X167196894Y-150416869D01*
X167038709Y-150336270D01*
X166942193Y-150304910D01*
X166880336Y-150284811D01*
X166869864Y-150281408D01*
X166782187Y-150267522D01*
X166694513Y-150253636D01*
X166516977Y-150253636D01*
X166446837Y-150264744D01*
X166341625Y-150281408D01*
X166172780Y-150336270D01*
X166014595Y-150416869D01*
X165870964Y-150521223D01*
X165745432Y-150646755D01*
X165641078Y-150790386D01*
X165560479Y-150948571D01*
X165505617Y-151117416D01*
X165488953Y-151222628D01*
X165478722Y-151287234D01*
X165477845Y-151292770D01*
X159041425Y-151292770D01*
X159034210Y-151287234D01*
X159034204Y-151287230D01*
X158821304Y-151164312D01*
X158821296Y-151164308D01*
X158821292Y-151164306D01*
X158594153Y-151070222D01*
X158356677Y-151006591D01*
X158356675Y-151006590D01*
X158356669Y-151006589D01*
X158112929Y-150974500D01*
X158112927Y-150974500D01*
X157867073Y-150974500D01*
X157867070Y-150974500D01*
X157623330Y-151006589D01*
X157531622Y-151031162D01*
X157385847Y-151070222D01*
X157271904Y-151117419D01*
X157158706Y-151164307D01*
X157158695Y-151164312D01*
X156945795Y-151287230D01*
X156945789Y-151287234D01*
X156750749Y-151436894D01*
X156750728Y-151436913D01*
X156576913Y-151610728D01*
X156576894Y-151610749D01*
X156427234Y-151805789D01*
X156427230Y-151805795D01*
X156304312Y-152018695D01*
X156304307Y-152018706D01*
X156304306Y-152018708D01*
X156235425Y-152185001D01*
X156210222Y-152245847D01*
X156146589Y-152483330D01*
X156114500Y-152727070D01*
X152340284Y-152727070D01*
X152308838Y-152488211D01*
X152246054Y-152253900D01*
X152153224Y-152029788D01*
X152153218Y-152029779D01*
X152153217Y-152029775D01*
X152031938Y-151819714D01*
X152027937Y-151814500D01*
X151884265Y-151627262D01*
X151884259Y-151627256D01*
X151884255Y-151627251D01*
X151712748Y-151455744D01*
X151712742Y-151455739D01*
X151712738Y-151455735D01*
X151520289Y-151308064D01*
X151520288Y-151308063D01*
X151520285Y-151308061D01*
X151310224Y-151186782D01*
X151310216Y-151186778D01*
X151310212Y-151186776D01*
X151086100Y-151093946D01*
X151086097Y-151093945D01*
X151086095Y-151093944D01*
X150851782Y-151031160D01*
X150611290Y-150999500D01*
X150611288Y-150999500D01*
X150368712Y-150999500D01*
X150368709Y-150999500D01*
X150128217Y-151031160D01*
X149893904Y-151093944D01*
X149893900Y-151093946D01*
X149669786Y-151186777D01*
X149669775Y-151186782D01*
X149459714Y-151308061D01*
X149267262Y-151455735D01*
X149267251Y-151455744D01*
X149095744Y-151627251D01*
X149095735Y-151627262D01*
X148948061Y-151819714D01*
X148826782Y-152029775D01*
X148826777Y-152029786D01*
X148826776Y-152029788D01*
X148790936Y-152116314D01*
X148733946Y-152253900D01*
X148733944Y-152253904D01*
X148671160Y-152488217D01*
X148639500Y-152728709D01*
X145865500Y-152728709D01*
X145865500Y-152727073D01*
X145833409Y-152483323D01*
X145769778Y-152245847D01*
X145675694Y-152018708D01*
X145675688Y-152018699D01*
X145675687Y-152018695D01*
X145552769Y-151805795D01*
X145552765Y-151805789D01*
X145403105Y-151610749D01*
X145403103Y-151610747D01*
X145403101Y-151610744D01*
X145403095Y-151610738D01*
X145403086Y-151610728D01*
X145229271Y-151436913D01*
X145229250Y-151436894D01*
X145034210Y-151287234D01*
X145034204Y-151287230D01*
X144821304Y-151164312D01*
X144821296Y-151164308D01*
X144821292Y-151164306D01*
X144594153Y-151070222D01*
X144356677Y-151006591D01*
X144356675Y-151006590D01*
X144356669Y-151006589D01*
X144112929Y-150974500D01*
X144112927Y-150974500D01*
X143867073Y-150974500D01*
X143867070Y-150974500D01*
X143623330Y-151006589D01*
X143531622Y-151031162D01*
X143385847Y-151070222D01*
X143271904Y-151117419D01*
X143158706Y-151164307D01*
X143158695Y-151164312D01*
X142945795Y-151287230D01*
X142945789Y-151287234D01*
X142750749Y-151436894D01*
X142750728Y-151436913D01*
X142576913Y-151610728D01*
X142576894Y-151610749D01*
X142427234Y-151805789D01*
X142427230Y-151805795D01*
X142304312Y-152018695D01*
X142304307Y-152018706D01*
X142304306Y-152018708D01*
X142235425Y-152185001D01*
X142210222Y-152245847D01*
X142146589Y-152483330D01*
X142114500Y-152727070D01*
X138340284Y-152727070D01*
X138308838Y-152488211D01*
X138246054Y-152253900D01*
X138153224Y-152029788D01*
X138153218Y-152029779D01*
X138153217Y-152029775D01*
X138031938Y-151819714D01*
X138027937Y-151814500D01*
X137884265Y-151627262D01*
X137884259Y-151627256D01*
X137884255Y-151627251D01*
X137712748Y-151455744D01*
X137712742Y-151455739D01*
X137712738Y-151455735D01*
X137520289Y-151308064D01*
X137520288Y-151308063D01*
X137520285Y-151308061D01*
X137310224Y-151186782D01*
X137310216Y-151186778D01*
X137310212Y-151186776D01*
X137086100Y-151093946D01*
X137086097Y-151093945D01*
X137086095Y-151093944D01*
X136851782Y-151031160D01*
X136611290Y-150999500D01*
X136611288Y-150999500D01*
X136368712Y-150999500D01*
X136368709Y-150999500D01*
X136128217Y-151031160D01*
X135893904Y-151093944D01*
X135893900Y-151093946D01*
X135669786Y-151186777D01*
X135669775Y-151186782D01*
X135459714Y-151308061D01*
X135267262Y-151455735D01*
X135267251Y-151455744D01*
X135095744Y-151627251D01*
X135095735Y-151627262D01*
X134948061Y-151819714D01*
X134826782Y-152029775D01*
X134826777Y-152029786D01*
X134826776Y-152029788D01*
X134790936Y-152116314D01*
X134733946Y-152253900D01*
X134733944Y-152253904D01*
X134671160Y-152488217D01*
X134639500Y-152728709D01*
X131865500Y-152728709D01*
X131865500Y-152727073D01*
X131833409Y-152483323D01*
X131769778Y-152245847D01*
X131675694Y-152018708D01*
X131675688Y-152018699D01*
X131675687Y-152018695D01*
X131552769Y-151805795D01*
X131552765Y-151805789D01*
X131403105Y-151610749D01*
X131403103Y-151610747D01*
X131403101Y-151610744D01*
X131403095Y-151610738D01*
X131403086Y-151610728D01*
X131229271Y-151436913D01*
X131229250Y-151436894D01*
X131034210Y-151287234D01*
X131034204Y-151287230D01*
X130821304Y-151164312D01*
X130821296Y-151164308D01*
X130821292Y-151164306D01*
X130594153Y-151070222D01*
X130356677Y-151006591D01*
X130356675Y-151006590D01*
X130356669Y-151006589D01*
X130112929Y-150974500D01*
X130112927Y-150974500D01*
X129867073Y-150974500D01*
X129867070Y-150974500D01*
X129623330Y-151006589D01*
X129531622Y-151031162D01*
X129385847Y-151070222D01*
X129271904Y-151117419D01*
X129158706Y-151164307D01*
X129158695Y-151164312D01*
X128945795Y-151287230D01*
X128945789Y-151287234D01*
X128750749Y-151436894D01*
X128750728Y-151436913D01*
X128576913Y-151610728D01*
X128576894Y-151610749D01*
X128427234Y-151805789D01*
X128427230Y-151805795D01*
X128304312Y-152018695D01*
X128304307Y-152018706D01*
X128304306Y-152018708D01*
X128235425Y-152185001D01*
X128210222Y-152245847D01*
X128146589Y-152483330D01*
X128114500Y-152727070D01*
X124340284Y-152727070D01*
X124308838Y-152488211D01*
X124246054Y-152253900D01*
X124153224Y-152029788D01*
X124153218Y-152029779D01*
X124153217Y-152029775D01*
X124031938Y-151819714D01*
X124027937Y-151814500D01*
X123884265Y-151627262D01*
X123884259Y-151627256D01*
X123884255Y-151627251D01*
X123712748Y-151455744D01*
X123712742Y-151455739D01*
X123712738Y-151455735D01*
X123520289Y-151308064D01*
X123520288Y-151308063D01*
X123520285Y-151308061D01*
X123310224Y-151186782D01*
X123310216Y-151186778D01*
X123310212Y-151186776D01*
X123086100Y-151093946D01*
X123086097Y-151093945D01*
X123086095Y-151093944D01*
X122851782Y-151031160D01*
X122611290Y-150999500D01*
X122611288Y-150999500D01*
X122368712Y-150999500D01*
X122368709Y-150999500D01*
X122128217Y-151031160D01*
X121893904Y-151093944D01*
X121893900Y-151093946D01*
X121669786Y-151186777D01*
X121669775Y-151186782D01*
X121459714Y-151308061D01*
X121267262Y-151455735D01*
X121267251Y-151455744D01*
X121095744Y-151627251D01*
X121095735Y-151627262D01*
X120948061Y-151819714D01*
X120826782Y-152029775D01*
X120826777Y-152029786D01*
X120826776Y-152029788D01*
X120790936Y-152116314D01*
X120733946Y-152253900D01*
X120733944Y-152253904D01*
X120671160Y-152488217D01*
X120639500Y-152728709D01*
X112384686Y-152728709D01*
X112368311Y-145818292D01*
X123347100Y-145818292D01*
X123347100Y-147181708D01*
X123362043Y-147276055D01*
X123419984Y-147389771D01*
X123510229Y-147480016D01*
X123623945Y-147537957D01*
X123718292Y-147552900D01*
X123718295Y-147552900D01*
X125081705Y-147552900D01*
X125081708Y-147552900D01*
X125176055Y-147537957D01*
X125289771Y-147480016D01*
X125380016Y-147389771D01*
X125437957Y-147276055D01*
X125452900Y-147181708D01*
X125452900Y-146396295D01*
X125887100Y-146396295D01*
X125887100Y-146396298D01*
X125887100Y-146603702D01*
X125927562Y-146807120D01*
X126006932Y-146998735D01*
X126122159Y-147171185D01*
X126268815Y-147317841D01*
X126441265Y-147433068D01*
X126632880Y-147512438D01*
X126836298Y-147552900D01*
X126836299Y-147552900D01*
X127043701Y-147552900D01*
X127043702Y-147552900D01*
X127247120Y-147512438D01*
X127438735Y-147433068D01*
X127611185Y-147317841D01*
X127757841Y-147171185D01*
X127873068Y-146998735D01*
X127952438Y-146807120D01*
X127992900Y-146603702D01*
X127992900Y-146396298D01*
X127952438Y-146192880D01*
X127873068Y-146001265D01*
X127757841Y-145828815D01*
X127747318Y-145818292D01*
X137347100Y-145818292D01*
X137347100Y-147181708D01*
X137362043Y-147276055D01*
X137419984Y-147389771D01*
X137510229Y-147480016D01*
X137623945Y-147537957D01*
X137718292Y-147552900D01*
X137718295Y-147552900D01*
X139081705Y-147552900D01*
X139081708Y-147552900D01*
X139176055Y-147537957D01*
X139289771Y-147480016D01*
X139380016Y-147389771D01*
X139437957Y-147276055D01*
X139452900Y-147181708D01*
X139452900Y-146396295D01*
X139887100Y-146396295D01*
X139887100Y-146396298D01*
X139887100Y-146603702D01*
X139927562Y-146807120D01*
X140006932Y-146998735D01*
X140122159Y-147171185D01*
X140268815Y-147317841D01*
X140441265Y-147433068D01*
X140632880Y-147512438D01*
X140836298Y-147552900D01*
X140836299Y-147552900D01*
X141043701Y-147552900D01*
X141043702Y-147552900D01*
X141247120Y-147512438D01*
X141438735Y-147433068D01*
X141611185Y-147317841D01*
X141757841Y-147171185D01*
X141832350Y-147059674D01*
X141866277Y-147008899D01*
X141920753Y-146963371D01*
X141971042Y-146952900D01*
X151221100Y-146952900D01*
X151289221Y-146972902D01*
X151335714Y-147026558D01*
X151347100Y-147078900D01*
X151347100Y-147181708D01*
X151362043Y-147276055D01*
X151419984Y-147389771D01*
X151510229Y-147480016D01*
X151623945Y-147537957D01*
X151718292Y-147552900D01*
X151718295Y-147552900D01*
X153081705Y-147552900D01*
X153081708Y-147552900D01*
X153176055Y-147537957D01*
X153289771Y-147480016D01*
X153380016Y-147389771D01*
X153437957Y-147276055D01*
X153439212Y-147268127D01*
X153469620Y-147203979D01*
X153529887Y-147166450D01*
X153600876Y-147167461D01*
X153660050Y-147206691D01*
X153675927Y-147230636D01*
X153693007Y-147264157D01*
X153730151Y-147315281D01*
X154490000Y-146555432D01*
X154490000Y-146559244D01*
X154520667Y-146673694D01*
X154579910Y-146776306D01*
X154663694Y-146860090D01*
X154766306Y-146919333D01*
X154880756Y-146950000D01*
X154884566Y-146950000D01*
X154124717Y-147709847D01*
X154175842Y-147746992D01*
X154380325Y-147851182D01*
X154598578Y-147922097D01*
X154825256Y-147958000D01*
X155054744Y-147958000D01*
X155281421Y-147922097D01*
X155499674Y-147851182D01*
X155704159Y-147746991D01*
X155704161Y-147746990D01*
X155755281Y-147709848D01*
X155755282Y-147709847D01*
X154995435Y-146950000D01*
X154999244Y-146950000D01*
X155113694Y-146919333D01*
X155216306Y-146860090D01*
X155300090Y-146776306D01*
X155359333Y-146673694D01*
X155390000Y-146559244D01*
X155390000Y-146555435D01*
X156149847Y-147315282D01*
X156149848Y-147315281D01*
X156186990Y-147264161D01*
X156186991Y-147264159D01*
X156291182Y-147059674D01*
X156362097Y-146841421D01*
X156398000Y-146614743D01*
X156398000Y-146385256D01*
X156362097Y-146158578D01*
X156291182Y-145940325D01*
X156186992Y-145735842D01*
X156149847Y-145684717D01*
X155390000Y-146444564D01*
X155390000Y-146440756D01*
X155359333Y-146326306D01*
X155300090Y-146223694D01*
X155216306Y-146139910D01*
X155113694Y-146080667D01*
X154999244Y-146050000D01*
X154995434Y-146050000D01*
X155755281Y-145290151D01*
X155704157Y-145253007D01*
X155499674Y-145148817D01*
X155281421Y-145077902D01*
X155054744Y-145042000D01*
X154825256Y-145042000D01*
X154598578Y-145077902D01*
X154380325Y-145148817D01*
X154175843Y-145253006D01*
X154175842Y-145253007D01*
X154124717Y-145290151D01*
X154124717Y-145290152D01*
X154884565Y-146050000D01*
X154880756Y-146050000D01*
X154766306Y-146080667D01*
X154663694Y-146139910D01*
X154579910Y-146223694D01*
X154520667Y-146326306D01*
X154490000Y-146440756D01*
X154490000Y-146444565D01*
X153730152Y-145684717D01*
X153730151Y-145684717D01*
X153693007Y-145735842D01*
X153693003Y-145735849D01*
X153675926Y-145769364D01*
X153627177Y-145820979D01*
X153558262Y-145838044D01*
X153491061Y-145815142D01*
X153446909Y-145759544D01*
X153439212Y-145731872D01*
X153437957Y-145723945D01*
X153380016Y-145610229D01*
X153289771Y-145519984D01*
X153289770Y-145519983D01*
X153176056Y-145462043D01*
X153152468Y-145458307D01*
X153081708Y-145447100D01*
X151718292Y-145447100D01*
X151623945Y-145462043D01*
X151623943Y-145462043D01*
X151623943Y-145462044D01*
X151510229Y-145519983D01*
X151419983Y-145610229D01*
X151362044Y-145723943D01*
X151362043Y-145723945D01*
X151347837Y-145813640D01*
X151347100Y-145818295D01*
X151347100Y-145921100D01*
X151327098Y-145989221D01*
X151273442Y-146035714D01*
X151221100Y-146047100D01*
X141971042Y-146047100D01*
X141902921Y-146027098D01*
X141866277Y-145991101D01*
X141757847Y-145828823D01*
X141757843Y-145828818D01*
X141757841Y-145828815D01*
X141611185Y-145682159D01*
X141438735Y-145566932D01*
X141247120Y-145487562D01*
X141043704Y-145447100D01*
X141043702Y-145447100D01*
X140836298Y-145447100D01*
X140836295Y-145447100D01*
X140632879Y-145487562D01*
X140632874Y-145487564D01*
X140441265Y-145566932D01*
X140268819Y-145682156D01*
X140268812Y-145682161D01*
X140122161Y-145828812D01*
X140122156Y-145828819D01*
X140006932Y-146001265D01*
X139927564Y-146192874D01*
X139927562Y-146192879D01*
X139887100Y-146396295D01*
X139452900Y-146396295D01*
X139452900Y-145818292D01*
X139437957Y-145723945D01*
X139380016Y-145610229D01*
X139289771Y-145519984D01*
X139289770Y-145519983D01*
X139226139Y-145487562D01*
X139176055Y-145462043D01*
X139081708Y-145447100D01*
X137718292Y-145447100D01*
X137623945Y-145462043D01*
X137623943Y-145462043D01*
X137623943Y-145462044D01*
X137510229Y-145519983D01*
X137419983Y-145610229D01*
X137362044Y-145723943D01*
X137362043Y-145723945D01*
X137347100Y-145818292D01*
X127747318Y-145818292D01*
X127611185Y-145682159D01*
X127438735Y-145566932D01*
X127247120Y-145487562D01*
X127043704Y-145447100D01*
X127043702Y-145447100D01*
X126836298Y-145447100D01*
X126836295Y-145447100D01*
X126632879Y-145487562D01*
X126632874Y-145487564D01*
X126441265Y-145566932D01*
X126268819Y-145682156D01*
X126268812Y-145682161D01*
X126122161Y-145828812D01*
X126122156Y-145828819D01*
X126006932Y-146001265D01*
X125927564Y-146192874D01*
X125927562Y-146192879D01*
X125887100Y-146396295D01*
X125452900Y-146396295D01*
X125452900Y-145818292D01*
X125437957Y-145723945D01*
X125380016Y-145610229D01*
X125289771Y-145519984D01*
X125289770Y-145519983D01*
X125226139Y-145487562D01*
X125176055Y-145462043D01*
X125081708Y-145447100D01*
X123718292Y-145447100D01*
X123623945Y-145462043D01*
X123623943Y-145462043D01*
X123623943Y-145462044D01*
X123510229Y-145519983D01*
X123419983Y-145610229D01*
X123362044Y-145723943D01*
X123362043Y-145723945D01*
X123347100Y-145818292D01*
X112368311Y-145818292D01*
X112363662Y-143856295D01*
X124617100Y-143856295D01*
X124617100Y-144063704D01*
X124644685Y-144202381D01*
X124657562Y-144267120D01*
X124736932Y-144458735D01*
X124852159Y-144631185D01*
X124998815Y-144777841D01*
X125171265Y-144893068D01*
X125362880Y-144972438D01*
X125566298Y-145012900D01*
X125566299Y-145012900D01*
X125773701Y-145012900D01*
X125773702Y-145012900D01*
X125977120Y-144972438D01*
X126168735Y-144893068D01*
X126341185Y-144777841D01*
X126487841Y-144631185D01*
X126603068Y-144458735D01*
X126682438Y-144267120D01*
X126722900Y-144063702D01*
X126722900Y-143856298D01*
X126722899Y-143856295D01*
X127157100Y-143856295D01*
X127157100Y-144063704D01*
X127184685Y-144202381D01*
X127197562Y-144267120D01*
X127276932Y-144458735D01*
X127392159Y-144631185D01*
X127538815Y-144777841D01*
X127711265Y-144893068D01*
X127902880Y-144972438D01*
X128106298Y-145012900D01*
X128106299Y-145012900D01*
X128313701Y-145012900D01*
X128313702Y-145012900D01*
X128517120Y-144972438D01*
X128708735Y-144893068D01*
X128881185Y-144777841D01*
X129027841Y-144631185D01*
X129143068Y-144458735D01*
X129222438Y-144267120D01*
X129262900Y-144063702D01*
X129262900Y-143856298D01*
X129262899Y-143856295D01*
X138617100Y-143856295D01*
X138617100Y-144063704D01*
X138644685Y-144202381D01*
X138657562Y-144267120D01*
X138736932Y-144458735D01*
X138852159Y-144631185D01*
X138998815Y-144777841D01*
X139171265Y-144893068D01*
X139362880Y-144972438D01*
X139566298Y-145012900D01*
X139566299Y-145012900D01*
X139773701Y-145012900D01*
X139773702Y-145012900D01*
X139977120Y-144972438D01*
X140168735Y-144893068D01*
X140341185Y-144777841D01*
X140487841Y-144631185D01*
X140603068Y-144458735D01*
X140604593Y-144455052D01*
X140605909Y-144453419D01*
X140605987Y-144453274D01*
X140606014Y-144453288D01*
X140649140Y-144399771D01*
X140716503Y-144377348D01*
X140785294Y-144394905D01*
X140833674Y-144446866D01*
X140840836Y-144464332D01*
X140858817Y-144519674D01*
X140963007Y-144724157D01*
X141000151Y-144775281D01*
X141760000Y-144015432D01*
X141760000Y-144019244D01*
X141790667Y-144133694D01*
X141849910Y-144236306D01*
X141933694Y-144320090D01*
X142036306Y-144379333D01*
X142150756Y-144410000D01*
X142154566Y-144410000D01*
X141394717Y-145169847D01*
X141445842Y-145206992D01*
X141650325Y-145311182D01*
X141868578Y-145382097D01*
X142095256Y-145418000D01*
X142324744Y-145418000D01*
X142551421Y-145382097D01*
X142769674Y-145311182D01*
X142974159Y-145206991D01*
X142974161Y-145206990D01*
X143025281Y-145169848D01*
X143025282Y-145169847D01*
X142265435Y-144410000D01*
X142269244Y-144410000D01*
X142383694Y-144379333D01*
X142486306Y-144320090D01*
X142570090Y-144236306D01*
X142629333Y-144133694D01*
X142660000Y-144019244D01*
X142660000Y-144015435D01*
X143419847Y-144775282D01*
X143419848Y-144775281D01*
X143456990Y-144724161D01*
X143456991Y-144724159D01*
X143561182Y-144519674D01*
X143632097Y-144301421D01*
X143668000Y-144074743D01*
X143668000Y-143845256D01*
X143632097Y-143618578D01*
X143561182Y-143400325D01*
X143456992Y-143195842D01*
X143419847Y-143144717D01*
X142660000Y-143904564D01*
X142660000Y-143900756D01*
X142629333Y-143786306D01*
X142570090Y-143683694D01*
X142486306Y-143599910D01*
X142383694Y-143540667D01*
X142269244Y-143510000D01*
X142265434Y-143510000D01*
X143025281Y-142750151D01*
X142974157Y-142713007D01*
X142769674Y-142608817D01*
X142551421Y-142537902D01*
X142324744Y-142502000D01*
X142095256Y-142502000D01*
X141868578Y-142537902D01*
X141650325Y-142608817D01*
X141445843Y-142713006D01*
X141445842Y-142713007D01*
X141394717Y-142750151D01*
X141394717Y-142750152D01*
X142154565Y-143510000D01*
X142150756Y-143510000D01*
X142036306Y-143540667D01*
X141933694Y-143599910D01*
X141849910Y-143683694D01*
X141790667Y-143786306D01*
X141760000Y-143900756D01*
X141760000Y-143904565D01*
X141000152Y-143144717D01*
X141000151Y-143144717D01*
X140963007Y-143195842D01*
X140963006Y-143195843D01*
X140858818Y-143400323D01*
X140840836Y-143455668D01*
X140800762Y-143514273D01*
X140735365Y-143541910D01*
X140665409Y-143529803D01*
X140613103Y-143481797D01*
X140604595Y-143464951D01*
X140603068Y-143461266D01*
X140603068Y-143461265D01*
X140560470Y-143397512D01*
X140487841Y-143288815D01*
X140341185Y-143142159D01*
X140168735Y-143026932D01*
X139977120Y-142947562D01*
X139839877Y-142920263D01*
X139773704Y-142907100D01*
X139773702Y-142907100D01*
X139566298Y-142907100D01*
X139566295Y-142907100D01*
X139362879Y-142947562D01*
X139362874Y-142947564D01*
X139171265Y-143026932D01*
X138998819Y-143142156D01*
X138998812Y-143142161D01*
X138852161Y-143288812D01*
X138852156Y-143288819D01*
X138736932Y-143461265D01*
X138657564Y-143652874D01*
X138657562Y-143652879D01*
X138617100Y-143856295D01*
X129262899Y-143856295D01*
X129222438Y-143652880D01*
X129190386Y-143575501D01*
X129173538Y-143534825D01*
X129165949Y-143464235D01*
X129197728Y-143400748D01*
X129200823Y-143397541D01*
X132901561Y-139696805D01*
X132963873Y-139662779D01*
X132990656Y-139659900D01*
X137251212Y-139659900D01*
X137319333Y-139679902D01*
X137340307Y-139696805D01*
X137362906Y-139719404D01*
X137362911Y-139719408D01*
X137362913Y-139719410D01*
X137466187Y-139779036D01*
X137581375Y-139809900D01*
X137581377Y-139809900D01*
X137700623Y-139809900D01*
X137700625Y-139809900D01*
X137815813Y-139779036D01*
X137919087Y-139719410D01*
X138003410Y-139635087D01*
X138063036Y-139531813D01*
X138093900Y-139416625D01*
X138093900Y-139297375D01*
X138063036Y-139182187D01*
X138003410Y-139078913D01*
X138003408Y-139078911D01*
X138003404Y-139078906D01*
X137919093Y-138994595D01*
X137919083Y-138994587D01*
X137815817Y-138934966D01*
X137815815Y-138934965D01*
X137815813Y-138934964D01*
X137700625Y-138904100D01*
X137581375Y-138904100D01*
X137466187Y-138934964D01*
X137466185Y-138934965D01*
X137466182Y-138934966D01*
X137362916Y-138994587D01*
X137362906Y-138994595D01*
X137340307Y-139017195D01*
X137277995Y-139051221D01*
X137251212Y-139054100D01*
X132852878Y-139054100D01*
X132773122Y-139054100D01*
X132734603Y-139064421D01*
X132696083Y-139074742D01*
X132627016Y-139114618D01*
X132627008Y-139114624D01*
X128772485Y-142969147D01*
X128710173Y-143003173D01*
X128639357Y-142998108D01*
X128635172Y-142996461D01*
X128517125Y-142947564D01*
X128517120Y-142947562D01*
X128313704Y-142907100D01*
X128313702Y-142907100D01*
X128106298Y-142907100D01*
X128106295Y-142907100D01*
X127902879Y-142947562D01*
X127902874Y-142947564D01*
X127711265Y-143026932D01*
X127538819Y-143142156D01*
X127538812Y-143142161D01*
X127392161Y-143288812D01*
X127392156Y-143288819D01*
X127276932Y-143461265D01*
X127197564Y-143652874D01*
X127197562Y-143652879D01*
X127157100Y-143856295D01*
X126722899Y-143856295D01*
X126682438Y-143652880D01*
X126603068Y-143461265D01*
X126487841Y-143288815D01*
X126341185Y-143142159D01*
X126168735Y-143026932D01*
X125977120Y-142947562D01*
X125773704Y-142907100D01*
X125773702Y-142907100D01*
X125566298Y-142907100D01*
X125566295Y-142907100D01*
X125362879Y-142947562D01*
X125362874Y-142947564D01*
X125171265Y-143026932D01*
X124998819Y-143142156D01*
X124998812Y-143142161D01*
X124852161Y-143288812D01*
X124852156Y-143288819D01*
X124736932Y-143461265D01*
X124657564Y-143652874D01*
X124657562Y-143652879D01*
X124617100Y-143856295D01*
X112363662Y-143856295D01*
X112349752Y-137986314D01*
X115392000Y-137986314D01*
X115392000Y-138601000D01*
X116383731Y-138601000D01*
X116334075Y-138687007D01*
X116300000Y-138814174D01*
X116300000Y-138945826D01*
X116334075Y-139072993D01*
X116383731Y-139159000D01*
X115392001Y-139159000D01*
X115392001Y-139773687D01*
X115402768Y-139863356D01*
X115459040Y-140006051D01*
X115551725Y-140128274D01*
X115673949Y-140220959D01*
X115673948Y-140220959D01*
X115816640Y-140277230D01*
X115816646Y-140277231D01*
X115906317Y-140287999D01*
X116521000Y-140287999D01*
X116521000Y-139296268D01*
X116607007Y-139345925D01*
X116734174Y-139380000D01*
X116865826Y-139380000D01*
X116992993Y-139345925D01*
X117079000Y-139296268D01*
X117079000Y-140287999D01*
X117693677Y-140287999D01*
X117693687Y-140287998D01*
X117783356Y-140277231D01*
X117926051Y-140220959D01*
X118048274Y-140128274D01*
X118140959Y-140006051D01*
X118197230Y-139863359D01*
X118197231Y-139863353D01*
X118207999Y-139773685D01*
X118208000Y-139773680D01*
X118208000Y-139159000D01*
X117216269Y-139159000D01*
X117265925Y-139072993D01*
X117300000Y-138945826D01*
X117300000Y-138814174D01*
X117265925Y-138687007D01*
X117216269Y-138601000D01*
X118207999Y-138601000D01*
X118207999Y-137986322D01*
X118207998Y-137986312D01*
X118197231Y-137896646D01*
X118197230Y-137896640D01*
X118140959Y-137753948D01*
X118048274Y-137631725D01*
X117926052Y-137539041D01*
X117865307Y-137515086D01*
X117809274Y-137471487D01*
X117785707Y-137404516D01*
X117802089Y-137335435D01*
X117822437Y-137308775D01*
X117873961Y-137257251D01*
X118004227Y-137077956D01*
X118104843Y-136880485D01*
X118104844Y-136880483D01*
X118173330Y-136669709D01*
X118181362Y-136619000D01*
X117216269Y-136619000D01*
X117265925Y-136532993D01*
X117300000Y-136405826D01*
X117300000Y-136274174D01*
X117265925Y-136147007D01*
X117216269Y-136061000D01*
X118181361Y-136061000D01*
X118173330Y-136010290D01*
X118104844Y-135799516D01*
X118104843Y-135799514D01*
X118004227Y-135602043D01*
X117873960Y-135422746D01*
X117717253Y-135266039D01*
X117537956Y-135135772D01*
X117537198Y-135135386D01*
X117537196Y-135135384D01*
X117537194Y-135135384D01*
X117340485Y-135035156D01*
X117340482Y-135035155D01*
X117328849Y-135031375D01*
X127635100Y-135031375D01*
X127635100Y-135150625D01*
X127665964Y-135265813D01*
X127665965Y-135265815D01*
X127665966Y-135265817D01*
X127725587Y-135369083D01*
X127725595Y-135369093D01*
X127809906Y-135453404D01*
X127809911Y-135453408D01*
X127809913Y-135453410D01*
X127913187Y-135513036D01*
X128028375Y-135543900D01*
X128060041Y-135543900D01*
X128128162Y-135563902D01*
X128149185Y-135580854D01*
X128275048Y-135706855D01*
X128753575Y-136185909D01*
X128753619Y-136185985D01*
X128782640Y-136215006D01*
X128796657Y-136229038D01*
X128809881Y-136242278D01*
X128809915Y-136242304D01*
X128810011Y-136242378D01*
X128810013Y-136242379D01*
X128810015Y-136242381D01*
X128845178Y-136262682D01*
X128845180Y-136262683D01*
X128845175Y-136262691D01*
X128845235Y-136262715D01*
X128878929Y-136282193D01*
X128878931Y-136282193D01*
X128878941Y-136282199D01*
X128879076Y-136282255D01*
X128879083Y-136282256D01*
X128879085Y-136282258D01*
X128900739Y-136288060D01*
X128917823Y-136292638D01*
X128917822Y-136292641D01*
X128917883Y-136292653D01*
X128940410Y-136298703D01*
X128955946Y-136302876D01*
X128955949Y-136302876D01*
X128955955Y-136302878D01*
X128955961Y-136302878D01*
X128956036Y-136302888D01*
X128956059Y-136302891D01*
X128956117Y-136302898D01*
X128956122Y-136302900D01*
X128956127Y-136302900D01*
X128995833Y-136302900D01*
X129035711Y-136302922D01*
X129035712Y-136302921D01*
X129043723Y-136302926D01*
X129044133Y-136302900D01*
X129385809Y-136302900D01*
X129453930Y-136322902D01*
X129500423Y-136376558D01*
X129510527Y-136446832D01*
X129481033Y-136511412D01*
X129424745Y-136548733D01*
X129401939Y-136556142D01*
X129401933Y-136556145D01*
X129183426Y-136667481D01*
X129113124Y-136718558D01*
X129113124Y-136718559D01*
X129902936Y-137508370D01*
X129807007Y-137534075D01*
X129692993Y-137599901D01*
X129599901Y-137692993D01*
X129534075Y-137807007D01*
X129508370Y-137902935D01*
X128718559Y-137113124D01*
X128718558Y-137113124D01*
X128667481Y-137183426D01*
X128556145Y-137401933D01*
X128556142Y-137401939D01*
X128480364Y-137635161D01*
X128442000Y-137877386D01*
X128442000Y-138122613D01*
X128480364Y-138364838D01*
X128556142Y-138598060D01*
X128556145Y-138598066D01*
X128667479Y-138816569D01*
X128718559Y-138886874D01*
X128718560Y-138886874D01*
X129508370Y-138097064D01*
X129534075Y-138192993D01*
X129599901Y-138307007D01*
X129692993Y-138400099D01*
X129807007Y-138465925D01*
X129902935Y-138491629D01*
X129113124Y-139281439D01*
X129183430Y-139332520D01*
X129401933Y-139443854D01*
X129401939Y-139443857D01*
X129635162Y-139519635D01*
X129635159Y-139519635D01*
X129877386Y-139558000D01*
X130122614Y-139558000D01*
X130364838Y-139519635D01*
X130598060Y-139443857D01*
X130598066Y-139443854D01*
X130816571Y-139332519D01*
X130816573Y-139332518D01*
X130886874Y-139281440D01*
X130886875Y-139281439D01*
X130097065Y-138491629D01*
X130192993Y-138465925D01*
X130307007Y-138400099D01*
X130400099Y-138307007D01*
X130465925Y-138192993D01*
X130491629Y-138097065D01*
X131281439Y-138886875D01*
X131281440Y-138886874D01*
X131332518Y-138816573D01*
X131332519Y-138816571D01*
X131443854Y-138598066D01*
X131443857Y-138598060D01*
X131519635Y-138364838D01*
X131558000Y-138122613D01*
X131558000Y-137877386D01*
X131519635Y-137635161D01*
X131443857Y-137401939D01*
X131443854Y-137401933D01*
X131332520Y-137183430D01*
X131281439Y-137113124D01*
X130491629Y-137902934D01*
X130465925Y-137807007D01*
X130400099Y-137692993D01*
X130307007Y-137599901D01*
X130192993Y-137534075D01*
X130097064Y-137508370D01*
X130886874Y-136718560D01*
X130886874Y-136718559D01*
X130816569Y-136667479D01*
X130598066Y-136556145D01*
X130598060Y-136556142D01*
X130575255Y-136548733D01*
X130516650Y-136508660D01*
X130489012Y-136443263D01*
X130501119Y-136373307D01*
X130549124Y-136321000D01*
X130614191Y-136302900D01*
X140343344Y-136302900D01*
X140411465Y-136322902D01*
X140432439Y-136339805D01*
X148295008Y-144202375D01*
X148295013Y-144202379D01*
X148295015Y-144202381D01*
X148295016Y-144202382D01*
X148295018Y-144202383D01*
X148364083Y-144242257D01*
X148364085Y-144242258D01*
X148441122Y-144262901D01*
X148528596Y-144262901D01*
X148528612Y-144262900D01*
X152571623Y-144262900D01*
X152639744Y-144282902D01*
X152686237Y-144336558D01*
X152688032Y-144340681D01*
X152697660Y-144363926D01*
X152736932Y-144458735D01*
X152852159Y-144631185D01*
X152998815Y-144777841D01*
X153171265Y-144893068D01*
X153362880Y-144972438D01*
X153566298Y-145012900D01*
X153566299Y-145012900D01*
X153773701Y-145012900D01*
X153773702Y-145012900D01*
X153977120Y-144972438D01*
X154168735Y-144893068D01*
X154341185Y-144777841D01*
X154487841Y-144631185D01*
X154603068Y-144458735D01*
X154682438Y-144267120D01*
X154722900Y-144063702D01*
X154722900Y-143856298D01*
X154722899Y-143856295D01*
X155157100Y-143856295D01*
X155157100Y-144063704D01*
X155184685Y-144202381D01*
X155197562Y-144267120D01*
X155276932Y-144458735D01*
X155392159Y-144631185D01*
X155538815Y-144777841D01*
X155711265Y-144893068D01*
X155902880Y-144972438D01*
X156106298Y-145012900D01*
X156106299Y-145012900D01*
X156313701Y-145012900D01*
X156313702Y-145012900D01*
X156517120Y-144972438D01*
X156708735Y-144893068D01*
X156881185Y-144777841D01*
X157027841Y-144631185D01*
X157143068Y-144458735D01*
X157222438Y-144267120D01*
X157262900Y-144063702D01*
X157262900Y-143856298D01*
X157222438Y-143652880D01*
X157143068Y-143461265D01*
X157027841Y-143288815D01*
X156881185Y-143142159D01*
X156708735Y-143026932D01*
X156517120Y-142947562D01*
X156313704Y-142907100D01*
X156313702Y-142907100D01*
X156106298Y-142907100D01*
X156106295Y-142907100D01*
X155902879Y-142947562D01*
X155902874Y-142947564D01*
X155711265Y-143026932D01*
X155538819Y-143142156D01*
X155538812Y-143142161D01*
X155392161Y-143288812D01*
X155392156Y-143288819D01*
X155276932Y-143461265D01*
X155197564Y-143652874D01*
X155197562Y-143652879D01*
X155157100Y-143856295D01*
X154722899Y-143856295D01*
X154682438Y-143652880D01*
X154603068Y-143461265D01*
X154487841Y-143288815D01*
X154341185Y-143142159D01*
X154168735Y-143026932D01*
X153977120Y-142947562D01*
X153773704Y-142907100D01*
X153773702Y-142907100D01*
X153566298Y-142907100D01*
X153566295Y-142907100D01*
X153362879Y-142947562D01*
X153362874Y-142947564D01*
X153171265Y-143026932D01*
X152998819Y-143142156D01*
X152998812Y-143142161D01*
X152852161Y-143288812D01*
X152852156Y-143288819D01*
X152740672Y-143455668D01*
X152736932Y-143461265D01*
X152730007Y-143477984D01*
X152688032Y-143579319D01*
X152643483Y-143634599D01*
X152576119Y-143657020D01*
X152571623Y-143657100D01*
X148658656Y-143657100D01*
X148590535Y-143637098D01*
X148569561Y-143620195D01*
X143798598Y-138849231D01*
X143797113Y-138846512D01*
X143794466Y-138844899D01*
X143780204Y-138815547D01*
X143764572Y-138786919D01*
X143764793Y-138783827D01*
X143763439Y-138781041D01*
X143767309Y-138748650D01*
X143769637Y-138716104D01*
X143771494Y-138713622D01*
X143771862Y-138710546D01*
X143792634Y-138685383D01*
X143812184Y-138659268D01*
X143815086Y-138658185D01*
X143817060Y-138655795D01*
X143848137Y-138645857D01*
X143878704Y-138634457D01*
X143882622Y-138634831D01*
X143884684Y-138634172D01*
X143920294Y-138638427D01*
X143954390Y-138647560D01*
X143954400Y-138647562D01*
X144015375Y-138663900D01*
X144015388Y-138663900D01*
X144015409Y-138663903D01*
X144015417Y-138663905D01*
X144015422Y-138663904D01*
X144015423Y-138663905D01*
X144069622Y-138663900D01*
X147634484Y-138663900D01*
X147697483Y-138680780D01*
X147741003Y-138705907D01*
X147876079Y-138742100D01*
X147876081Y-138742100D01*
X148015919Y-138742100D01*
X148015921Y-138742100D01*
X148150997Y-138705907D01*
X148194516Y-138680780D01*
X148257516Y-138663900D01*
X159995213Y-138663900D01*
X160063334Y-138683902D01*
X160084308Y-138700805D01*
X164892905Y-143509404D01*
X164892910Y-143509408D01*
X164892912Y-143509410D01*
X164892913Y-143509411D01*
X164892915Y-143509412D01*
X164965503Y-143551321D01*
X164996187Y-143569036D01*
X165111375Y-143599900D01*
X165351846Y-143599900D01*
X165419967Y-143619902D01*
X165466460Y-143673558D01*
X165477846Y-143725900D01*
X165477846Y-144171596D01*
X165486717Y-144216194D01*
X165486717Y-144216195D01*
X165509194Y-144249834D01*
X165520511Y-144266770D01*
X165571087Y-144300564D01*
X165571086Y-144300564D01*
X165575395Y-144301421D01*
X165615688Y-144309436D01*
X167595801Y-144309435D01*
X167640403Y-144300564D01*
X167690979Y-144266770D01*
X167724773Y-144216194D01*
X167733645Y-144171593D01*
X167733644Y-143060889D01*
X170072745Y-143060889D01*
X170072745Y-143302182D01*
X170110494Y-143540519D01*
X170185056Y-143769999D01*
X170185059Y-143770005D01*
X170294605Y-143985001D01*
X170294606Y-143985002D01*
X170342201Y-144050512D01*
X170992690Y-143400022D01*
X171029723Y-143489426D01*
X171100857Y-143595887D01*
X171191394Y-143686424D01*
X171297855Y-143757558D01*
X171387256Y-143794589D01*
X170736767Y-144445078D01*
X170802278Y-144492674D01*
X170802279Y-144492675D01*
X171017275Y-144602221D01*
X171017281Y-144602224D01*
X171246762Y-144676786D01*
X171246759Y-144676786D01*
X171485098Y-144714536D01*
X171726392Y-144714536D01*
X171964728Y-144676786D01*
X172194208Y-144602224D01*
X172194214Y-144602221D01*
X172409211Y-144492674D01*
X172474721Y-144445078D01*
X172474721Y-144445077D01*
X171824233Y-143794589D01*
X171913635Y-143757558D01*
X172020096Y-143686424D01*
X172110633Y-143595887D01*
X172181767Y-143489426D01*
X172218798Y-143400024D01*
X172869286Y-144050512D01*
X172869287Y-144050512D01*
X172916883Y-143985002D01*
X173026430Y-143770005D01*
X173026433Y-143769999D01*
X173100995Y-143540519D01*
X173138745Y-143302182D01*
X173138745Y-143060889D01*
X173100995Y-142822552D01*
X173026433Y-142593072D01*
X173026430Y-142593066D01*
X172916884Y-142378070D01*
X172916883Y-142378069D01*
X172869287Y-142312558D01*
X172218798Y-142963047D01*
X172181767Y-142873646D01*
X172110633Y-142767185D01*
X172020096Y-142676648D01*
X171913635Y-142605514D01*
X171824231Y-142568481D01*
X172474721Y-141917992D01*
X172409211Y-141870397D01*
X172409210Y-141870396D01*
X172194214Y-141760850D01*
X172194208Y-141760847D01*
X171964727Y-141686285D01*
X171964730Y-141686285D01*
X171726392Y-141648536D01*
X171485098Y-141648536D01*
X171246761Y-141686285D01*
X171017281Y-141760847D01*
X171017275Y-141760850D01*
X170802274Y-141870399D01*
X170736767Y-141917991D01*
X171387257Y-142568481D01*
X171297855Y-142605514D01*
X171191394Y-142676648D01*
X171100857Y-142767185D01*
X171029723Y-142873646D01*
X170992690Y-142963048D01*
X170342200Y-142312558D01*
X170294608Y-142378065D01*
X170185059Y-142593066D01*
X170185056Y-142593072D01*
X170110494Y-142822552D01*
X170072745Y-143060889D01*
X167733644Y-143060889D01*
X167733644Y-142191480D01*
X167724773Y-142146878D01*
X167690979Y-142096302D01*
X167640403Y-142062508D01*
X167640402Y-142062507D01*
X167640403Y-142062507D01*
X167608494Y-142056160D01*
X167595802Y-142053636D01*
X167595800Y-142053636D01*
X165615691Y-142053636D01*
X165615684Y-142053637D01*
X165571086Y-142062508D01*
X165571085Y-142062508D01*
X165520512Y-142096301D01*
X165486716Y-142146878D01*
X165477845Y-142191478D01*
X165477845Y-142509157D01*
X165457843Y-142577278D01*
X165404187Y-142623771D01*
X165333913Y-142633875D01*
X165269333Y-142604381D01*
X165262750Y-142598252D01*
X160513093Y-137848595D01*
X160513083Y-137848587D01*
X160409817Y-137788966D01*
X160409815Y-137788965D01*
X160409813Y-137788964D01*
X160294625Y-137758100D01*
X160294623Y-137758100D01*
X148257516Y-137758100D01*
X148194516Y-137741219D01*
X148189110Y-137738098D01*
X148177202Y-137731223D01*
X148151001Y-137716095D01*
X148150998Y-137716094D01*
X148150997Y-137716093D01*
X148150995Y-137716092D01*
X148150994Y-137716092D01*
X148114798Y-137706393D01*
X148015921Y-137679900D01*
X147876079Y-137679900D01*
X147827215Y-137692993D01*
X147741005Y-137716092D01*
X147740998Y-137716095D01*
X147697484Y-137741219D01*
X147634484Y-137758100D01*
X144314757Y-137758100D01*
X144246636Y-137738098D01*
X144225670Y-137721204D01*
X144184358Y-137679900D01*
X142106118Y-135602043D01*
X139471593Y-132968003D01*
X139437562Y-132905694D01*
X139442620Y-132834877D01*
X139485162Y-132778038D01*
X139551680Y-132753221D01*
X139560680Y-132752899D01*
X141027554Y-132752899D01*
X141027556Y-132752899D01*
X141072158Y-132744028D01*
X141122734Y-132710234D01*
X141156528Y-132659658D01*
X141165400Y-132615057D01*
X141165399Y-132615054D01*
X141166607Y-132608987D01*
X141168331Y-132609330D01*
X141191783Y-132551253D01*
X141249738Y-132510243D01*
X141320664Y-132507077D01*
X141382042Y-132542758D01*
X141392529Y-132555375D01*
X141447857Y-132631527D01*
X141447859Y-132631530D01*
X141615972Y-132799643D01*
X141808324Y-132939395D01*
X142020167Y-133047334D01*
X142246289Y-133120806D01*
X142246296Y-133120808D01*
X142321000Y-133132639D01*
X142321000Y-132074004D01*
X142387708Y-132112518D01*
X142527591Y-132150000D01*
X142672409Y-132150000D01*
X142812292Y-132112518D01*
X142879000Y-132074004D01*
X142879000Y-133132638D01*
X142953703Y-133120808D01*
X142953710Y-133120806D01*
X143179832Y-133047334D01*
X143391675Y-132939395D01*
X143584027Y-132799643D01*
X143752143Y-132631527D01*
X143891895Y-132439175D01*
X143986906Y-132252705D01*
X144035654Y-132201089D01*
X144104569Y-132184023D01*
X144171770Y-132206923D01*
X144201107Y-132235844D01*
X144296848Y-132367620D01*
X144296850Y-132367622D01*
X144296852Y-132367625D01*
X144419874Y-132490647D01*
X144419877Y-132490649D01*
X144419880Y-132490652D01*
X144560644Y-132592923D01*
X144715674Y-132671914D01*
X144881152Y-132725681D01*
X145053003Y-132752900D01*
X145053006Y-132752900D01*
X145226994Y-132752900D01*
X145226997Y-132752900D01*
X145398848Y-132725681D01*
X145564326Y-132671914D01*
X145719356Y-132592923D01*
X145860120Y-132490652D01*
X145983152Y-132367620D01*
X146085423Y-132226856D01*
X146139004Y-132121695D01*
X146149622Y-132110452D01*
X146156046Y-132096388D01*
X146173500Y-132085170D01*
X146187751Y-132070082D01*
X146203685Y-132065771D01*
X146215772Y-132058004D01*
X146251270Y-132052900D01*
X146479257Y-132052900D01*
X146479349Y-132052905D01*
X146487409Y-132052904D01*
X146487412Y-132052905D01*
X146547037Y-132052900D01*
X146606625Y-132052900D01*
X146606631Y-132052898D01*
X146606652Y-132052895D01*
X146606662Y-132052895D01*
X146647648Y-132041908D01*
X146666020Y-132036985D01*
X146666025Y-132036982D01*
X146720310Y-132022438D01*
X146721690Y-132022089D01*
X146721804Y-132022038D01*
X146721813Y-132022036D01*
X146721820Y-132022031D01*
X146721833Y-132022025D01*
X146721848Y-132022022D01*
X146721869Y-132022009D01*
X146722332Y-132021805D01*
X146724283Y-132020615D01*
X146775777Y-131990879D01*
X146823282Y-131963451D01*
X146824899Y-131962557D01*
X146825073Y-131962417D01*
X146825087Y-131962410D01*
X146825097Y-131962398D01*
X146825102Y-131962394D01*
X146825117Y-131962387D01*
X146825135Y-131962368D01*
X146825363Y-131962187D01*
X146826623Y-131960880D01*
X146867913Y-131919583D01*
X146909410Y-131878087D01*
X146909411Y-131878084D01*
X146916032Y-131871464D01*
X146916082Y-131871405D01*
X152806714Y-125979811D01*
X152869024Y-125945782D01*
X152895817Y-125942900D01*
X159864484Y-125942900D01*
X159927483Y-125959780D01*
X159971003Y-125984907D01*
X160106079Y-126021100D01*
X160106081Y-126021100D01*
X160245919Y-126021100D01*
X160245921Y-126021100D01*
X160380997Y-125984907D01*
X160502103Y-125914986D01*
X160600986Y-125816103D01*
X160670907Y-125694997D01*
X160707100Y-125559921D01*
X160707100Y-125420079D01*
X160670907Y-125285003D01*
X160630861Y-125215641D01*
X160600988Y-125163900D01*
X160600980Y-125163890D01*
X160502109Y-125065019D01*
X160502099Y-125065011D01*
X160381001Y-124995095D01*
X160380998Y-124995094D01*
X160380997Y-124995093D01*
X160380995Y-124995092D01*
X160380994Y-124995092D01*
X160344798Y-124985393D01*
X160245921Y-124958900D01*
X160106079Y-124958900D01*
X160033695Y-124978294D01*
X159971005Y-124995092D01*
X159970998Y-124995095D01*
X159927484Y-125020219D01*
X159864484Y-125037100D01*
X152715607Y-125037100D01*
X152715588Y-125037095D01*
X152655963Y-125037100D01*
X152596357Y-125037100D01*
X152596338Y-125037104D01*
X152596338Y-125037105D01*
X152538604Y-125052579D01*
X152481187Y-125067964D01*
X152481171Y-125067973D01*
X152481153Y-125067978D01*
X152480943Y-125068098D01*
X152480943Y-125068099D01*
X152429742Y-125097665D01*
X152429737Y-125097667D01*
X152377908Y-125127592D01*
X152377893Y-125127603D01*
X152335090Y-125170410D01*
X152335086Y-125170416D01*
X152293590Y-125211913D01*
X152293582Y-125211924D01*
X152288517Y-125216991D01*
X152288517Y-125216992D01*
X146396286Y-131110188D01*
X146333976Y-131144218D01*
X146307183Y-131147100D01*
X146251270Y-131147100D01*
X146183149Y-131127098D01*
X146139004Y-131078304D01*
X146085423Y-130973144D01*
X145983152Y-130832380D01*
X145983149Y-130832377D01*
X145983147Y-130832374D01*
X145860125Y-130709352D01*
X145860122Y-130709350D01*
X145860120Y-130709348D01*
X145771038Y-130644626D01*
X145719365Y-130607083D01*
X145719360Y-130607080D01*
X145719356Y-130607077D01*
X145564326Y-130528086D01*
X145481587Y-130501202D01*
X145398852Y-130474320D01*
X145398850Y-130474319D01*
X145398848Y-130474319D01*
X145226997Y-130447100D01*
X145053003Y-130447100D01*
X144881152Y-130474319D01*
X144881150Y-130474319D01*
X144881147Y-130474320D01*
X144715677Y-130528085D01*
X144715673Y-130528086D01*
X144560647Y-130607075D01*
X144560634Y-130607083D01*
X144419877Y-130709350D01*
X144419874Y-130709352D01*
X144296849Y-130832377D01*
X144201109Y-130964153D01*
X144144886Y-131007507D01*
X144074150Y-131013582D01*
X144011359Y-130980450D01*
X143986906Y-130947294D01*
X143891895Y-130760824D01*
X143752143Y-130568472D01*
X143584027Y-130400356D01*
X143391675Y-130260604D01*
X143179832Y-130152665D01*
X142953712Y-130079193D01*
X142879000Y-130067360D01*
X142879000Y-131125995D01*
X142812292Y-131087482D01*
X142672409Y-131050000D01*
X142527591Y-131050000D01*
X142387708Y-131087482D01*
X142321000Y-131125995D01*
X142321000Y-130067360D01*
X142246287Y-130079193D01*
X142020167Y-130152665D01*
X141808324Y-130260604D01*
X141615972Y-130400356D01*
X141447860Y-130568468D01*
X141392528Y-130644626D01*
X141336305Y-130687979D01*
X141265569Y-130694054D01*
X141202777Y-130660922D01*
X141167866Y-130599102D01*
X141166185Y-130588897D01*
X141165399Y-130584943D01*
X141156528Y-130540342D01*
X141122734Y-130489766D01*
X141072158Y-130455972D01*
X141072157Y-130455971D01*
X141072158Y-130455971D01*
X141040249Y-130449624D01*
X141027557Y-130447100D01*
X141027555Y-130447100D01*
X139092446Y-130447100D01*
X139092439Y-130447101D01*
X139047841Y-130455972D01*
X139047840Y-130455972D01*
X138997267Y-130489765D01*
X138997266Y-130489766D01*
X138988846Y-130502366D01*
X138963471Y-130540342D01*
X138954600Y-130584942D01*
X138954600Y-131021100D01*
X138934598Y-131089221D01*
X138880942Y-131135714D01*
X138828600Y-131147100D01*
X131839787Y-131147100D01*
X131771666Y-131127098D01*
X131750692Y-131110195D01*
X131126618Y-130486121D01*
X131092592Y-130423809D01*
X131095880Y-130358089D01*
X131124512Y-130269971D01*
X131152900Y-130090735D01*
X131152900Y-129909265D01*
X131124512Y-129730029D01*
X131068434Y-129557440D01*
X130986049Y-129395749D01*
X130879383Y-129248936D01*
X130879380Y-129248933D01*
X130879378Y-129248930D01*
X130751069Y-129120621D01*
X130751066Y-129120619D01*
X130751064Y-129120617D01*
X130604251Y-129013951D01*
X130601472Y-129012535D01*
X130442567Y-128931569D01*
X130442563Y-128931567D01*
X130442560Y-128931566D01*
X130269971Y-128875488D01*
X130090735Y-128847100D01*
X129909265Y-128847100D01*
X129730029Y-128875488D01*
X129730026Y-128875488D01*
X129730025Y-128875489D01*
X129647219Y-128902394D01*
X129557440Y-128931566D01*
X129557438Y-128931566D01*
X129557432Y-128931569D01*
X129395748Y-129013951D01*
X129248933Y-129120619D01*
X129248930Y-129120621D01*
X129120621Y-129248930D01*
X129120619Y-129248933D01*
X129013951Y-129395748D01*
X128931569Y-129557432D01*
X128931566Y-129557441D01*
X128877805Y-129722899D01*
X128875488Y-129730029D01*
X128847100Y-129909265D01*
X128847100Y-130090735D01*
X128875488Y-130269971D01*
X128931566Y-130442560D01*
X128931567Y-130442563D01*
X128931569Y-130442567D01*
X128947748Y-130474320D01*
X129013951Y-130604251D01*
X129120617Y-130751064D01*
X129120619Y-130751066D01*
X129120621Y-130751069D01*
X129248930Y-130879378D01*
X129248933Y-130879380D01*
X129248936Y-130879383D01*
X129395749Y-130986049D01*
X129557440Y-131068434D01*
X129730029Y-131124512D01*
X129909265Y-131152900D01*
X129909268Y-131152900D01*
X130090732Y-131152900D01*
X130090735Y-131152900D01*
X130269971Y-131124512D01*
X130358090Y-131095879D01*
X130429057Y-131093852D01*
X130486119Y-131126616D01*
X131321913Y-131962410D01*
X131321914Y-131962411D01*
X131321916Y-131962412D01*
X131394508Y-132004323D01*
X131425187Y-132022036D01*
X131540375Y-132052900D01*
X131659626Y-132052900D01*
X138074100Y-132052900D01*
X138142221Y-132072902D01*
X138188714Y-132126558D01*
X138200100Y-132178900D01*
X138200100Y-132730397D01*
X138200095Y-132730416D01*
X138200100Y-132784621D01*
X138200100Y-132849644D01*
X138215116Y-132905667D01*
X138215117Y-132905678D01*
X138215119Y-132905678D01*
X138230966Y-132964820D01*
X138230979Y-132964853D01*
X138259327Y-133013939D01*
X138259330Y-133013953D01*
X138259334Y-133013952D01*
X138290588Y-133068085D01*
X138290614Y-133068118D01*
X138290616Y-133068121D01*
X138334015Y-133111512D01*
X138374913Y-133152410D01*
X138374930Y-133152420D01*
X138380596Y-133158085D01*
X138380597Y-133158086D01*
X140718987Y-135496045D01*
X140753018Y-135558354D01*
X140747960Y-135629171D01*
X140705418Y-135686010D01*
X140638900Y-135710827D01*
X140597287Y-135706855D01*
X140560879Y-135697099D01*
X140560878Y-135697099D01*
X140481122Y-135697099D01*
X140473404Y-135697099D01*
X140473388Y-135697100D01*
X129173795Y-135697100D01*
X129105674Y-135677098D01*
X129084650Y-135660146D01*
X128577755Y-135152692D01*
X128543765Y-135090361D01*
X128540900Y-135063646D01*
X128540900Y-135031376D01*
X128540900Y-135031375D01*
X128510036Y-134916187D01*
X128450410Y-134812913D01*
X128450408Y-134812911D01*
X128450404Y-134812906D01*
X128366093Y-134728595D01*
X128366083Y-134728587D01*
X128262817Y-134668966D01*
X128262815Y-134668965D01*
X128262813Y-134668964D01*
X128147625Y-134638100D01*
X128028375Y-134638100D01*
X127913187Y-134668964D01*
X127913185Y-134668965D01*
X127913182Y-134668966D01*
X127809916Y-134728587D01*
X127809906Y-134728595D01*
X127725595Y-134812906D01*
X127725587Y-134812916D01*
X127665966Y-134916182D01*
X127665965Y-134916185D01*
X127665964Y-134916187D01*
X127635100Y-135031375D01*
X117328849Y-135031375D01*
X117159984Y-134976506D01*
X117101379Y-134936432D01*
X117073742Y-134871035D01*
X117085849Y-134801078D01*
X117133856Y-134748773D01*
X117150695Y-134740268D01*
X117275051Y-134688759D01*
X117439312Y-134579004D01*
X117579004Y-134439312D01*
X117666143Y-134308897D01*
X117720620Y-134263370D01*
X117770908Y-134252900D01*
X128778397Y-134252900D01*
X128846518Y-134272902D01*
X128893011Y-134326558D01*
X128898229Y-134339962D01*
X128931566Y-134442560D01*
X128931567Y-134442563D01*
X128931569Y-134442567D01*
X129001087Y-134579004D01*
X129013951Y-134604251D01*
X129120617Y-134751064D01*
X129120619Y-134751066D01*
X129120621Y-134751069D01*
X129248930Y-134879378D01*
X129248933Y-134879380D01*
X129248936Y-134879383D01*
X129395749Y-134986049D01*
X129557440Y-135068434D01*
X129730029Y-135124512D01*
X129909265Y-135152900D01*
X129909268Y-135152900D01*
X130090732Y-135152900D01*
X130090735Y-135152900D01*
X130269971Y-135124512D01*
X130442560Y-135068434D01*
X130604251Y-134986049D01*
X130751064Y-134879383D01*
X130879383Y-134751064D01*
X130986049Y-134604251D01*
X131068434Y-134442560D01*
X131124512Y-134269971D01*
X131152900Y-134090735D01*
X131152900Y-133909265D01*
X131124512Y-133730029D01*
X131068434Y-133557440D01*
X130986049Y-133395749D01*
X130879383Y-133248936D01*
X130879380Y-133248933D01*
X130879378Y-133248930D01*
X130751069Y-133120621D01*
X130751066Y-133120619D01*
X130751064Y-133120617D01*
X130604251Y-133013951D01*
X130604227Y-133013939D01*
X130442567Y-132931569D01*
X130442563Y-132931567D01*
X130442560Y-132931566D01*
X130269971Y-132875488D01*
X130090735Y-132847100D01*
X129909265Y-132847100D01*
X129730029Y-132875488D01*
X129730026Y-132875488D01*
X129730025Y-132875489D01*
X129647219Y-132902394D01*
X129557440Y-132931566D01*
X129557438Y-132931566D01*
X129557432Y-132931569D01*
X129395748Y-133013951D01*
X129248933Y-133120619D01*
X129248930Y-133120621D01*
X129120621Y-133248930D01*
X129120619Y-133248933D01*
X129087033Y-133295161D01*
X129030811Y-133338515D01*
X128985097Y-133347100D01*
X117770908Y-133347100D01*
X117702787Y-133327098D01*
X117666143Y-133291102D01*
X117637965Y-133248930D01*
X117579004Y-133160688D01*
X117439312Y-133020996D01*
X117275051Y-132911241D01*
X117092535Y-132835641D01*
X117088694Y-132834877D01*
X116898779Y-132797100D01*
X116898777Y-132797100D01*
X116701223Y-132797100D01*
X116701220Y-132797100D01*
X116507464Y-132835641D01*
X116507459Y-132835643D01*
X116324948Y-132911241D01*
X116160689Y-133020995D01*
X116160683Y-133021000D01*
X116021000Y-133160683D01*
X116020995Y-133160689D01*
X115911241Y-133324948D01*
X115835643Y-133507459D01*
X115835641Y-133507464D01*
X115797100Y-133701220D01*
X115797100Y-133898779D01*
X115835282Y-134090731D01*
X115835641Y-134092535D01*
X115911241Y-134275051D01*
X116020996Y-134439312D01*
X116160688Y-134579004D01*
X116324949Y-134688759D01*
X116449295Y-134740264D01*
X116504576Y-134784812D01*
X116526998Y-134852175D01*
X116509440Y-134920966D01*
X116457479Y-134969345D01*
X116440015Y-134976506D01*
X116259517Y-135035155D01*
X116259514Y-135035156D01*
X116062043Y-135135772D01*
X115882746Y-135266039D01*
X115726039Y-135422746D01*
X115595772Y-135602043D01*
X115495156Y-135799514D01*
X115495155Y-135799516D01*
X115426669Y-136010290D01*
X115418638Y-136061000D01*
X116383731Y-136061000D01*
X116334075Y-136147007D01*
X116300000Y-136274174D01*
X116300000Y-136405826D01*
X116334075Y-136532993D01*
X116383731Y-136619000D01*
X115418638Y-136619000D01*
X115426669Y-136669709D01*
X115495155Y-136880483D01*
X115495156Y-136880485D01*
X115595772Y-137077956D01*
X115726039Y-137257253D01*
X115777562Y-137308776D01*
X115811588Y-137371088D01*
X115806523Y-137441903D01*
X115763976Y-137498739D01*
X115734692Y-137515085D01*
X115673952Y-137539038D01*
X115673949Y-137539040D01*
X115551725Y-137631725D01*
X115459040Y-137753948D01*
X115402769Y-137896640D01*
X115402768Y-137896646D01*
X115392000Y-137986314D01*
X112349752Y-137986314D01*
X112333579Y-131161220D01*
X115797100Y-131161220D01*
X115797100Y-131358779D01*
X115818329Y-131465503D01*
X115835641Y-131552535D01*
X115911241Y-131735051D01*
X116020996Y-131899312D01*
X116160688Y-132039004D01*
X116324949Y-132148759D01*
X116507465Y-132224359D01*
X116701223Y-132262900D01*
X116701224Y-132262900D01*
X116898776Y-132262900D01*
X116898777Y-132262900D01*
X117092535Y-132224359D01*
X117275051Y-132148759D01*
X117439312Y-132039004D01*
X117579004Y-131899312D01*
X117688759Y-131735051D01*
X117764359Y-131552535D01*
X117802900Y-131358777D01*
X117802900Y-131161223D01*
X117764359Y-130967465D01*
X117688759Y-130784949D01*
X117579004Y-130620688D01*
X117439312Y-130480996D01*
X117275051Y-130371241D01*
X117092535Y-130295641D01*
X116898779Y-130257100D01*
X116898777Y-130257100D01*
X116701223Y-130257100D01*
X116701220Y-130257100D01*
X116507464Y-130295641D01*
X116507459Y-130295643D01*
X116324948Y-130371241D01*
X116160689Y-130480995D01*
X116160683Y-130481000D01*
X116021000Y-130620683D01*
X116020995Y-130620689D01*
X115911241Y-130784948D01*
X115835643Y-130967459D01*
X115835641Y-130967464D01*
X115797100Y-131161220D01*
X112333579Y-131161220D01*
X112327560Y-128621220D01*
X115797100Y-128621220D01*
X115797100Y-128818779D01*
X115835641Y-129012535D01*
X115835643Y-129012540D01*
X115880411Y-129120621D01*
X115911241Y-129195051D01*
X116020996Y-129359312D01*
X116160688Y-129499004D01*
X116324949Y-129608759D01*
X116507465Y-129684359D01*
X116701223Y-129722900D01*
X116701224Y-129722900D01*
X116898776Y-129722900D01*
X116898777Y-129722900D01*
X117092535Y-129684359D01*
X117275051Y-129608759D01*
X117439312Y-129499004D01*
X117579004Y-129359312D01*
X117688759Y-129195051D01*
X117764359Y-129012535D01*
X117802900Y-128818777D01*
X117802900Y-128621223D01*
X117764359Y-128427465D01*
X117688759Y-128244949D01*
X117579004Y-128080688D01*
X117439312Y-127940996D01*
X117275051Y-127831241D01*
X117092535Y-127755641D01*
X116898779Y-127717100D01*
X116898777Y-127717100D01*
X116701223Y-127717100D01*
X116701220Y-127717100D01*
X116507464Y-127755641D01*
X116507459Y-127755643D01*
X116324948Y-127831241D01*
X116160689Y-127940995D01*
X116160683Y-127941000D01*
X116021000Y-128080683D01*
X116020995Y-128080689D01*
X115911241Y-128244948D01*
X115835643Y-128427459D01*
X115835641Y-128427464D01*
X115797100Y-128621220D01*
X112327560Y-128621220D01*
X112321541Y-126081220D01*
X115797100Y-126081220D01*
X115797100Y-126081223D01*
X115797100Y-126278777D01*
X115835641Y-126472535D01*
X115911241Y-126655051D01*
X116020996Y-126819312D01*
X116160688Y-126959004D01*
X116324949Y-127068759D01*
X116507465Y-127144359D01*
X116701223Y-127182900D01*
X116701224Y-127182900D01*
X116898776Y-127182900D01*
X116898777Y-127182900D01*
X117092535Y-127144359D01*
X117275051Y-127068759D01*
X117439312Y-126959004D01*
X117579004Y-126819312D01*
X117688759Y-126655051D01*
X117764359Y-126472535D01*
X117802900Y-126278777D01*
X117802900Y-126081223D01*
X117764359Y-125887465D01*
X117688759Y-125704949D01*
X117579004Y-125540688D01*
X117439312Y-125400996D01*
X117275051Y-125291241D01*
X117092535Y-125215641D01*
X117073793Y-125211913D01*
X116898779Y-125177100D01*
X116898777Y-125177100D01*
X116701223Y-125177100D01*
X116701220Y-125177100D01*
X116507464Y-125215641D01*
X116507459Y-125215643D01*
X116324948Y-125291241D01*
X116160689Y-125400995D01*
X116160683Y-125401000D01*
X116021000Y-125540683D01*
X116020995Y-125540689D01*
X115911241Y-125704948D01*
X115835643Y-125887459D01*
X115835641Y-125887464D01*
X115797100Y-126081220D01*
X112321541Y-126081220D01*
X112308793Y-120701375D01*
X131009100Y-120701375D01*
X131009100Y-120820625D01*
X131039964Y-120935813D01*
X131039965Y-120935815D01*
X131039966Y-120935817D01*
X131099587Y-121039083D01*
X131099595Y-121039093D01*
X131183906Y-121123404D01*
X131183911Y-121123408D01*
X131183913Y-121123410D01*
X131287187Y-121183036D01*
X131402375Y-121213900D01*
X131434456Y-121213900D01*
X131502577Y-121233902D01*
X131523533Y-121250787D01*
X133720517Y-123446884D01*
X133720534Y-123446901D01*
X133721371Y-123447737D01*
X133751015Y-123477381D01*
X133751043Y-123477397D01*
X133751065Y-123477419D01*
X133786033Y-123497598D01*
X133820085Y-123517258D01*
X133820090Y-123517259D01*
X133820132Y-123517276D01*
X133820142Y-123517282D01*
X133820154Y-123517285D01*
X133820171Y-123517292D01*
X133820465Y-123517368D01*
X133854244Y-123526411D01*
X133861292Y-123528299D01*
X133861291Y-123528299D01*
X133861301Y-123528301D01*
X133897122Y-123537900D01*
X133897128Y-123537900D01*
X133897172Y-123537905D01*
X133897184Y-123537909D01*
X133897194Y-123537908D01*
X133897195Y-123537909D01*
X133938308Y-123537900D01*
X133942047Y-123537900D01*
X148869788Y-123537900D01*
X148869804Y-123537901D01*
X148877522Y-123537901D01*
X148957278Y-123537901D01*
X149034315Y-123517258D01*
X149103385Y-123477381D01*
X149938560Y-122642204D01*
X150000873Y-122608180D01*
X150027656Y-122605300D01*
X150059623Y-122605300D01*
X150059625Y-122605300D01*
X150174813Y-122574436D01*
X150278087Y-122514810D01*
X150362410Y-122430487D01*
X150422036Y-122327213D01*
X150452900Y-122212025D01*
X150452900Y-122092775D01*
X150422036Y-121977587D01*
X150362410Y-121874313D01*
X150362408Y-121874311D01*
X150362404Y-121874306D01*
X150278093Y-121789995D01*
X150278083Y-121789987D01*
X150174817Y-121730366D01*
X150174815Y-121730365D01*
X150174813Y-121730364D01*
X150059625Y-121699500D01*
X149940375Y-121699500D01*
X149825187Y-121730364D01*
X149825185Y-121730365D01*
X149825182Y-121730366D01*
X149721916Y-121789987D01*
X149721906Y-121789995D01*
X149637595Y-121874306D01*
X149637587Y-121874316D01*
X149577966Y-121977582D01*
X149577965Y-121977585D01*
X149577964Y-121977587D01*
X149547100Y-122092775D01*
X149547100Y-122092776D01*
X149547100Y-122124744D01*
X149527098Y-122192865D01*
X149510195Y-122213839D01*
X148828839Y-122895195D01*
X148766527Y-122929221D01*
X148739744Y-122932100D01*
X134114604Y-122932100D01*
X134046483Y-122912098D01*
X134025527Y-122895213D01*
X133704620Y-122574436D01*
X132253009Y-121123410D01*
X131951823Y-120822346D01*
X131917785Y-120760041D01*
X131914900Y-120733233D01*
X131914900Y-120701376D01*
X131912767Y-120693416D01*
X131884036Y-120586187D01*
X131824410Y-120482913D01*
X131824408Y-120482911D01*
X131824404Y-120482906D01*
X131740093Y-120398595D01*
X131740083Y-120398587D01*
X131636817Y-120338966D01*
X131636815Y-120338965D01*
X131636813Y-120338964D01*
X131521625Y-120308100D01*
X131402375Y-120308100D01*
X131287187Y-120338964D01*
X131287185Y-120338965D01*
X131287182Y-120338966D01*
X131183916Y-120398587D01*
X131183906Y-120398595D01*
X131099595Y-120482906D01*
X131099587Y-120482916D01*
X131039966Y-120586182D01*
X131039965Y-120586185D01*
X131039964Y-120586187D01*
X131009100Y-120701375D01*
X112308793Y-120701375D01*
X112306384Y-119684942D01*
X140092000Y-119684942D01*
X140092000Y-121315053D01*
X140092001Y-121315060D01*
X140100872Y-121359658D01*
X140100872Y-121359659D01*
X140123349Y-121393298D01*
X140134666Y-121410234D01*
X140185242Y-121444028D01*
X140185241Y-121444028D01*
X140191588Y-121445290D01*
X140229843Y-121452900D01*
X141859956Y-121452899D01*
X141904558Y-121444028D01*
X141955134Y-121410234D01*
X141988928Y-121359658D01*
X141997800Y-121315057D01*
X141997799Y-121204721D01*
X142017800Y-121136604D01*
X142034704Y-121115628D01*
X142644900Y-120505432D01*
X142644900Y-120552661D01*
X142672159Y-120654394D01*
X142724820Y-120745606D01*
X142799294Y-120820080D01*
X142890506Y-120872741D01*
X142992239Y-120900000D01*
X143039466Y-120900000D01*
X142301208Y-121638256D01*
X142333151Y-121661464D01*
X142523607Y-121758506D01*
X142523613Y-121758509D01*
X142726896Y-121824559D01*
X142938026Y-121858000D01*
X143151774Y-121858000D01*
X143362903Y-121824559D01*
X143566186Y-121758509D01*
X143566192Y-121758506D01*
X143756651Y-121661463D01*
X143788590Y-121638257D01*
X143788590Y-121638255D01*
X143050335Y-120900000D01*
X143097561Y-120900000D01*
X143199294Y-120872741D01*
X143290506Y-120820080D01*
X143364980Y-120745606D01*
X143417641Y-120654394D01*
X143444900Y-120552661D01*
X143444900Y-120505435D01*
X144183155Y-121243690D01*
X144183157Y-121243690D01*
X144206363Y-121211751D01*
X144303406Y-121021292D01*
X144303409Y-121021286D01*
X144369459Y-120818003D01*
X144402900Y-120606873D01*
X144402900Y-120393126D01*
X144369459Y-120181996D01*
X144303409Y-119978713D01*
X144303406Y-119978707D01*
X144206364Y-119788251D01*
X144183156Y-119756308D01*
X143444900Y-120494564D01*
X143444900Y-120447339D01*
X143417641Y-120345606D01*
X143364980Y-120254394D01*
X143290506Y-120179920D01*
X143199294Y-120127259D01*
X143097561Y-120100000D01*
X143050334Y-120100000D01*
X143788590Y-119361741D01*
X143756645Y-119338532D01*
X143566198Y-119241495D01*
X143566186Y-119241490D01*
X143362903Y-119175440D01*
X143151774Y-119142000D01*
X142938026Y-119142000D01*
X142726896Y-119175440D01*
X142523613Y-119241490D01*
X142523601Y-119241495D01*
X142333160Y-119338529D01*
X142333149Y-119338536D01*
X142301207Y-119361742D01*
X143039465Y-120100000D01*
X142992239Y-120100000D01*
X142890506Y-120127259D01*
X142799294Y-120179920D01*
X142724820Y-120254394D01*
X142672159Y-120345606D01*
X142644900Y-120447339D01*
X142644900Y-120494565D01*
X142034704Y-119884369D01*
X142000678Y-119822057D01*
X141997799Y-119795274D01*
X141997799Y-119684946D01*
X141997798Y-119684942D01*
X141988928Y-119640342D01*
X141955134Y-119589766D01*
X141904558Y-119555972D01*
X141904557Y-119555971D01*
X141904558Y-119555971D01*
X141872649Y-119549624D01*
X141859957Y-119547100D01*
X141859955Y-119547100D01*
X140229846Y-119547100D01*
X140229839Y-119547101D01*
X140185241Y-119555972D01*
X140185240Y-119555972D01*
X140134667Y-119589765D01*
X140134666Y-119589766D01*
X140126246Y-119602366D01*
X140100871Y-119640342D01*
X140092000Y-119684942D01*
X112306384Y-119684942D01*
X112284565Y-110477386D01*
X157042000Y-110477386D01*
X157042000Y-110722613D01*
X157080364Y-110964838D01*
X157156142Y-111198060D01*
X157156145Y-111198066D01*
X157267479Y-111416569D01*
X157318559Y-111486874D01*
X157318560Y-111486874D01*
X158108370Y-110697064D01*
X158134075Y-110792993D01*
X158199901Y-110907007D01*
X158292993Y-111000099D01*
X158407007Y-111065925D01*
X158502935Y-111091629D01*
X157713124Y-111881439D01*
X157783430Y-111932520D01*
X158001933Y-112043854D01*
X158001939Y-112043857D01*
X158235162Y-112119635D01*
X158235159Y-112119635D01*
X158477386Y-112158000D01*
X158722614Y-112158000D01*
X158964838Y-112119635D01*
X159198060Y-112043857D01*
X159198066Y-112043854D01*
X159416571Y-111932519D01*
X159416573Y-111932518D01*
X159486874Y-111881440D01*
X159486875Y-111881439D01*
X158697065Y-111091629D01*
X158792993Y-111065925D01*
X158907007Y-111000099D01*
X159000099Y-110907007D01*
X159065925Y-110792993D01*
X159091629Y-110697065D01*
X159881439Y-111486875D01*
X159881440Y-111486874D01*
X159932518Y-111416573D01*
X159932519Y-111416571D01*
X160043854Y-111198066D01*
X160043857Y-111198060D01*
X160119635Y-110964838D01*
X160158000Y-110722613D01*
X160158000Y-110477386D01*
X160119635Y-110235161D01*
X160043857Y-110001939D01*
X160043854Y-110001933D01*
X159932520Y-109783430D01*
X159881439Y-109713124D01*
X159091629Y-110502934D01*
X159065925Y-110407007D01*
X159000099Y-110292993D01*
X158907007Y-110199901D01*
X158792993Y-110134075D01*
X158697064Y-110108370D01*
X159486874Y-109318560D01*
X159486874Y-109318559D01*
X159416569Y-109267479D01*
X159198066Y-109156145D01*
X159198060Y-109156142D01*
X158964837Y-109080364D01*
X158964840Y-109080364D01*
X158722614Y-109042000D01*
X158477386Y-109042000D01*
X158235161Y-109080364D01*
X158001939Y-109156142D01*
X158001933Y-109156145D01*
X157783426Y-109267481D01*
X157713124Y-109318558D01*
X157713124Y-109318559D01*
X158502936Y-110108370D01*
X158407007Y-110134075D01*
X158292993Y-110199901D01*
X158199901Y-110292993D01*
X158134075Y-110407007D01*
X158108370Y-110502935D01*
X157318559Y-109713124D01*
X157318558Y-109713124D01*
X157267481Y-109783426D01*
X157156145Y-110001933D01*
X157156142Y-110001939D01*
X157080364Y-110235161D01*
X157042000Y-110477386D01*
X112284565Y-110477386D01*
X112278724Y-108012375D01*
X115944100Y-108012375D01*
X115944100Y-108131625D01*
X115974964Y-108246813D01*
X115974965Y-108246815D01*
X115974966Y-108246817D01*
X116034587Y-108350083D01*
X116034595Y-108350093D01*
X116118906Y-108434404D01*
X116118911Y-108434408D01*
X116118913Y-108434410D01*
X116222187Y-108494036D01*
X116337375Y-108524900D01*
X116337377Y-108524900D01*
X116456623Y-108524900D01*
X116456625Y-108524900D01*
X116571813Y-108494036D01*
X116675087Y-108434410D01*
X116759410Y-108350087D01*
X116819036Y-108246813D01*
X116849900Y-108131625D01*
X116849900Y-108099655D01*
X116869902Y-108031534D01*
X116886805Y-108010560D01*
X119821560Y-105075805D01*
X119883872Y-105041779D01*
X119910655Y-105038900D01*
X137338212Y-105038900D01*
X137406333Y-105058902D01*
X137427307Y-105075805D01*
X137449906Y-105098404D01*
X137449911Y-105098408D01*
X137449913Y-105098410D01*
X137553187Y-105158036D01*
X137668375Y-105188900D01*
X137668377Y-105188900D01*
X137787623Y-105188900D01*
X137787625Y-105188900D01*
X137902813Y-105158036D01*
X138006087Y-105098410D01*
X138090410Y-105014087D01*
X138150036Y-104910813D01*
X138180900Y-104795625D01*
X138180900Y-104676375D01*
X138150036Y-104561187D01*
X138090410Y-104457913D01*
X138090408Y-104457911D01*
X138090404Y-104457906D01*
X138006093Y-104373595D01*
X138006083Y-104373587D01*
X137902817Y-104313966D01*
X137902815Y-104313965D01*
X137902813Y-104313964D01*
X137787625Y-104283100D01*
X137668375Y-104283100D01*
X137553187Y-104313964D01*
X137553185Y-104313965D01*
X137553182Y-104313966D01*
X137449916Y-104373587D01*
X137449906Y-104373595D01*
X137427307Y-104396195D01*
X137364995Y-104430221D01*
X137338212Y-104433100D01*
X119693122Y-104433100D01*
X119654603Y-104443421D01*
X119616083Y-104453742D01*
X119547016Y-104493618D01*
X119547013Y-104493620D01*
X119518816Y-104521817D01*
X119490619Y-104550015D01*
X116458439Y-107582195D01*
X116396127Y-107616221D01*
X116369344Y-107619100D01*
X116337375Y-107619100D01*
X116222187Y-107649964D01*
X116222185Y-107649965D01*
X116222182Y-107649966D01*
X116118916Y-107709587D01*
X116118906Y-107709595D01*
X116034595Y-107793906D01*
X116034587Y-107793916D01*
X115974966Y-107897182D01*
X115974965Y-107897185D01*
X115974964Y-107897187D01*
X115944100Y-108012375D01*
X112278724Y-108012375D01*
X112247592Y-94874942D01*
X114597100Y-94874942D01*
X114597100Y-96605053D01*
X114597101Y-96605060D01*
X114605972Y-96649658D01*
X114605972Y-96649659D01*
X114610995Y-96657176D01*
X114639766Y-96700234D01*
X114690342Y-96734028D01*
X114690341Y-96734028D01*
X114696688Y-96735290D01*
X114734943Y-96742900D01*
X115171100Y-96742899D01*
X115239221Y-96762901D01*
X115285714Y-96816556D01*
X115297100Y-96868899D01*
X115297100Y-99168187D01*
X115297099Y-99168205D01*
X115297099Y-99255679D01*
X115317742Y-99332716D01*
X115317742Y-99332717D01*
X115357616Y-99401781D01*
X115357624Y-99401791D01*
X118915308Y-102959475D01*
X118915313Y-102959479D01*
X118915315Y-102959481D01*
X118984385Y-102999358D01*
X119061422Y-103020001D01*
X119148896Y-103020001D01*
X119148912Y-103020000D01*
X151485088Y-103020000D01*
X151485104Y-103020001D01*
X151492822Y-103020001D01*
X151572578Y-103020001D01*
X151649615Y-102999358D01*
X151718685Y-102959481D01*
X151718691Y-102959475D01*
X151725237Y-102954453D01*
X151726101Y-102955579D01*
X151780674Y-102925779D01*
X151807457Y-102922900D01*
X151839423Y-102922900D01*
X151839425Y-102922900D01*
X151954613Y-102892036D01*
X152057887Y-102832410D01*
X152142210Y-102748087D01*
X152201836Y-102644813D01*
X152232700Y-102529625D01*
X152232700Y-102410375D01*
X152201836Y-102295187D01*
X152142210Y-102191913D01*
X152142208Y-102191911D01*
X152142204Y-102191906D01*
X152057893Y-102107595D01*
X152057883Y-102107587D01*
X151954617Y-102047966D01*
X151954615Y-102047965D01*
X151954613Y-102047964D01*
X151839425Y-102017100D01*
X151720175Y-102017100D01*
X151604987Y-102047964D01*
X151604985Y-102047965D01*
X151604982Y-102047966D01*
X151501716Y-102107587D01*
X151501706Y-102107595D01*
X151417395Y-102191906D01*
X151417387Y-102191916D01*
X151357766Y-102295182D01*
X151357764Y-102295186D01*
X151357764Y-102295187D01*
X151350898Y-102320811D01*
X151313948Y-102381433D01*
X151250088Y-102412455D01*
X151229192Y-102414200D01*
X136566198Y-102414200D01*
X136498077Y-102394198D01*
X136451584Y-102340542D01*
X136441480Y-102270268D01*
X136470974Y-102205688D01*
X136477026Y-102199181D01*
X136693955Y-101981881D01*
X136756239Y-101947802D01*
X136783127Y-101944900D01*
X136814623Y-101944900D01*
X136814625Y-101944900D01*
X136929813Y-101914036D01*
X137033087Y-101854410D01*
X137033093Y-101854404D01*
X137055693Y-101831805D01*
X137118005Y-101797779D01*
X137144788Y-101794900D01*
X141610212Y-101794900D01*
X141678333Y-101814902D01*
X141699307Y-101831805D01*
X141721906Y-101854404D01*
X141721911Y-101854408D01*
X141721913Y-101854410D01*
X141825187Y-101914036D01*
X141940375Y-101944900D01*
X141940377Y-101944900D01*
X142059623Y-101944900D01*
X142059625Y-101944900D01*
X142174813Y-101914036D01*
X142278087Y-101854410D01*
X142362410Y-101770087D01*
X142422036Y-101666813D01*
X142452900Y-101551625D01*
X142452900Y-101432375D01*
X142422036Y-101317187D01*
X142362410Y-101213913D01*
X142362408Y-101213911D01*
X142362404Y-101213906D01*
X142278093Y-101129595D01*
X142278083Y-101129587D01*
X142174817Y-101069966D01*
X142174815Y-101069965D01*
X142174813Y-101069964D01*
X142059625Y-101039100D01*
X141940375Y-101039100D01*
X141825187Y-101069964D01*
X141825185Y-101069965D01*
X141825182Y-101069966D01*
X141721916Y-101129587D01*
X141721906Y-101129595D01*
X141699307Y-101152195D01*
X141636995Y-101186221D01*
X141610212Y-101189100D01*
X137144788Y-101189100D01*
X137076667Y-101169098D01*
X137055693Y-101152195D01*
X137033093Y-101129595D01*
X137033083Y-101129587D01*
X136929817Y-101069966D01*
X136929815Y-101069965D01*
X136929813Y-101069964D01*
X136814625Y-101039100D01*
X136695375Y-101039100D01*
X136580187Y-101069964D01*
X136580185Y-101069965D01*
X136580182Y-101069966D01*
X136476916Y-101129587D01*
X136476906Y-101129595D01*
X136392595Y-101213906D01*
X136392587Y-101213916D01*
X136332966Y-101317182D01*
X136332965Y-101317185D01*
X136332964Y-101317187D01*
X136302100Y-101432375D01*
X136302100Y-101432376D01*
X136302100Y-101464815D01*
X136282098Y-101532936D01*
X136265271Y-101553834D01*
X136152483Y-101666817D01*
X136082301Y-101737119D01*
X136020018Y-101771197D01*
X135993129Y-101774100D01*
X119775788Y-101774100D01*
X119707667Y-101754098D01*
X119686693Y-101737195D01*
X119664093Y-101714595D01*
X119664083Y-101714587D01*
X119560817Y-101654966D01*
X119560815Y-101654965D01*
X119560813Y-101654964D01*
X119445625Y-101624100D01*
X119326375Y-101624100D01*
X119211187Y-101654964D01*
X119211185Y-101654965D01*
X119211182Y-101654966D01*
X119107916Y-101714587D01*
X119107906Y-101714595D01*
X119023595Y-101798906D01*
X119023587Y-101798916D01*
X118963963Y-101902189D01*
X118963132Y-101904195D01*
X118961978Y-101905625D01*
X118959835Y-101909339D01*
X118959255Y-101909004D01*
X118918580Y-101959474D01*
X118851215Y-101981890D01*
X118782425Y-101964328D01*
X118757631Y-101945065D01*
X115939805Y-99127239D01*
X115905779Y-99064927D01*
X115902900Y-99038144D01*
X115902900Y-96868899D01*
X115922902Y-96800778D01*
X115976558Y-96754285D01*
X116028900Y-96742899D01*
X116465054Y-96742899D01*
X116465056Y-96742899D01*
X116509658Y-96734028D01*
X116560234Y-96700234D01*
X116594028Y-96649658D01*
X116602900Y-96605057D01*
X116602899Y-94874944D01*
X116594028Y-94830342D01*
X116560234Y-94779766D01*
X116509658Y-94745972D01*
X116509657Y-94745971D01*
X116509658Y-94745971D01*
X116474206Y-94738920D01*
X116465057Y-94737100D01*
X116465055Y-94737100D01*
X114734946Y-94737100D01*
X114734939Y-94737101D01*
X114690341Y-94745972D01*
X114690340Y-94745972D01*
X114645939Y-94775641D01*
X114639766Y-94779766D01*
X114632109Y-94791226D01*
X114605971Y-94830342D01*
X114597100Y-94874942D01*
X112247592Y-94874942D01*
X112243389Y-93101220D01*
X114597100Y-93101220D01*
X114597100Y-93298779D01*
X114635641Y-93492535D01*
X114635643Y-93492540D01*
X114656345Y-93542520D01*
X114711241Y-93675051D01*
X114820996Y-93839312D01*
X114960688Y-93979004D01*
X115124949Y-94088759D01*
X115307465Y-94164359D01*
X115501223Y-94202900D01*
X115501224Y-94202900D01*
X115698776Y-94202900D01*
X115698777Y-94202900D01*
X115892535Y-94164359D01*
X116075051Y-94088759D01*
X116239312Y-93979004D01*
X116379004Y-93839312D01*
X116488759Y-93675051D01*
X116564359Y-93492535D01*
X116602900Y-93298777D01*
X116602900Y-93101223D01*
X116564359Y-92907465D01*
X116488759Y-92724949D01*
X116379004Y-92560688D01*
X116239312Y-92420996D01*
X116075051Y-92311241D01*
X116015581Y-92286608D01*
X115892540Y-92235643D01*
X115892535Y-92235641D01*
X115698779Y-92197100D01*
X115698777Y-92197100D01*
X115501223Y-92197100D01*
X115501220Y-92197100D01*
X115307464Y-92235641D01*
X115307459Y-92235643D01*
X115124948Y-92311241D01*
X114960689Y-92420995D01*
X114960683Y-92421000D01*
X114821000Y-92560683D01*
X114820995Y-92560689D01*
X114711241Y-92724948D01*
X114635643Y-92907459D01*
X114635641Y-92907464D01*
X114597100Y-93101220D01*
X112243389Y-93101220D01*
X112222691Y-84366875D01*
X113223100Y-84366875D01*
X113223100Y-84486125D01*
X113253964Y-84601313D01*
X113253965Y-84601315D01*
X113253966Y-84601317D01*
X113313587Y-84704583D01*
X113313595Y-84704593D01*
X113397906Y-84788904D01*
X113397911Y-84788908D01*
X113397913Y-84788910D01*
X113501187Y-84848536D01*
X113616375Y-84879400D01*
X113616377Y-84879400D01*
X113735623Y-84879400D01*
X113735625Y-84879400D01*
X113850813Y-84848536D01*
X113954087Y-84788910D01*
X113954093Y-84788904D01*
X113976693Y-84766305D01*
X114039005Y-84732279D01*
X114065788Y-84729400D01*
X119383696Y-84729400D01*
X119436867Y-84729402D01*
X119436874Y-84729400D01*
X119436878Y-84729400D01*
X119451728Y-84725420D01*
X119469050Y-84720779D01*
X119469052Y-84720778D01*
X119513905Y-84708762D01*
X119513906Y-84708760D01*
X119514592Y-84708577D01*
X119516717Y-84707449D01*
X119520443Y-84704989D01*
X119561419Y-84681331D01*
X119561420Y-84681330D01*
X119561431Y-84681324D01*
X119579749Y-84670749D01*
X119582803Y-84669106D01*
X119584262Y-84667604D01*
X119625315Y-84626551D01*
X119625318Y-84626547D01*
X120960385Y-83291575D01*
X125638100Y-83291575D01*
X125638100Y-83410825D01*
X125668964Y-83526013D01*
X125668965Y-83526015D01*
X125668966Y-83526017D01*
X125728587Y-83629283D01*
X125728595Y-83629293D01*
X125812906Y-83713604D01*
X125812911Y-83713608D01*
X125812913Y-83713610D01*
X125916187Y-83773236D01*
X125920492Y-83774389D01*
X125923713Y-83776352D01*
X125923818Y-83776396D01*
X125923811Y-83776412D01*
X125981113Y-83811335D01*
X126012138Y-83875194D01*
X126003714Y-83945689D01*
X125958514Y-84000439D01*
X125950885Y-84005214D01*
X125848919Y-84064085D01*
X125848906Y-84064095D01*
X125764595Y-84148406D01*
X125764587Y-84148416D01*
X125704966Y-84251682D01*
X125704965Y-84251685D01*
X125704964Y-84251687D01*
X125674100Y-84366875D01*
X125674100Y-84486125D01*
X125704964Y-84601313D01*
X125704965Y-84601315D01*
X125704966Y-84601317D01*
X125764587Y-84704583D01*
X125764595Y-84704593D01*
X125848906Y-84788904D01*
X125848911Y-84788908D01*
X125848913Y-84788910D01*
X125952187Y-84848536D01*
X126067375Y-84879400D01*
X126067377Y-84879400D01*
X126186623Y-84879400D01*
X126186625Y-84879400D01*
X126301813Y-84848536D01*
X126405087Y-84788910D01*
X126405093Y-84788904D01*
X126427693Y-84766305D01*
X126490005Y-84732279D01*
X126516788Y-84729400D01*
X139266212Y-84729400D01*
X139334333Y-84749402D01*
X139355307Y-84766305D01*
X139377906Y-84788904D01*
X139377911Y-84788908D01*
X139377913Y-84788910D01*
X139481187Y-84848536D01*
X139596375Y-84879400D01*
X139596377Y-84879400D01*
X139715623Y-84879400D01*
X139715625Y-84879400D01*
X139830813Y-84848536D01*
X139934087Y-84788910D01*
X140018410Y-84704587D01*
X140078036Y-84601313D01*
X140108900Y-84486125D01*
X140108900Y-84366875D01*
X140078036Y-84251687D01*
X140018410Y-84148413D01*
X140018408Y-84148411D01*
X140018404Y-84148406D01*
X139934093Y-84064095D01*
X139934083Y-84064087D01*
X139830817Y-84004466D01*
X139830815Y-84004465D01*
X139830813Y-84004464D01*
X139715625Y-83973600D01*
X139596375Y-83973600D01*
X139481187Y-84004464D01*
X139481185Y-84004465D01*
X139481182Y-84004466D01*
X139377916Y-84064087D01*
X139377906Y-84064095D01*
X139355307Y-84086695D01*
X139292995Y-84120721D01*
X139266212Y-84123600D01*
X126516788Y-84123600D01*
X126450286Y-84104621D01*
X126437956Y-84096959D01*
X126405087Y-84064090D01*
X126301813Y-84004464D01*
X126279469Y-83998477D01*
X126263613Y-83988624D01*
X126251896Y-83975510D01*
X126236881Y-83966358D01*
X126228733Y-83949586D01*
X126216310Y-83935681D01*
X126213542Y-83918314D01*
X126205860Y-83902498D01*
X126208073Y-83883985D01*
X126205139Y-83865569D01*
X126212200Y-83849463D01*
X126214288Y-83832003D01*
X126226160Y-83817623D01*
X126233648Y-83800547D01*
X126248294Y-83790816D01*
X126259491Y-83777256D01*
X126267115Y-83772484D01*
X126369087Y-83713610D01*
X126369093Y-83713604D01*
X126391693Y-83691005D01*
X126454005Y-83656979D01*
X126480788Y-83654100D01*
X130965176Y-83654100D01*
X130965232Y-83654115D01*
X131006485Y-83654100D01*
X131044878Y-83654100D01*
X131044883Y-83654100D01*
X131044984Y-83654086D01*
X131044988Y-83654086D01*
X131083594Y-83643726D01*
X131121915Y-83633458D01*
X131121921Y-83633453D01*
X131122006Y-83633417D01*
X131122018Y-83633415D01*
X131155799Y-83613895D01*
X131155801Y-83613894D01*
X131155801Y-83613895D01*
X131155821Y-83613882D01*
X131190985Y-83593581D01*
X131190987Y-83593578D01*
X131191007Y-83593567D01*
X131191052Y-83593532D01*
X131191068Y-83593515D01*
X131191073Y-83593513D01*
X131209553Y-83575018D01*
X131218499Y-83566067D01*
X131218532Y-83566033D01*
X131247381Y-83537185D01*
X131247382Y-83537182D01*
X131253384Y-83531181D01*
X131253558Y-83530981D01*
X131904729Y-82879337D01*
X131967029Y-82845289D01*
X131993857Y-82842400D01*
X132025623Y-82842400D01*
X132025625Y-82842400D01*
X132140813Y-82811536D01*
X132244087Y-82751910D01*
X132328410Y-82667587D01*
X132388036Y-82564313D01*
X132418900Y-82449125D01*
X132418900Y-82329875D01*
X132388036Y-82214687D01*
X132328410Y-82111413D01*
X132328408Y-82111411D01*
X132328404Y-82111406D01*
X132244093Y-82027095D01*
X132244083Y-82027087D01*
X132140817Y-81967466D01*
X132140815Y-81967465D01*
X132140813Y-81967464D01*
X132025625Y-81936600D01*
X131906375Y-81936600D01*
X131791187Y-81967464D01*
X131791185Y-81967465D01*
X131791182Y-81967466D01*
X131687916Y-82027087D01*
X131687906Y-82027095D01*
X131603595Y-82111406D01*
X131603587Y-82111416D01*
X131543966Y-82214682D01*
X131543965Y-82214685D01*
X131543964Y-82214687D01*
X131513100Y-82329875D01*
X131513100Y-82329876D01*
X131513100Y-82362043D01*
X131493098Y-82430164D01*
X131476228Y-82451106D01*
X130916381Y-83011363D01*
X130854081Y-83045411D01*
X130827253Y-83048300D01*
X126480788Y-83048300D01*
X126412667Y-83028298D01*
X126391693Y-83011395D01*
X126369093Y-82988795D01*
X126369083Y-82988787D01*
X126265817Y-82929166D01*
X126265815Y-82929165D01*
X126265813Y-82929164D01*
X126150625Y-82898300D01*
X126031375Y-82898300D01*
X125916187Y-82929164D01*
X125916185Y-82929165D01*
X125916182Y-82929166D01*
X125812916Y-82988787D01*
X125812906Y-82988795D01*
X125728595Y-83073106D01*
X125728587Y-83073116D01*
X125668966Y-83176382D01*
X125668965Y-83176385D01*
X125668964Y-83176387D01*
X125638100Y-83291575D01*
X120960385Y-83291575D01*
X121057749Y-83194218D01*
X121821857Y-82430164D01*
X122172545Y-82079500D01*
X122234858Y-82045479D01*
X122261637Y-82042600D01*
X122293623Y-82042600D01*
X122293625Y-82042600D01*
X122408813Y-82011736D01*
X122512087Y-81952110D01*
X122596410Y-81867787D01*
X122656036Y-81764513D01*
X122686900Y-81649325D01*
X122686900Y-81530075D01*
X122656036Y-81414887D01*
X122596410Y-81311613D01*
X122596408Y-81311611D01*
X122596404Y-81311606D01*
X122512093Y-81227295D01*
X122512083Y-81227287D01*
X122408817Y-81167666D01*
X122408815Y-81167665D01*
X122408813Y-81167664D01*
X122293625Y-81136800D01*
X122174375Y-81136800D01*
X122059187Y-81167664D01*
X122059185Y-81167665D01*
X122059182Y-81167666D01*
X121955916Y-81227287D01*
X121955906Y-81227295D01*
X121871595Y-81311606D01*
X121871587Y-81311616D01*
X121811966Y-81414882D01*
X121811965Y-81414885D01*
X121811964Y-81414887D01*
X121781100Y-81530075D01*
X121781100Y-81530076D01*
X121781100Y-81562024D01*
X121761098Y-81630145D01*
X121744192Y-81651123D01*
X120965096Y-82430164D01*
X119331051Y-84064095D01*
X119308445Y-84086699D01*
X119246132Y-84120721D01*
X119219353Y-84123600D01*
X114065788Y-84123600D01*
X113997667Y-84103598D01*
X113976693Y-84086695D01*
X113954093Y-84064095D01*
X113954083Y-84064087D01*
X113850817Y-84004466D01*
X113850815Y-84004465D01*
X113850813Y-84004464D01*
X113735625Y-83973600D01*
X113616375Y-83973600D01*
X113501187Y-84004464D01*
X113501185Y-84004465D01*
X113501182Y-84004466D01*
X113397916Y-84064087D01*
X113397906Y-84064095D01*
X113313595Y-84148406D01*
X113313587Y-84148416D01*
X113253966Y-84251682D01*
X113253965Y-84251685D01*
X113253964Y-84251687D01*
X113223100Y-84366875D01*
X112222691Y-84366875D01*
X112180380Y-66511475D01*
X129937100Y-66511475D01*
X129937100Y-66630725D01*
X129967964Y-66745913D01*
X129967965Y-66745915D01*
X129967966Y-66745917D01*
X130027587Y-66849183D01*
X130027595Y-66849193D01*
X130111906Y-66933504D01*
X130111911Y-66933508D01*
X130111913Y-66933510D01*
X130215187Y-66993136D01*
X130330375Y-67024000D01*
X130362360Y-67024000D01*
X130430481Y-67044002D01*
X130451453Y-67060902D01*
X133459619Y-70068885D01*
X133516015Y-70125281D01*
X133516022Y-70125285D01*
X133516023Y-70125286D01*
X133542357Y-70140489D01*
X133585085Y-70165158D01*
X133585086Y-70165158D01*
X133585093Y-70165162D01*
X133648151Y-70182056D01*
X133661196Y-70185551D01*
X133662065Y-70185792D01*
X133662120Y-70185799D01*
X133662122Y-70185800D01*
X133662124Y-70185800D01*
X133662131Y-70185802D01*
X133715301Y-70185800D01*
X133715303Y-70185800D01*
X152150212Y-70185800D01*
X152218333Y-70205802D01*
X152239307Y-70222705D01*
X152261906Y-70245304D01*
X152261911Y-70245308D01*
X152261913Y-70245310D01*
X152365187Y-70304936D01*
X152480375Y-70335800D01*
X152480377Y-70335800D01*
X152599623Y-70335800D01*
X152599625Y-70335800D01*
X152714813Y-70304936D01*
X152818087Y-70245310D01*
X152902410Y-70160987D01*
X152962036Y-70057713D01*
X152992900Y-69942525D01*
X152992900Y-69823275D01*
X152962036Y-69708087D01*
X152902410Y-69604813D01*
X152902408Y-69604811D01*
X152902404Y-69604806D01*
X152818093Y-69520495D01*
X152818083Y-69520487D01*
X152714817Y-69460866D01*
X152714815Y-69460865D01*
X152714813Y-69460864D01*
X152599625Y-69430000D01*
X152480375Y-69430000D01*
X152365187Y-69460864D01*
X152365185Y-69460865D01*
X152365182Y-69460866D01*
X152261916Y-69520487D01*
X152261906Y-69520495D01*
X152239307Y-69543095D01*
X152176995Y-69577121D01*
X152150212Y-69580000D01*
X133879649Y-69580000D01*
X133811528Y-69559998D01*
X133790556Y-69543098D01*
X130879807Y-66632524D01*
X130845780Y-66570213D01*
X130842900Y-66543426D01*
X130842900Y-66511476D01*
X130840767Y-66503516D01*
X130812036Y-66396287D01*
X130752410Y-66293013D01*
X130752408Y-66293011D01*
X130752404Y-66293006D01*
X130668093Y-66208695D01*
X130668083Y-66208687D01*
X130564817Y-66149066D01*
X130564815Y-66149065D01*
X130564813Y-66149064D01*
X130449625Y-66118200D01*
X130330375Y-66118200D01*
X130215187Y-66149064D01*
X130215185Y-66149065D01*
X130215182Y-66149066D01*
X130111916Y-66208687D01*
X130111906Y-66208695D01*
X130027595Y-66293006D01*
X130027587Y-66293016D01*
X129967966Y-66396282D01*
X129967965Y-66396285D01*
X129967964Y-66396287D01*
X129937100Y-66511475D01*
X112180380Y-66511475D01*
X112153726Y-55263475D01*
X118928100Y-55263475D01*
X118928100Y-55382725D01*
X118958964Y-55497913D01*
X118958965Y-55497915D01*
X118958966Y-55497917D01*
X119018587Y-55601183D01*
X119018595Y-55601193D01*
X119102906Y-55685504D01*
X119102911Y-55685508D01*
X119102913Y-55685510D01*
X119102914Y-55685511D01*
X119102916Y-55685512D01*
X119152866Y-55714351D01*
X119206187Y-55745136D01*
X119321375Y-55776000D01*
X119321377Y-55776000D01*
X119440623Y-55776000D01*
X119440625Y-55776000D01*
X119555813Y-55745136D01*
X119659087Y-55685510D01*
X119743410Y-55601187D01*
X119803036Y-55497913D01*
X119833900Y-55382725D01*
X119833900Y-55350876D01*
X119853902Y-55282755D01*
X119870824Y-55261761D01*
X119897012Y-55235585D01*
X120457863Y-54674979D01*
X120616526Y-54516385D01*
X120678846Y-54482374D01*
X120705602Y-54479500D01*
X123526100Y-54479500D01*
X123594221Y-54499502D01*
X123640714Y-54553158D01*
X123652100Y-54605500D01*
X123652100Y-56162782D01*
X123643021Y-56193701D01*
X123635637Y-56225052D01*
X123632858Y-56228312D01*
X123632098Y-56230903D01*
X123613657Y-56253390D01*
X123604585Y-56262156D01*
X123601031Y-56264208D01*
X123601026Y-56264212D01*
X123601015Y-56264219D01*
X123560548Y-56304685D01*
X123559810Y-56305421D01*
X123559784Y-56305448D01*
X120358430Y-59506406D01*
X120358393Y-59506440D01*
X120322310Y-59542522D01*
X120322246Y-59542586D01*
X120321920Y-59542913D01*
X120297631Y-59567200D01*
X120297626Y-59567207D01*
X120297619Y-59567215D01*
X120297072Y-59568161D01*
X120297071Y-59568163D01*
X120280621Y-59596657D01*
X120280617Y-59596663D01*
X120257745Y-59636271D01*
X120257745Y-59636273D01*
X120252384Y-59656282D01*
X120252382Y-59656290D01*
X120237619Y-59711370D01*
X120237618Y-59711374D01*
X120237102Y-59713303D01*
X120237101Y-59713314D01*
X120237100Y-59713322D01*
X120237100Y-59738911D01*
X120237099Y-59739987D01*
X120237099Y-59740039D01*
X120237097Y-59801430D01*
X120237100Y-59801475D01*
X120237100Y-60255781D01*
X120237098Y-60316368D01*
X120237100Y-60316375D01*
X120237100Y-60316378D01*
X120238066Y-60319986D01*
X120238067Y-60319988D01*
X120239004Y-60323482D01*
X120239006Y-60323492D01*
X120257739Y-60393410D01*
X120257740Y-60393412D01*
X120257742Y-60393415D01*
X120285062Y-60440736D01*
X120297613Y-60462476D01*
X120297614Y-60462477D01*
X120297619Y-60462485D01*
X120341323Y-60506189D01*
X120341325Y-60506192D01*
X120341326Y-60506192D01*
X121631743Y-61796698D01*
X121756615Y-61921578D01*
X121756619Y-61921585D01*
X121798434Y-61963400D01*
X121798435Y-61963402D01*
X121798436Y-61963402D01*
X121813007Y-61977974D01*
X121813009Y-61977975D01*
X121813015Y-61977981D01*
X121813025Y-61977987D01*
X121813713Y-61978483D01*
X121816230Y-61979837D01*
X121852593Y-62000831D01*
X121852595Y-62000832D01*
X121852598Y-62000834D01*
X121881273Y-62017391D01*
X121882033Y-62017838D01*
X121882083Y-62017856D01*
X121882085Y-62017858D01*
X121882088Y-62017859D01*
X121883010Y-62018206D01*
X121885953Y-62018894D01*
X121913203Y-62026196D01*
X121959111Y-62038499D01*
X121959118Y-62038499D01*
X121959122Y-62038500D01*
X121985695Y-62038500D01*
X121985696Y-62038500D01*
X122038867Y-62038502D01*
X122038870Y-62038500D01*
X122047629Y-62038501D01*
X122047658Y-62038500D01*
X123852360Y-62038500D01*
X123920481Y-62058502D01*
X123941447Y-62075397D01*
X125415925Y-63549691D01*
X125456015Y-63589781D01*
X125456026Y-63589787D01*
X125456031Y-63589792D01*
X125482619Y-63605140D01*
X125482625Y-63605147D01*
X125482627Y-63605145D01*
X125525085Y-63629658D01*
X125525086Y-63629658D01*
X125525271Y-63629765D01*
X125527650Y-63630347D01*
X125566626Y-63640788D01*
X125602122Y-63650300D01*
X125602127Y-63650300D01*
X125602133Y-63650300D01*
X125602141Y-63650303D01*
X125602147Y-63650302D01*
X125602148Y-63650303D01*
X125644013Y-63650300D01*
X125649995Y-63650300D01*
X141438334Y-63650300D01*
X141506455Y-63670302D01*
X141527433Y-63687208D01*
X141762699Y-63922492D01*
X143945615Y-66105579D01*
X143945619Y-66105585D01*
X143976363Y-66136329D01*
X144002006Y-66161974D01*
X144002010Y-66161976D01*
X144002015Y-66161981D01*
X144002027Y-66161988D01*
X144002715Y-66162484D01*
X144005246Y-66163846D01*
X144031989Y-66179286D01*
X144031992Y-66179289D01*
X144071070Y-66201852D01*
X144071081Y-66201857D01*
X144071085Y-66201858D01*
X144095876Y-66208500D01*
X144095884Y-66208505D01*
X144095885Y-66208503D01*
X144113294Y-66213168D01*
X144148110Y-66222499D01*
X144148112Y-66222499D01*
X144148116Y-66222500D01*
X144148122Y-66222500D01*
X144174694Y-66222500D01*
X144174695Y-66222500D01*
X144227866Y-66222502D01*
X144227869Y-66222500D01*
X144236628Y-66222501D01*
X144236657Y-66222500D01*
X152150212Y-66222500D01*
X152218333Y-66242502D01*
X152239307Y-66259405D01*
X152261906Y-66282004D01*
X152261911Y-66282008D01*
X152261913Y-66282010D01*
X152261914Y-66282011D01*
X152261916Y-66282012D01*
X152334508Y-66323923D01*
X152365187Y-66341636D01*
X152480375Y-66372500D01*
X152480377Y-66372500D01*
X152599623Y-66372500D01*
X152599625Y-66372500D01*
X152714813Y-66341636D01*
X152818087Y-66282010D01*
X152902410Y-66197687D01*
X152962036Y-66094413D01*
X152992900Y-65979225D01*
X152992900Y-65859975D01*
X152962036Y-65744787D01*
X152902410Y-65641513D01*
X152902408Y-65641511D01*
X152902404Y-65641506D01*
X152818093Y-65557195D01*
X152818083Y-65557187D01*
X152714817Y-65497566D01*
X152714815Y-65497565D01*
X152714813Y-65497564D01*
X152599625Y-65466700D01*
X152480375Y-65466700D01*
X152365187Y-65497564D01*
X152365185Y-65497565D01*
X152365182Y-65497566D01*
X152261916Y-65557187D01*
X152261906Y-65557195D01*
X152239307Y-65579795D01*
X152176995Y-65613821D01*
X152150212Y-65616700D01*
X144365666Y-65616700D01*
X144297545Y-65596698D01*
X144276567Y-65579792D01*
X143125178Y-64428313D01*
X143044350Y-64347479D01*
X144161900Y-64347479D01*
X144161900Y-64487321D01*
X144182042Y-64562494D01*
X144198092Y-64622394D01*
X144198095Y-64622401D01*
X144268011Y-64743499D01*
X144268019Y-64743509D01*
X144366890Y-64842380D01*
X144366895Y-64842384D01*
X144366897Y-64842386D01*
X144488003Y-64912307D01*
X144623079Y-64948500D01*
X144623081Y-64948500D01*
X144762919Y-64948500D01*
X144762921Y-64948500D01*
X144897997Y-64912307D01*
X144941516Y-64887180D01*
X145004516Y-64870300D01*
X153501877Y-64870300D01*
X153560418Y-64870327D01*
X153560519Y-64870300D01*
X153560625Y-64870300D01*
X153618199Y-64854873D01*
X153618201Y-64854883D01*
X153618252Y-64854858D01*
X153675620Y-64839516D01*
X153675635Y-64839506D01*
X153675797Y-64839440D01*
X153675813Y-64839436D01*
X153722727Y-64812348D01*
X153727022Y-64809869D01*
X153727023Y-64809871D01*
X153727061Y-64809845D01*
X153778922Y-64779937D01*
X153778925Y-64779933D01*
X153778928Y-64779932D01*
X153779080Y-64779816D01*
X153779084Y-64779811D01*
X153779087Y-64779810D01*
X153799818Y-64759077D01*
X153820534Y-64738363D01*
X153820574Y-64738322D01*
X154147737Y-64411457D01*
X154204184Y-64378886D01*
X154229020Y-64372231D01*
X154252997Y-64365807D01*
X154374103Y-64295886D01*
X154472986Y-64197003D01*
X154542907Y-64075897D01*
X154579100Y-63940821D01*
X154579100Y-63800979D01*
X154542907Y-63665903D01*
X154472986Y-63544797D01*
X154472984Y-63544795D01*
X154472980Y-63544790D01*
X154374109Y-63445919D01*
X154374099Y-63445911D01*
X154253001Y-63375995D01*
X154252998Y-63375994D01*
X154252997Y-63375993D01*
X154252995Y-63375992D01*
X154252994Y-63375992D01*
X154216798Y-63366293D01*
X154117921Y-63339800D01*
X153978079Y-63339800D01*
X153905695Y-63359194D01*
X153843005Y-63375992D01*
X153842998Y-63375995D01*
X153721900Y-63445911D01*
X153721890Y-63445919D01*
X153623019Y-63544790D01*
X153623011Y-63544800D01*
X153553093Y-63665901D01*
X153553092Y-63665905D01*
X153540159Y-63714169D01*
X153531999Y-63728295D01*
X153529014Y-63741990D01*
X153507509Y-63770691D01*
X153355568Y-63922495D01*
X153350422Y-63927636D01*
X153288095Y-63961633D01*
X153261367Y-63964500D01*
X145004516Y-63964500D01*
X144941516Y-63947619D01*
X144898001Y-63922495D01*
X144897998Y-63922494D01*
X144897997Y-63922493D01*
X144897995Y-63922492D01*
X144897994Y-63922492D01*
X144861798Y-63912793D01*
X144762921Y-63886300D01*
X144623079Y-63886300D01*
X144550695Y-63905694D01*
X144488005Y-63922492D01*
X144487998Y-63922495D01*
X144366900Y-63992411D01*
X144366890Y-63992419D01*
X144268019Y-64091290D01*
X144268011Y-64091300D01*
X144198095Y-64212398D01*
X144198093Y-64212403D01*
X144161900Y-64347479D01*
X143044350Y-64347479D01*
X141864328Y-63167365D01*
X141864328Y-63167364D01*
X141858383Y-63161419D01*
X141858381Y-63161415D01*
X141814878Y-63117912D01*
X141801994Y-63105027D01*
X141801991Y-63105025D01*
X141801985Y-63105019D01*
X141799298Y-63103468D01*
X141755784Y-63078344D01*
X141755719Y-63078307D01*
X141755381Y-63078112D01*
X141732926Y-63065147D01*
X141732921Y-63065145D01*
X141732915Y-63065142D01*
X141732117Y-63064928D01*
X141732115Y-63064927D01*
X141697521Y-63055657D01*
X141697502Y-63055652D01*
X141695877Y-63055217D01*
X141655890Y-63044501D01*
X141655881Y-63044500D01*
X141655878Y-63044500D01*
X141650885Y-63044500D01*
X141638939Y-63041642D01*
X141614663Y-63027728D01*
X141588850Y-63016930D01*
X141584299Y-63010326D01*
X141577342Y-63006339D01*
X141564439Y-62981506D01*
X141548565Y-62958469D01*
X141548306Y-62950455D01*
X141544609Y-62943338D01*
X141547180Y-62915476D01*
X141546280Y-62887510D01*
X141550397Y-62880626D01*
X141551134Y-62872642D01*
X141568358Y-62850595D01*
X141582723Y-62826579D01*
X141589907Y-62823014D01*
X141594844Y-62816696D01*
X141621254Y-62807461D01*
X141646321Y-62795024D01*
X141660339Y-62793794D01*
X141661862Y-62793262D01*
X141664077Y-62793466D01*
X141668256Y-62793100D01*
X147106212Y-62793100D01*
X147174333Y-62813102D01*
X147195307Y-62830005D01*
X147217906Y-62852604D01*
X147217911Y-62852608D01*
X147217913Y-62852610D01*
X147217914Y-62852611D01*
X147217916Y-62852612D01*
X147278361Y-62887510D01*
X147321187Y-62912236D01*
X147436375Y-62943100D01*
X147436377Y-62943100D01*
X147555623Y-62943100D01*
X147555625Y-62943100D01*
X147670813Y-62912236D01*
X147774087Y-62852610D01*
X147776102Y-62850595D01*
X147796693Y-62830005D01*
X147859005Y-62795979D01*
X147885788Y-62793100D01*
X156413339Y-62793100D01*
X156481460Y-62813102D01*
X156502433Y-62830004D01*
X158663197Y-64990851D01*
X158697221Y-65053163D01*
X158700100Y-65079944D01*
X158700100Y-65111925D01*
X158730964Y-65227113D01*
X158730965Y-65227115D01*
X158730966Y-65227117D01*
X158790587Y-65330383D01*
X158790595Y-65330393D01*
X158874906Y-65414704D01*
X158874911Y-65414708D01*
X158874913Y-65414710D01*
X158978187Y-65474336D01*
X159093375Y-65505200D01*
X159093377Y-65505200D01*
X159212623Y-65505200D01*
X159212625Y-65505200D01*
X159327813Y-65474336D01*
X159431087Y-65414710D01*
X159515410Y-65330387D01*
X159575036Y-65227113D01*
X159605900Y-65111925D01*
X159605900Y-64992675D01*
X159575036Y-64877487D01*
X159553065Y-64839432D01*
X159515412Y-64774216D01*
X159515404Y-64774206D01*
X159431093Y-64689895D01*
X159431083Y-64689887D01*
X159327817Y-64630266D01*
X159327815Y-64630265D01*
X159327813Y-64630264D01*
X159212625Y-64599400D01*
X159212623Y-64599400D01*
X159180666Y-64599400D01*
X159112545Y-64579398D01*
X159091569Y-64562494D01*
X159016397Y-64487319D01*
X156833384Y-62304220D01*
X156833381Y-62304215D01*
X156776985Y-62247819D01*
X156739974Y-62226451D01*
X156715147Y-62212116D01*
X156707922Y-62207944D01*
X156707918Y-62207942D01*
X156706940Y-62207551D01*
X156703551Y-62206772D01*
X156692811Y-62203893D01*
X156692811Y-62203894D01*
X156630886Y-62187300D01*
X156630884Y-62187299D01*
X156543411Y-62187299D01*
X156543395Y-62187300D01*
X147885788Y-62187300D01*
X147817667Y-62167298D01*
X147796693Y-62150395D01*
X147774093Y-62127795D01*
X147774083Y-62127787D01*
X147670817Y-62068166D01*
X147670815Y-62068165D01*
X147670813Y-62068164D01*
X147555625Y-62037300D01*
X147436375Y-62037300D01*
X147321187Y-62068164D01*
X147321185Y-62068165D01*
X147321182Y-62068166D01*
X147217916Y-62127787D01*
X147217906Y-62127795D01*
X147195307Y-62150395D01*
X147132995Y-62184421D01*
X147106212Y-62187300D01*
X137461788Y-62187300D01*
X137393667Y-62167298D01*
X137372693Y-62150395D01*
X137350093Y-62127795D01*
X137350083Y-62127787D01*
X137246817Y-62068166D01*
X137246815Y-62068165D01*
X137246813Y-62068164D01*
X137131625Y-62037300D01*
X137012375Y-62037300D01*
X136897187Y-62068164D01*
X136897185Y-62068165D01*
X136897182Y-62068166D01*
X136793916Y-62127787D01*
X136793906Y-62127795D01*
X136709595Y-62212106D01*
X136709587Y-62212116D01*
X136649966Y-62315382D01*
X136649965Y-62315385D01*
X136649964Y-62315387D01*
X136619100Y-62430575D01*
X136619100Y-62549825D01*
X136649964Y-62665013D01*
X136649965Y-62665015D01*
X136649966Y-62665017D01*
X136709587Y-62768283D01*
X136709595Y-62768293D01*
X136770707Y-62829405D01*
X136804733Y-62891717D01*
X136799668Y-62962532D01*
X136757121Y-63019368D01*
X136690601Y-63044179D01*
X136681612Y-63044500D01*
X125819640Y-63044500D01*
X125751519Y-63024498D01*
X125730550Y-63007601D01*
X125685475Y-62962532D01*
X124248209Y-61525443D01*
X124215985Y-61493219D01*
X124215975Y-61493213D01*
X124215970Y-61493208D01*
X124215968Y-61493206D01*
X124184616Y-61475107D01*
X124184612Y-61475105D01*
X124146910Y-61453339D01*
X124146905Y-61453337D01*
X124105380Y-61442213D01*
X124105371Y-61442210D01*
X124069875Y-61432698D01*
X124069861Y-61432696D01*
X124022009Y-61432699D01*
X124022005Y-61432700D01*
X122176664Y-61432700D01*
X122108543Y-61412698D01*
X122087572Y-61395798D01*
X121327088Y-60635262D01*
X121317239Y-60617222D01*
X121303290Y-60602119D01*
X121300571Y-60586694D01*
X121293068Y-60572952D01*
X121294535Y-60552448D01*
X121290966Y-60532200D01*
X121297017Y-60517755D01*
X121298135Y-60502136D01*
X121310455Y-60485679D01*
X121318399Y-60466717D01*
X121335684Y-60451978D01*
X121340683Y-60445302D01*
X121344746Y-60442385D01*
X121348850Y-60439559D01*
X121450087Y-60381110D01*
X121486146Y-60345050D01*
X121495645Y-60338512D01*
X121518860Y-60330888D01*
X121540305Y-60319179D01*
X121561441Y-60316906D01*
X121563098Y-60316363D01*
X121564094Y-60316621D01*
X121567088Y-60316300D01*
X126446364Y-60316300D01*
X126514485Y-60336302D01*
X126535452Y-60353197D01*
X127979188Y-61796698D01*
X128013218Y-61859008D01*
X128016100Y-61885801D01*
X128016100Y-61917725D01*
X128046964Y-62032913D01*
X128046965Y-62032915D01*
X128046966Y-62032917D01*
X128106587Y-62136183D01*
X128106595Y-62136193D01*
X128190906Y-62220504D01*
X128190911Y-62220508D01*
X128190913Y-62220510D01*
X128294187Y-62280136D01*
X128409375Y-62311000D01*
X128409377Y-62311000D01*
X128528623Y-62311000D01*
X128528625Y-62311000D01*
X128643813Y-62280136D01*
X128747087Y-62220510D01*
X128831410Y-62136187D01*
X128891036Y-62032913D01*
X128921900Y-61917725D01*
X128921900Y-61798475D01*
X128891036Y-61683287D01*
X128831410Y-61580013D01*
X128831408Y-61580011D01*
X128831404Y-61580006D01*
X128747093Y-61495695D01*
X128747083Y-61495687D01*
X128643817Y-61436066D01*
X128643815Y-61436065D01*
X128643813Y-61436064D01*
X128528625Y-61405200D01*
X128528623Y-61405200D01*
X128496612Y-61405200D01*
X128428491Y-61385198D01*
X128407524Y-61368303D01*
X128373543Y-61334327D01*
X127085336Y-60046330D01*
X127051307Y-59984022D01*
X127056366Y-59913206D01*
X127085328Y-59868136D01*
X128437560Y-58515905D01*
X128499872Y-58481879D01*
X128526655Y-58479000D01*
X153949212Y-58479000D01*
X154017333Y-58499002D01*
X154038307Y-58515905D01*
X154060906Y-58538504D01*
X154060911Y-58538508D01*
X154060913Y-58538510D01*
X154164187Y-58598136D01*
X154279375Y-58629000D01*
X154279377Y-58629000D01*
X154398623Y-58629000D01*
X154398625Y-58629000D01*
X154513813Y-58598136D01*
X154617087Y-58538510D01*
X154701410Y-58454187D01*
X154761036Y-58350913D01*
X154791900Y-58235725D01*
X154791900Y-58116475D01*
X154761036Y-58001287D01*
X154701410Y-57898013D01*
X154701408Y-57898011D01*
X154701404Y-57898006D01*
X154617093Y-57813695D01*
X154617083Y-57813687D01*
X154513817Y-57754066D01*
X154513815Y-57754065D01*
X154513813Y-57754064D01*
X154398625Y-57723200D01*
X154279375Y-57723200D01*
X154164187Y-57754064D01*
X154164185Y-57754065D01*
X154164182Y-57754066D01*
X154060916Y-57813687D01*
X154060906Y-57813695D01*
X154038307Y-57836295D01*
X153975995Y-57870321D01*
X153949212Y-57873200D01*
X148942888Y-57873200D01*
X148874767Y-57853198D01*
X148828274Y-57799542D01*
X148818170Y-57729268D01*
X148847664Y-57664688D01*
X148853793Y-57658105D01*
X148864404Y-57647493D01*
X148864410Y-57647487D01*
X148924036Y-57544213D01*
X148954900Y-57429025D01*
X148954900Y-57309775D01*
X148924036Y-57194587D01*
X148864410Y-57091313D01*
X148864408Y-57091311D01*
X148864404Y-57091306D01*
X148791242Y-57018144D01*
X148757216Y-56955832D01*
X148762281Y-56885017D01*
X148804828Y-56828181D01*
X148871348Y-56803370D01*
X148900048Y-56804600D01*
X149079353Y-56833000D01*
X149320647Y-56833000D01*
X149558983Y-56795250D01*
X149788463Y-56720688D01*
X149788469Y-56720685D01*
X150003466Y-56611138D01*
X150068976Y-56563542D01*
X150068976Y-56563541D01*
X149418488Y-55913053D01*
X149507890Y-55876022D01*
X149614351Y-55804888D01*
X149704888Y-55714351D01*
X149776022Y-55607890D01*
X149813053Y-55518488D01*
X150463541Y-56168976D01*
X150463542Y-56168976D01*
X150511138Y-56103466D01*
X150620685Y-55888469D01*
X150620688Y-55888463D01*
X150695250Y-55658983D01*
X150733000Y-55420646D01*
X150733000Y-55179353D01*
X150695250Y-54941016D01*
X150620688Y-54711536D01*
X150620685Y-54711530D01*
X150511139Y-54496534D01*
X150511138Y-54496533D01*
X150463542Y-54431022D01*
X149813053Y-55081511D01*
X149776022Y-54992110D01*
X149704888Y-54885649D01*
X149614351Y-54795112D01*
X149507890Y-54723978D01*
X149418486Y-54686945D01*
X150068976Y-54036456D01*
X150003466Y-53988861D01*
X150003465Y-53988860D01*
X149788469Y-53879314D01*
X149788463Y-53879311D01*
X149558982Y-53804749D01*
X149558985Y-53804749D01*
X149320647Y-53767000D01*
X149079353Y-53767000D01*
X148841016Y-53804749D01*
X148611536Y-53879311D01*
X148611530Y-53879314D01*
X148396529Y-53988863D01*
X148331022Y-54036455D01*
X148981512Y-54686945D01*
X148892110Y-54723978D01*
X148785649Y-54795112D01*
X148695112Y-54885649D01*
X148623978Y-54992110D01*
X148586945Y-55081512D01*
X147936455Y-54431022D01*
X147888863Y-54496529D01*
X147779314Y-54711530D01*
X147779311Y-54711536D01*
X147704749Y-54941016D01*
X147667000Y-55179353D01*
X147667000Y-55420646D01*
X147704749Y-55658983D01*
X147779311Y-55888463D01*
X147779314Y-55888469D01*
X147888860Y-56103465D01*
X147888861Y-56103466D01*
X147936456Y-56168976D01*
X148586945Y-55518486D01*
X148623978Y-55607890D01*
X148695112Y-55714351D01*
X148785649Y-55804888D01*
X148892110Y-55876022D01*
X148981511Y-55913053D01*
X148331022Y-56563542D01*
X148396533Y-56611138D01*
X148396534Y-56611139D01*
X148528213Y-56678233D01*
X148579828Y-56726981D01*
X148596894Y-56795896D01*
X148573993Y-56863098D01*
X148518396Y-56907250D01*
X148471010Y-56916500D01*
X148442375Y-56916500D01*
X148327187Y-56947364D01*
X148327185Y-56947365D01*
X148327182Y-56947366D01*
X148223916Y-57006987D01*
X148223906Y-57006995D01*
X148201307Y-57029595D01*
X148138995Y-57063621D01*
X148112212Y-57066500D01*
X133083650Y-57066500D01*
X133015529Y-57046498D01*
X132994557Y-57029598D01*
X132983102Y-57018144D01*
X132195823Y-56230903D01*
X131228369Y-55263497D01*
X131200455Y-55235585D01*
X131113153Y-55148287D01*
X131096535Y-55131669D01*
X131074991Y-55110124D01*
X131074987Y-55110121D01*
X131074985Y-55110119D01*
X131074980Y-55110116D01*
X131074979Y-55110115D01*
X131051510Y-55096565D01*
X131051508Y-55096563D01*
X131009415Y-55072262D01*
X131005915Y-55070242D01*
X131005912Y-55070241D01*
X131005910Y-55070240D01*
X131005909Y-55070239D01*
X131005908Y-55070239D01*
X131004943Y-55069980D01*
X131004941Y-55069979D01*
X130967563Y-55059965D01*
X130967562Y-55059964D01*
X130967562Y-55059965D01*
X130928874Y-55049599D01*
X130928870Y-55049599D01*
X130865065Y-55049599D01*
X130849113Y-55049600D01*
X130779257Y-55049600D01*
X130711136Y-55029598D01*
X130664643Y-54975942D01*
X130662848Y-54971818D01*
X130649615Y-54939871D01*
X130623759Y-54877449D01*
X130514004Y-54713188D01*
X130374312Y-54573496D01*
X130210051Y-54463741D01*
X130085702Y-54412234D01*
X130030422Y-54367687D01*
X130008001Y-54300324D01*
X130025559Y-54231532D01*
X130077521Y-54183154D01*
X130094985Y-54175993D01*
X130275479Y-54117346D01*
X130275485Y-54117343D01*
X130472956Y-54016727D01*
X130520010Y-53982541D01*
X130652253Y-53886460D01*
X130808960Y-53729753D01*
X130939227Y-53550456D01*
X131039843Y-53352985D01*
X131039844Y-53352983D01*
X131108330Y-53142209D01*
X131116362Y-53091500D01*
X130151269Y-53091500D01*
X130200925Y-53005493D01*
X130235000Y-52878326D01*
X130235000Y-52746674D01*
X130200925Y-52619507D01*
X130151269Y-52533500D01*
X131116361Y-52533500D01*
X131108330Y-52482790D01*
X131039844Y-52272016D01*
X131039843Y-52272014D01*
X130939227Y-52074543D01*
X130808960Y-51895246D01*
X130652253Y-51738539D01*
X130472956Y-51608272D01*
X130296864Y-51518549D01*
X130296862Y-51518547D01*
X130275491Y-51507658D01*
X130275482Y-51507655D01*
X130064705Y-51439168D01*
X130014001Y-51431136D01*
X130014000Y-51431137D01*
X130014000Y-52396231D01*
X129927993Y-52346575D01*
X129800826Y-52312500D01*
X129669174Y-52312500D01*
X129542007Y-52346575D01*
X129456000Y-52396231D01*
X129456000Y-51431137D01*
X129455998Y-51431136D01*
X129405294Y-51439168D01*
X129194517Y-51507655D01*
X129194514Y-51507656D01*
X128997043Y-51608272D01*
X128817746Y-51738539D01*
X128661039Y-51895246D01*
X128530772Y-52074543D01*
X128430156Y-52272014D01*
X128430155Y-52272017D01*
X128371506Y-52452515D01*
X128331432Y-52511121D01*
X128266035Y-52538757D01*
X128196078Y-52526650D01*
X128143772Y-52478643D01*
X128135264Y-52461795D01*
X128131420Y-52452515D01*
X128083759Y-52337449D01*
X127974004Y-52173188D01*
X127834312Y-52033496D01*
X127670051Y-51923741D01*
X127487540Y-51848143D01*
X127487535Y-51848141D01*
X127293779Y-51809600D01*
X127293777Y-51809600D01*
X127096223Y-51809600D01*
X127096220Y-51809600D01*
X126902464Y-51848141D01*
X126902459Y-51848143D01*
X126719948Y-51923741D01*
X126555689Y-52033495D01*
X126555683Y-52033500D01*
X126416000Y-52173183D01*
X126415995Y-52173189D01*
X126306241Y-52337448D01*
X126230643Y-52519959D01*
X126230641Y-52519964D01*
X126192100Y-52713720D01*
X126192100Y-52911279D01*
X126210841Y-53005493D01*
X126230641Y-53105035D01*
X126306241Y-53287551D01*
X126415996Y-53451812D01*
X126555688Y-53591504D01*
X126632661Y-53642935D01*
X126678189Y-53697412D01*
X126687037Y-53767855D01*
X126656396Y-53831899D01*
X126595994Y-53869210D01*
X126562659Y-53873700D01*
X125287341Y-53873700D01*
X125219220Y-53853698D01*
X125172727Y-53800042D01*
X125162623Y-53729768D01*
X125192117Y-53665188D01*
X125217337Y-53642936D01*
X125294312Y-53591504D01*
X125434004Y-53451812D01*
X125543759Y-53287551D01*
X125619359Y-53105035D01*
X125657900Y-52911277D01*
X125657900Y-52713723D01*
X125619359Y-52519965D01*
X125543759Y-52337449D01*
X125434004Y-52173188D01*
X125294312Y-52033496D01*
X125130051Y-51923741D01*
X124947540Y-51848143D01*
X124947535Y-51848141D01*
X124753779Y-51809600D01*
X124753777Y-51809600D01*
X124556223Y-51809600D01*
X124556220Y-51809600D01*
X124362464Y-51848141D01*
X124362459Y-51848143D01*
X124179948Y-51923741D01*
X124015689Y-52033495D01*
X124015683Y-52033500D01*
X123876000Y-52173183D01*
X123875995Y-52173189D01*
X123766241Y-52337448D01*
X123690643Y-52519959D01*
X123690641Y-52519964D01*
X123652100Y-52713720D01*
X123652100Y-52911279D01*
X123670841Y-53005493D01*
X123690641Y-53105035D01*
X123766241Y-53287551D01*
X123875996Y-53451812D01*
X124015688Y-53591504D01*
X124092661Y-53642935D01*
X124138189Y-53697412D01*
X124147037Y-53767855D01*
X124116396Y-53831899D01*
X124055994Y-53869210D01*
X124022659Y-53873700D01*
X120528066Y-53873700D01*
X120488188Y-53873691D01*
X120488154Y-53873700D01*
X120488121Y-53873700D01*
X120449863Y-53883949D01*
X120449864Y-53883950D01*
X120449603Y-53884020D01*
X120449602Y-53884020D01*
X120449601Y-53884021D01*
X120411146Y-53894317D01*
X120411117Y-53894333D01*
X120411085Y-53894342D01*
X120410824Y-53894492D01*
X120410822Y-53894493D01*
X120375380Y-53914954D01*
X120375214Y-53915050D01*
X120375168Y-53915077D01*
X120342068Y-53934179D01*
X120342045Y-53934201D01*
X120342015Y-53934219D01*
X120341729Y-53934504D01*
X120341727Y-53934506D01*
X120312212Y-53964021D01*
X119442540Y-54833315D01*
X119380220Y-54867326D01*
X119353464Y-54870200D01*
X119321375Y-54870200D01*
X119206187Y-54901064D01*
X119206185Y-54901065D01*
X119206182Y-54901066D01*
X119102916Y-54960687D01*
X119102906Y-54960695D01*
X119018595Y-55045006D01*
X119018587Y-55045016D01*
X118958966Y-55148282D01*
X118958966Y-55148283D01*
X118958964Y-55148287D01*
X118928100Y-55263475D01*
X112153726Y-55263475D01*
X112147989Y-52842478D01*
X114380600Y-52842478D01*
X114380600Y-53104721D01*
X114414828Y-53364708D01*
X114414829Y-53364714D01*
X114414830Y-53364716D01*
X114482702Y-53618019D01*
X114583057Y-53860297D01*
X114583058Y-53860298D01*
X114583063Y-53860309D01*
X114714173Y-54087399D01*
X114714177Y-54087405D01*
X114873810Y-54295442D01*
X114873829Y-54295463D01*
X115059236Y-54480870D01*
X115059257Y-54480889D01*
X115267294Y-54640522D01*
X115267300Y-54640526D01*
X115494390Y-54771636D01*
X115494394Y-54771637D01*
X115494403Y-54771643D01*
X115736681Y-54871998D01*
X115989984Y-54939870D01*
X115989990Y-54939870D01*
X115989991Y-54939871D01*
X116015000Y-54943163D01*
X116249980Y-54974100D01*
X116249987Y-54974100D01*
X116512213Y-54974100D01*
X116512220Y-54974100D01*
X116772216Y-54939870D01*
X117025519Y-54871998D01*
X117267797Y-54771643D01*
X117494903Y-54640524D01*
X117702951Y-54480882D01*
X117888382Y-54295451D01*
X118048024Y-54087403D01*
X118179143Y-53860297D01*
X118279498Y-53618019D01*
X118347370Y-53364716D01*
X118381600Y-53104720D01*
X118381600Y-52842480D01*
X118347370Y-52582484D01*
X118279498Y-52329181D01*
X118179143Y-52086903D01*
X118179137Y-52086894D01*
X118179136Y-52086890D01*
X118048026Y-51859800D01*
X118048022Y-51859794D01*
X117888389Y-51651757D01*
X117888370Y-51651736D01*
X117702963Y-51466329D01*
X117702942Y-51466310D01*
X117631166Y-51411234D01*
X143072100Y-51411234D01*
X143072100Y-51588765D01*
X143099872Y-51764119D01*
X143154734Y-51932964D01*
X143235333Y-52091149D01*
X143339687Y-52234780D01*
X143465219Y-52360312D01*
X143465222Y-52360314D01*
X143608851Y-52464667D01*
X143767037Y-52545266D01*
X143935883Y-52600128D01*
X144111232Y-52627900D01*
X144111234Y-52627900D01*
X144288766Y-52627900D01*
X144288768Y-52627900D01*
X144464117Y-52600128D01*
X144632963Y-52545266D01*
X144791149Y-52464667D01*
X144934778Y-52360314D01*
X145060314Y-52234778D01*
X145164667Y-52091149D01*
X145200054Y-52021696D01*
X145248802Y-51970082D01*
X145312321Y-51952900D01*
X153087679Y-51952900D01*
X153155800Y-51972902D01*
X153199945Y-52021696D01*
X153205957Y-52033496D01*
X153235335Y-52091152D01*
X153339687Y-52234780D01*
X153465219Y-52360312D01*
X153465222Y-52360314D01*
X153608851Y-52464667D01*
X153767037Y-52545266D01*
X153935883Y-52600128D01*
X154111232Y-52627900D01*
X154111234Y-52627900D01*
X154288766Y-52627900D01*
X154288768Y-52627900D01*
X154464117Y-52600128D01*
X154632963Y-52545266D01*
X154791149Y-52464667D01*
X154934778Y-52360314D01*
X155060314Y-52234778D01*
X155164667Y-52091149D01*
X155245266Y-51932963D01*
X155300128Y-51764117D01*
X155327900Y-51588768D01*
X155327900Y-51411232D01*
X155300128Y-51235883D01*
X155245266Y-51067037D01*
X155164667Y-50908851D01*
X155060314Y-50765222D01*
X155060312Y-50765219D01*
X154934780Y-50639687D01*
X154791149Y-50535333D01*
X154632964Y-50454734D01*
X154464119Y-50399872D01*
X154376442Y-50385986D01*
X154288768Y-50372100D01*
X154111232Y-50372100D01*
X154041092Y-50383208D01*
X153935880Y-50399872D01*
X153767035Y-50454734D01*
X153608850Y-50535333D01*
X153465219Y-50639687D01*
X153339687Y-50765219D01*
X153235335Y-50908847D01*
X153199946Y-50978303D01*
X153151198Y-51029918D01*
X153087679Y-51047100D01*
X145312321Y-51047100D01*
X145244200Y-51027098D01*
X145200054Y-50978303D01*
X145197403Y-50973100D01*
X145164667Y-50908851D01*
X145060314Y-50765222D01*
X145060312Y-50765219D01*
X144934780Y-50639687D01*
X144791149Y-50535333D01*
X144632964Y-50454734D01*
X144464119Y-50399872D01*
X144376442Y-50385986D01*
X144288768Y-50372100D01*
X144111232Y-50372100D01*
X144041092Y-50383208D01*
X143935880Y-50399872D01*
X143767035Y-50454734D01*
X143608850Y-50535333D01*
X143465219Y-50639687D01*
X143339687Y-50765219D01*
X143235333Y-50908850D01*
X143154734Y-51067035D01*
X143099872Y-51235880D01*
X143072100Y-51411234D01*
X117631166Y-51411234D01*
X117494905Y-51306677D01*
X117494899Y-51306673D01*
X117267809Y-51175563D01*
X117267801Y-51175559D01*
X117267797Y-51175557D01*
X117025519Y-51075202D01*
X116772216Y-51007330D01*
X116772214Y-51007329D01*
X116772208Y-51007328D01*
X116512221Y-50973100D01*
X116512220Y-50973100D01*
X116249980Y-50973100D01*
X116249978Y-50973100D01*
X115989991Y-51007328D01*
X115736681Y-51075202D01*
X115494401Y-51175558D01*
X115494390Y-51175563D01*
X115267300Y-51306673D01*
X115267294Y-51306677D01*
X115059257Y-51466310D01*
X115059236Y-51466329D01*
X114873829Y-51651736D01*
X114873810Y-51651757D01*
X114714177Y-51859794D01*
X114714173Y-51859800D01*
X114583063Y-52086890D01*
X114583058Y-52086901D01*
X114482702Y-52329181D01*
X114414828Y-52582491D01*
X114380600Y-52842478D01*
X112147989Y-52842478D01*
X112144974Y-51570252D01*
X112145125Y-51563821D01*
X112161555Y-51229385D01*
X112162767Y-51217087D01*
X112168927Y-51175563D01*
X112211462Y-50888806D01*
X112213874Y-50876683D01*
X112273238Y-50639687D01*
X112294514Y-50554746D01*
X112298098Y-50542930D01*
X112409915Y-50230423D01*
X112414631Y-50219037D01*
X112556537Y-49919003D01*
X112562364Y-49908102D01*
X112732988Y-49623432D01*
X112739845Y-49613171D01*
X112937551Y-49346595D01*
X112945378Y-49337057D01*
X113168270Y-49091134D01*
X113177002Y-49082402D01*
X113422925Y-48859510D01*
X113432463Y-48851683D01*
X113699038Y-48653977D01*
X113709299Y-48647120D01*
X113993989Y-48476484D01*
X114004855Y-48470676D01*
X114304898Y-48328765D01*
X114316297Y-48324044D01*
X114628797Y-48212229D01*
X114640613Y-48208645D01*
X114962550Y-48128005D01*
X114974674Y-48125593D01*
X115302962Y-48076896D01*
X115315254Y-48075685D01*
X115602482Y-48061574D01*
X115649763Y-48059252D01*
X115655945Y-48059100D01*
X115661202Y-48059100D01*
X161874000Y-48059100D01*
X161942121Y-48079102D01*
G37*
%TD.AperFunction*%
%TD*%
M02*
