%TF.GenerationSoftware,KiCad,Pcbnew,9.0.0*%
%TF.CreationDate,2025-03-09T10:23:32+01:00*%
%TF.ProjectId,ws_3.0,77735f33-2e30-42e6-9b69-6361645f7063,rev?*%
%TF.SameCoordinates,Original*%
%TF.FileFunction,Paste,Top*%
%TF.FilePolarity,Positive*%
%FSLAX46Y46*%
G04 Gerber Fmt 4.6, Leading zero omitted, Abs format (unit mm)*
G04 Created by KiCad (PCBNEW 9.0.0) date 2025-03-09 10:23:32*
%MOMM*%
%LPD*%
G01*
G04 APERTURE LIST*
G04 Aperture macros list*
%AMRoundRect*
0 Rectangle with rounded corners*
0 $1 Rounding radius*
0 $2 $3 $4 $5 $6 $7 $8 $9 X,Y pos of 4 corners*
0 Add a 4 corners polygon primitive as box body*
4,1,4,$2,$3,$4,$5,$6,$7,$8,$9,$2,$3,0*
0 Add four circle primitives for the rounded corners*
1,1,$1+$1,$2,$3*
1,1,$1+$1,$4,$5*
1,1,$1+$1,$6,$7*
1,1,$1+$1,$8,$9*
0 Add four rect primitives between the rounded corners*
20,1,$1+$1,$2,$3,$4,$5,0*
20,1,$1+$1,$4,$5,$6,$7,0*
20,1,$1+$1,$6,$7,$8,$9,0*
20,1,$1+$1,$8,$9,$2,$3,0*%
%AMRotRect*
0 Rectangle, with rotation*
0 The origin of the aperture is its center*
0 $1 length*
0 $2 width*
0 $3 Rotation angle, in degrees counterclockwise*
0 Add horizontal line*
21,1,$1,$2,0,0,$3*%
G04 Aperture macros list end*
%ADD10R,2.100000X1.400000*%
%ADD11RoundRect,0.250000X-0.337500X-0.475000X0.337500X-0.475000X0.337500X0.475000X-0.337500X0.475000X0*%
%ADD12RoundRect,0.250000X-0.350000X-0.450000X0.350000X-0.450000X0.350000X0.450000X-0.350000X0.450000X0*%
%ADD13RotRect,1.600000X0.550000X45.000000*%
%ADD14RotRect,1.600000X0.550000X135.000000*%
%ADD15RoundRect,0.250000X-0.325000X-0.450000X0.325000X-0.450000X0.325000X0.450000X-0.325000X0.450000X0*%
%ADD16RoundRect,0.250000X0.337500X0.475000X-0.337500X0.475000X-0.337500X-0.475000X0.337500X-0.475000X0*%
%ADD17R,1.600000X1.000000*%
%ADD18R,2.000000X5.500000*%
%ADD19RoundRect,0.162500X-0.650000X-0.162500X0.650000X-0.162500X0.650000X0.162500X-0.650000X0.162500X0*%
%ADD20RoundRect,0.317500X-1.157500X-0.317500X1.157500X-0.317500X1.157500X0.317500X-1.157500X0.317500X0*%
%ADD21RoundRect,0.150000X-0.512500X-0.150000X0.512500X-0.150000X0.512500X0.150000X-0.512500X0.150000X0*%
G04 APERTURE END LIST*
D10*
%TO.C,SW3*%
X115000000Y-82000000D03*
X115000000Y-86500000D03*
X125000000Y-82000000D03*
X125000000Y-86500000D03*
%TD*%
D11*
%TO.C,C11*%
X132925000Y-121000000D03*
X135000000Y-121000000D03*
%TD*%
%TO.C,C14*%
X142962500Y-103000000D03*
X145037500Y-103000000D03*
%TD*%
%TO.C,C9*%
X144925000Y-85000000D03*
X147000000Y-85000000D03*
%TD*%
%TO.C,C4*%
X138998100Y-66654500D03*
X141073100Y-66654500D03*
%TD*%
D12*
%TO.C,R10*%
X133000000Y-103000000D03*
X135000000Y-103000000D03*
%TD*%
%TO.C,R12*%
X128000000Y-107000000D03*
X130000000Y-107000000D03*
%TD*%
%TO.C,R8*%
X143000000Y-138000000D03*
X145000000Y-138000000D03*
%TD*%
D11*
%TO.C,C13*%
X137962500Y-103000000D03*
X140037500Y-103000000D03*
%TD*%
D13*
%TO.C,U1*%
X135214897Y-94010405D03*
X135780583Y-94576090D03*
X136346268Y-95141776D03*
X136911953Y-95707461D03*
X137477639Y-96273147D03*
X138043324Y-96838832D03*
X138609010Y-97404517D03*
X139174695Y-97970203D03*
D14*
X141225305Y-97970203D03*
X141790990Y-97404517D03*
X142356676Y-96838832D03*
X142922361Y-96273147D03*
X143488047Y-95707461D03*
X144053732Y-95141776D03*
X144619417Y-94576090D03*
X145185103Y-94010405D03*
D13*
X145185103Y-91959795D03*
X144619417Y-91394110D03*
X144053732Y-90828424D03*
X143488047Y-90262739D03*
X142922361Y-89697053D03*
X142356676Y-89131368D03*
X141790990Y-88565683D03*
X141225305Y-87999997D03*
D14*
X139174695Y-87999997D03*
X138609010Y-88565683D03*
X138043324Y-89131368D03*
X137477639Y-89697053D03*
X136911953Y-90262739D03*
X136346268Y-90828424D03*
X135780583Y-91394110D03*
X135214897Y-91959795D03*
%TD*%
D15*
%TO.C,D1*%
X127950000Y-125000000D03*
X130000000Y-125000000D03*
%TD*%
D11*
%TO.C,C1*%
X147925000Y-125000000D03*
X150000000Y-125000000D03*
%TD*%
D12*
%TO.C,R11*%
X115000000Y-61000000D03*
X117000000Y-61000000D03*
%TD*%
D16*
%TO.C,C12*%
X134000000Y-81000000D03*
X131925000Y-81000000D03*
%TD*%
D12*
%TO.C,R4*%
X125000000Y-61000000D03*
X127000000Y-61000000D03*
%TD*%
%TO.C,R7*%
X148000000Y-121000000D03*
X150000000Y-121000000D03*
%TD*%
D17*
%TO.C,D3*%
X148100000Y-61000000D03*
X151900000Y-61000000D03*
%TD*%
%TO.C,D2*%
X141200000Y-61000000D03*
X145000000Y-61000000D03*
%TD*%
D18*
%TO.C,Y1*%
X117000000Y-113500000D03*
X117000000Y-104000000D03*
%TD*%
D12*
%TO.C,R2*%
X139032400Y-72000000D03*
X141032400Y-72000000D03*
%TD*%
D11*
%TO.C,C10*%
X127925000Y-121000000D03*
X130000000Y-121000000D03*
%TD*%
%TO.C,C3*%
X137925000Y-138000000D03*
X140000000Y-138000000D03*
%TD*%
D19*
%TO.C,U3*%
X146825000Y-65190000D03*
X146825000Y-66460000D03*
X146825000Y-67730000D03*
X146825000Y-69000000D03*
X154000000Y-69000000D03*
X154000000Y-67730000D03*
X154000000Y-66460000D03*
X154000000Y-65190000D03*
%TD*%
D11*
%TO.C,C6*%
X129925000Y-61000000D03*
X132000000Y-61000000D03*
%TD*%
%TO.C,C5*%
X131925000Y-72000000D03*
X134000000Y-72000000D03*
%TD*%
D12*
%TO.C,R5*%
X135000000Y-61000000D03*
X137000000Y-61000000D03*
%TD*%
D20*
%TO.C,U5*%
X153950000Y-119000000D03*
X153950000Y-121000000D03*
X153950000Y-123000000D03*
X153950000Y-125000000D03*
X153950000Y-127000000D03*
X153950000Y-129000000D03*
X153950000Y-131000000D03*
X153950000Y-133000000D03*
X169000000Y-133000000D03*
X169000000Y-131000000D03*
X169000000Y-129000000D03*
X169000000Y-127000000D03*
X169000000Y-125000000D03*
X169000000Y-123000000D03*
X169000000Y-121000000D03*
X169000000Y-119000000D03*
%TD*%
D11*
%TO.C,C7*%
X119962500Y-61000000D03*
X122037500Y-61000000D03*
%TD*%
D10*
%TO.C,SW2*%
X115000000Y-66500000D03*
X115000000Y-71000000D03*
X125000000Y-66500000D03*
X125000000Y-71000000D03*
%TD*%
D21*
%TO.C,U4*%
X131912500Y-66050000D03*
X131912500Y-67950000D03*
X134187500Y-67000000D03*
%TD*%
D12*
%TO.C,R6*%
X138000000Y-107000000D03*
X140000000Y-107000000D03*
%TD*%
%TO.C,R1*%
X133000000Y-125000000D03*
X135000000Y-125000000D03*
%TD*%
%TO.C,R9*%
X128000000Y-103000000D03*
X130000000Y-103000000D03*
%TD*%
%TO.C,R3*%
X132000000Y-85000000D03*
X134000000Y-85000000D03*
%TD*%
D15*
%TO.C,D4*%
X132950000Y-107000000D03*
X135000000Y-107000000D03*
%TD*%
M02*
