%TF.GenerationSoftware,KiCad,Pcbnew,9.0.0*%
%TF.CreationDate,2025-03-09T10:23:32+01:00*%
%TF.ProjectId,ws_3.0,77735f33-2e30-42e6-9b69-6361645f7063,rev?*%
%TF.SameCoordinates,Original*%
%TF.FileFunction,Soldermask,Bot*%
%TF.FilePolarity,Negative*%
%FSLAX46Y46*%
G04 Gerber Fmt 4.6, Leading zero omitted, Abs format (unit mm)*
G04 Created by KiCad (PCBNEW 9.0.0) date 2025-03-09 10:23:32*
%MOMM*%
%LPD*%
G01*
G04 APERTURE LIST*
G04 Aperture macros list*
%AMRoundRect*
0 Rectangle with rounded corners*
0 $1 Rounding radius*
0 $2 $3 $4 $5 $6 $7 $8 $9 X,Y pos of 4 corners*
0 Add a 4 corners polygon primitive as box body*
4,1,4,$2,$3,$4,$5,$6,$7,$8,$9,$2,$3,0*
0 Add four circle primitives for the rounded corners*
1,1,$1+$1,$2,$3*
1,1,$1+$1,$4,$5*
1,1,$1+$1,$6,$7*
1,1,$1+$1,$8,$9*
0 Add four rect primitives between the rounded corners*
20,1,$1+$1,$2,$3,$4,$5,0*
20,1,$1+$1,$4,$5,$6,$7,0*
20,1,$1+$1,$6,$7,$8,$9,0*
20,1,$1+$1,$8,$9,$2,$3,0*%
G04 Aperture macros list end*
%ADD10C,3.500000*%
%ADD11R,1.905000X2.000000*%
%ADD12O,1.905000X2.000000*%
%ADD13RoundRect,0.250000X-0.550000X-0.550000X0.550000X-0.550000X0.550000X0.550000X-0.550000X0.550000X0*%
%ADD14C,1.600000*%
%ADD15R,1.700000X1.700000*%
%ADD16O,1.700000X1.700000*%
%ADD17C,2.000000*%
%ADD18C,3.250000*%
%ADD19RoundRect,0.250000X-0.650000X-0.650000X0.650000X-0.650000X0.650000X0.650000X-0.650000X0.650000X0*%
%ADD20C,1.800000*%
%ADD21R,1.600000X1.600000*%
%ADD22C,1.950000*%
%ADD23R,1.950000X1.950000*%
%ADD24R,2.000000X2.000000*%
G04 APERTURE END LIST*
D10*
%TO.C,UNK_HOLE_0*%
X116381100Y-52973600D03*
%TD*%
D11*
%TO.C,U2*%
X140060000Y-131600000D03*
D12*
X142600000Y-131600000D03*
X145140000Y-131600000D03*
%TD*%
D13*
%TO.C,SW1*%
X160000000Y-72920000D03*
D14*
X160000000Y-75460000D03*
X160000000Y-78000000D03*
X167620000Y-78000000D03*
X167620000Y-75460000D03*
X167620000Y-72920000D03*
%TD*%
D15*
%TO.C,J1*%
X124655000Y-55352500D03*
D16*
X124655000Y-52812500D03*
X127195000Y-55352500D03*
X127195000Y-52812500D03*
X129735000Y-55352500D03*
X129735000Y-52812500D03*
%TD*%
D17*
%TO.C,TP1*%
X130000000Y-130000000D03*
%TD*%
D18*
%TO.C,J2*%
X122490000Y-152850000D03*
X129990000Y-152850000D03*
D19*
X124400000Y-146500000D03*
D20*
X125670000Y-143960000D03*
X126940000Y-146500000D03*
X128210000Y-143960000D03*
%TD*%
D15*
%TO.C,J6*%
X115600000Y-95740000D03*
D16*
X115600000Y-93200000D03*
X118140000Y-95740000D03*
X118140000Y-93200000D03*
X120680000Y-95740000D03*
X120680000Y-93200000D03*
%TD*%
D21*
%TO.C,C2*%
X141044900Y-120500000D03*
D14*
X143044900Y-120500000D03*
%TD*%
D22*
%TO.C,BT1*%
X144200000Y-51500000D03*
X149200000Y-55300000D03*
X154200000Y-51500000D03*
%TD*%
D10*
%TO.C,UNK_HOLE_3*%
X180381100Y-157973600D03*
%TD*%
D15*
%TO.C,J7*%
X116800000Y-138880000D03*
D16*
X116800000Y-136340000D03*
X116800000Y-133800000D03*
X116800000Y-131260000D03*
X116800000Y-128720000D03*
X116800000Y-126180000D03*
%TD*%
D10*
%TO.C,UNK_HOLE_2*%
X116381100Y-157973600D03*
%TD*%
D23*
%TO.C,AE1*%
X180200000Y-141300000D03*
%TD*%
D17*
%TO.C,TP2*%
X130000000Y-134000000D03*
%TD*%
D23*
%TO.C,J5*%
X166605745Y-143181536D03*
D22*
X166605745Y-151381536D03*
X171605745Y-143181536D03*
X171605745Y-151381536D03*
%TD*%
D18*
%TO.C,J4*%
X136490000Y-152850000D03*
X143990000Y-152850000D03*
D19*
X138400000Y-146500000D03*
D20*
X139670000Y-143960000D03*
X140940000Y-146500000D03*
X142210000Y-143960000D03*
%TD*%
D17*
%TO.C,TP3*%
X130000000Y-138000000D03*
%TD*%
D18*
%TO.C,J3*%
X150490000Y-152850000D03*
X157990000Y-152850000D03*
D19*
X152400000Y-146500000D03*
D20*
X153670000Y-143960000D03*
X154940000Y-146500000D03*
X156210000Y-143960000D03*
%TD*%
D10*
%TO.C,UNK_HOLE_1*%
X180381100Y-52973600D03*
%TD*%
D24*
%TO.C,C8*%
X163600000Y-110600000D03*
D17*
X158600000Y-110600000D03*
%TD*%
M02*
