M48
; DRILL file {KiCad 9.0.0} date 2025-03-09T10:23:55+0100
; FORMAT={-:-/ absolute / metric / decimal}
; #@! TF.CreationDate,2025-03-09T10:23:55+01:00
; #@! TF.GenerationSoftware,Kicad,Pcbnew,9.0.0
; #@! TF.FileFunction,Plated,1,2,PTH
FMAT,2
METRIC
; #@! TA.AperFunction,Plated,PTH,ViaDrill
T1C0.300
; #@! TA.AperFunction,Plated,PTH,ViaDrill
T2C0.350
; #@! TA.AperFunction,Plated,PTH,ComponentDrill
T3C0.800
; #@! TA.AperFunction,Plated,PTH,ComponentDrill
T4C0.900
; #@! TA.AperFunction,Plated,PTH,ComponentDrill
T5C1.000
; #@! TA.AperFunction,Plated,PTH,ComponentDrill
T6C1.100
; #@! TA.AperFunction,Plated,PTH,ComponentDrill
T7C1.300
%
G90
G05
T1
X113.676Y-84.426
X116.397Y-108.072
X119.0Y-89.0
X119.381Y-55.323
X119.386Y-102.077
X120.0Y-90.0
X121.172Y-60.019
X122.234Y-81.59
X122.235Y-98.233
X122.513Y-93.135
X126.091Y-83.351
X126.127Y-84.426
X126.129Y-89.569
X128.088Y-135.091
X128.469Y-61.858
X130.39Y-66.571
X130.766Y-98.233
X131.462Y-120.761
X131.966Y-82.389
X132.0Y-98.0
X135.286Y-96.717
X136.407Y-92.851
X136.755Y-101.492
X137.072Y-62.49
X137.641Y-139.357
X137.728Y-104.736
X139.656Y-84.426
X140.2Y-89.336
X140.352Y-98.185
X140.736Y-93.812
X141.684Y-95.619
X142.0Y-101.492
X143.891Y-93.447
X146.444Y-94.312
X147.496Y-62.49
X148.502Y-57.369
X148.917Y-96.188
X150.0Y-122.152
X150.695Y-100.323
X151.78Y-102.47
X152.54Y-65.92
X152.54Y-69.883
X154.339Y-58.176
X159.153Y-65.052
X161.214Y-96.769
X161.322Y-103.725
T2
X113.392Y-87.133
X113.496Y-69.889
X122.038Y-62.426
X125.0Y-87.865
X126.504Y-69.89
X130.781Y-119.607
X131.912Y-66.895
X132.143Y-105.417
X133.146Y-61.103
X134.0Y-73.408
X135.0Y-126.327
X137.0Y-121.0
X137.297Y-94.088
X139.13Y-94.985
X140.038Y-104.349
X140.63Y-137.072
X141.073Y-65.358
X141.977Y-90.642
X144.693Y-64.417
X145.0Y-106.0
X145.461Y-69.189
X147.0Y-83.663
X147.946Y-138.211
X150.0Y-126.34
X153.95Y-117.812
X153.95Y-134.296
X154.048Y-63.871
X160.176Y-125.49
X165.355Y-140.474
T3
X141.045Y-120.5
X143.045Y-120.5
X160.0Y-72.92
X160.0Y-75.46
X160.0Y-78.0
X167.62Y-72.92
X167.62Y-75.46
X167.62Y-78.0
T4
X124.4Y-146.5
X125.67Y-143.96
X126.94Y-146.5
X128.21Y-143.96
X138.4Y-146.5
X139.67Y-143.96
X140.94Y-146.5
X142.21Y-143.96
X152.4Y-146.5
X153.67Y-143.96
X154.94Y-146.5
X156.21Y-143.96
T5
X115.6Y-93.2
X115.6Y-95.74
X116.8Y-126.18
X116.8Y-128.72
X116.8Y-131.26
X116.8Y-133.8
X116.8Y-136.34
X116.8Y-138.88
X118.14Y-93.2
X118.14Y-95.74
X120.68Y-93.2
X120.68Y-95.74
X124.655Y-52.812
X124.655Y-55.352
X127.195Y-52.812
X127.195Y-55.352
X129.735Y-52.812
X129.735Y-55.352
X130.0Y-130.0
X130.0Y-134.0
X130.0Y-138.0
X158.6Y-110.6
X163.6Y-110.6
T6
X140.06Y-131.6
X142.6Y-131.6
X145.14Y-131.6
T7
X144.2Y-51.5
X149.2Y-55.3
X154.2Y-51.5
X166.606Y-143.182
X166.606Y-151.382
X171.606Y-143.182
X171.606Y-151.382
X180.2Y-141.3
M30
